<svg version="1.1" xmlns="http://www.w3.org/2000/svg" xmlns:xlink="http://www.w3.org/1999/xlink" width="143.19169" height="68.52127" viewBox="0,0,143.19169,68.52127"><defs><radialGradient cx="255.22545" cy="203.03057" r="8.65509" gradientUnits="userSpaceOnUse" id="color-1"><stop offset="0" stop-color="#9f9f9f"/><stop offset="1" stop-color="#000000"/></radialGradient></defs><g transform="translate(-190.65847,-143.25319)"><g data-paper-data="{&quot;isPaintingLayer&quot;:true}" fill-rule="nonzero" stroke-linejoin="miter" stroke-miterlimit="10" stroke-dasharray="" stroke-dashoffset="0" style="mix-blend-mode: normal"><g data-paper-data="{&quot;index&quot;:null}" fill="#a3d325" stroke="#000000" stroke-width="7" stroke-linecap="butt"><path d="M261.0655,186.57101c0.78167,0.01319 1.40283,0.56602 1.38741,1.23478c-0.01542,0.66876 -0.6616,1.2002 -1.44327,1.187c-0.46299,-0.00781 -0.86966,-0.20495 -1.1211,-0.50335c-0.265,0.28968 -0.68046,0.47294 -1.14344,0.46513c-0.78167,-0.01319 -1.40283,-0.56603 -1.38741,-1.23479c0.01542,-0.66876 0.6616,-1.20019 1.44327,-1.18699c0.46299,0.00781 0.86966,0.20495 1.12111,0.50335c0.265,-0.28968 0.68045,-0.47294 1.14344,-0.46512z"/><path d="M266.38794,189.0836c0.01542,-0.66876 0.6616,-1.2002 1.44327,-1.187c0.78167,0.01319 1.40283,0.56603 1.38741,1.23479c-0.01542,0.66876 -0.66159,1.2002 -1.44326,1.187c-0.78167,-0.01319 -1.40284,-0.56603 -1.38741,-1.23479z"/><path d="M266.17748,185.93049c0.01542,-0.66876 0.6616,-1.20019 1.44327,-1.187c0.78167,0.01319 1.40284,0.56603 1.38742,1.23479c-0.01542,0.66876 -0.6616,1.20019 -1.44327,1.18699c-0.78167,-0.01319 -1.40284,-0.56603 -1.38741,-1.23479z"/><path d="M280.79089,190.78039c0.01542,-0.66876 0.6616,-1.2002 1.44327,-1.187c0.78167,0.01319 1.40283,0.56602 1.38741,1.23478c-0.01542,0.66876 -0.6616,1.2002 -1.44327,1.187c-0.78167,-0.01319 -1.40284,-0.56603 -1.38741,-1.23479z"/><path d="M280.08692,184.4694c0.01542,-0.66876 0.6616,-1.20019 1.44327,-1.18699c0.78167,0.01319 1.40283,0.56602 1.38741,1.23478c-0.01542,0.66876 -0.6616,1.2002 -1.44327,1.187c-0.78167,-0.01319 -1.40283,-0.56603 -1.38741,-1.23479z"/><path d="M273.85762,196.72017c0.01542,-0.66876 0.6616,-1.20019 1.44327,-1.187c0.78167,0.01319 1.40284,0.56602 1.38742,1.23478c-0.01542,0.66876 -0.6616,1.2002 -1.44327,1.187c-0.78167,-0.01319 -1.40284,-0.56603 -1.38741,-1.23479z"/><path d="M283.55455,193.73433c0.01542,-0.66876 0.6616,-1.2002 1.44327,-1.187c0.78167,0.01319 1.40284,0.56603 1.38741,1.23479c-0.01542,0.66876 -0.6616,1.2002 -1.44327,1.187c-0.78167,-0.01319 -1.40284,-0.56603 -1.38741,-1.23479z"/><path d="M287.95139,187.26718c0.01542,-0.66876 0.66159,-1.20019 1.44326,-1.18699c0.78167,0.01319 1.40284,0.56603 1.38741,1.23479c-0.01542,0.66876 -0.6616,1.20019 -1.44327,1.187c-0.78167,-0.01319 -1.40283,-0.56603 -1.38741,-1.23479z"/><path d="M265.27062,200.69384c0.01542,-0.66876 0.6616,-1.20019 1.44327,-1.18699c0.78167,0.01319 1.40284,0.56602 1.38741,1.23478c-0.01542,0.66876 -0.6616,1.2002 -1.44327,1.187c-0.78167,-0.01319 -1.40284,-0.56603 -1.38741,-1.23479z"/><path d="M283.70356,199.5514c0.78167,0.01319 1.40284,0.56603 1.38742,1.23479c-0.01542,0.66876 -0.6616,1.2002 -1.44327,1.187c-0.31862,-0.00537 -0.61056,-0.10042 -0.8436,-0.25642c-0.265,0.2897 -0.68046,0.47296 -1.14346,0.46514c-0.78167,-0.01319 -1.40284,-0.56603 -1.38741,-1.23479c0.01542,-0.66876 0.6616,-1.2002 1.44327,-1.187c0.31862,0.00537 0.61056,0.10041 0.8436,0.25642c0.265,-0.2897 0.68046,-0.47295 1.14346,-0.46514z"/><path d="M274.20772,193.8188c0.01542,-0.66876 0.6616,-1.2002 1.44327,-1.187c0.78167,0.01319 1.40283,0.56603 1.38741,1.23479c-0.01542,0.66876 -0.6616,1.20019 -1.44327,1.18699c-0.78167,-0.01319 -1.40283,-0.56602 -1.38741,-1.23478z"/><path d="M292.54011,197.03557c0.00628,-0.2726 0.11738,-0.52238 0.29972,-0.72176c-0.78162,-0.01325 -1.40274,-0.56605 -1.38731,-1.23478c0.01542,-0.66876 0.6616,-1.20019 1.44327,-1.18699c0.78167,0.01319 1.40283,0.56602 1.38741,1.23478c-0.00628,0.2726 -0.11738,0.52238 -0.29972,0.72176c0.78162,0.01325 1.40273,0.56605 1.38731,1.23478c-0.01542,0.66876 -0.66159,1.2002 -1.44326,1.187c-0.78167,-0.01319 -1.40284,-0.56603 -1.38741,-1.23479z"/><path d="M264.5443,195.35157c0.01542,-0.66876 0.6616,-1.2002 1.44327,-1.187c0.78167,0.01319 1.40283,0.56603 1.38741,1.23479c-0.01542,0.66876 -0.6616,1.2002 -1.44327,1.187c-0.78167,-0.01319 -1.40283,-0.56603 -1.38741,-1.23479z"/><path d="M269.51286,188.65181c0.01542,-0.66876 0.6616,-1.20019 1.44327,-1.187c0.78167,0.01319 1.40283,0.56603 1.38741,1.23479c-0.01542,0.66876 -0.66159,1.2002 -1.44326,1.187c-0.78167,-0.01319 -1.40284,-0.56603 -1.38741,-1.23479z"/><path d="M276.25244,178.83239c0.01542,-0.66876 0.6616,-1.20019 1.44327,-1.187c0.78167,0.01319 1.40284,0.56603 1.38742,1.23479c-0.01542,0.66876 -0.6616,1.20019 -1.44327,1.187c-0.78167,-0.01319 -1.40284,-0.56603 -1.38742,-1.23479z"/><path d="M285.06665,177.28528c0.01542,-0.66876 0.66159,-1.2002 1.44326,-1.187c0.78167,0.01319 1.40284,0.56603 1.38742,1.23479c-0.01542,0.66876 -0.6616,1.20019 -1.44327,1.18699c-0.78167,-0.01319 -1.40284,-0.56602 -1.38741,-1.23478z"/><path d="M295.5663,188.6071c0.01542,-0.66876 0.66159,-1.20019 1.44326,-1.18699c0.78167,0.01319 1.40284,0.56602 1.38741,1.23478c-0.01542,0.66876 -0.6616,1.2002 -1.44327,1.187c-0.78167,-0.01319 -1.40283,-0.56603 -1.38741,-1.23479z"/><path d="M291.51217,204.77096c0.01542,-0.66876 0.6616,-1.2002 1.44327,-1.187c0.78167,0.01319 1.40283,0.56603 1.38741,1.23479c-0.01542,0.66876 -0.6616,1.2002 -1.44327,1.187c-0.78167,-0.01319 -1.40284,-0.56603 -1.38741,-1.23479z"/><path d="M274.81115,204.48901c0.01542,-0.66876 0.6616,-1.20019 1.44327,-1.187c0.78167,0.01319 1.40283,0.56603 1.38741,1.23479c-0.01542,0.66876 -0.66159,1.20019 -1.44326,1.187c-0.78167,-0.01319 -1.40284,-0.56603 -1.38741,-1.23479z"/><path d="M297.92399,196.8842c0.01542,-0.66876 0.6616,-1.2002 1.44327,-1.187c0.78167,0.01319 1.40283,0.56603 1.38741,1.23479c-0.01542,0.66876 -0.66159,1.20019 -1.44326,1.187c-0.78167,-0.01319 -1.40284,-0.56602 -1.38741,-1.23478z"/><path d="M298.55157,194.22978c0.01542,-0.66876 0.6616,-1.20019 1.44327,-1.18699c0.78167,0.01319 1.40283,0.56603 1.38741,1.23479c-0.01542,0.66876 -0.6616,1.20019 -1.44327,1.18699c-0.78167,-0.01319 -1.40283,-0.56603 -1.38741,-1.23479z"/><path d="M289.56601,190.92853c0.01542,-0.66876 0.6616,-1.20019 1.44327,-1.18699c0.78167,0.01319 1.40283,0.56603 1.38741,1.23479c-0.01542,0.66876 -0.6616,1.20019 -1.44327,1.18699c-0.78167,-0.01319 -1.40283,-0.56603 -1.38741,-1.23479z"/><path d="M288.84347,197.69998c0.01542,-0.66876 0.6616,-1.20019 1.44327,-1.187c0.78167,0.01319 1.40283,0.56603 1.38741,1.23479c-0.01542,0.66876 -0.6616,1.20019 -1.44327,1.18699c-0.78167,-0.01319 -1.40283,-0.56603 -1.38741,-1.23479z"/><path d="M272.38264,187.00434c0.01542,-0.66876 0.6616,-1.2002 1.44327,-1.187c0.78167,0.01319 1.40284,0.56603 1.38742,1.23479c-0.01542,0.66876 -0.6616,1.20019 -1.44327,1.187c-0.78167,-0.01319 -1.40284,-0.56603 -1.38742,-1.23479z"/><path d="M268.83681,181.12993c0.01542,-0.66876 0.6616,-1.20019 1.44327,-1.187c0.78167,0.01319 1.40283,0.56602 1.38741,1.23478c-0.01542,0.66876 -0.6616,1.2002 -1.44327,1.187c-0.78167,-0.01319 -1.40283,-0.56603 -1.38741,-1.23479z"/><path d="M264.25745,183.23307c0.01542,-0.66876 0.6616,-1.2002 1.44327,-1.187c0.78167,0.01319 1.40283,0.56603 1.38741,1.23479c-0.01542,0.66876 -0.6616,1.2002 -1.44327,1.187c-0.78167,-0.01319 -1.40283,-0.56603 -1.38741,-1.23479z"/><path d="M266.3283,179.39167c0.01542,-0.66876 0.6616,-1.20019 1.44327,-1.187c0.78167,0.01319 1.40284,0.56602 1.38741,1.23478c-0.01542,0.66876 -0.6616,1.2002 -1.44327,1.187c-0.78167,-0.01319 -1.40284,-0.56603 -1.38741,-1.23479z"/><path d="M261.82155,178.34649c0.01542,-0.66876 0.6616,-1.2002 1.44327,-1.187c0.78167,0.01319 1.40283,0.56603 1.38741,1.23479c-0.01542,0.66876 -0.6616,1.2002 -1.44327,1.187c-0.78167,-0.01319 -1.40283,-0.56603 -1.38741,-1.23479z"/><path d="M265.86829,174.78071c0.01542,-0.66876 0.6616,-1.20019 1.44327,-1.187c0.78167,0.01319 1.40283,0.56603 1.38741,1.23479c-0.01542,0.66876 -0.6616,1.20019 -1.44327,1.187c-0.78167,-0.01319 -1.40283,-0.56603 -1.38741,-1.23479z"/><path d="M294.69097,177.44776c0.01542,-0.66876 0.66159,-1.20019 1.44326,-1.187c0.78167,0.01319 1.40284,0.56603 1.38741,1.23479c-0.01542,0.66876 -0.6616,1.20019 -1.44327,1.187c-0.78167,-0.01319 -1.40283,-0.56603 -1.38741,-1.23479z"/><path d="M297.34849,185.0031c0.01542,-0.66876 0.6616,-1.2002 1.44327,-1.187c0.78167,0.01319 1.40284,0.56603 1.38741,1.23479c-0.01542,0.66876 -0.6616,1.2002 -1.44327,1.187c-0.78167,-0.01319 -1.40284,-0.56603 -1.38742,-1.23479z"/><path d="M309.04924,181.08199c0.01542,-0.66876 0.6616,-1.2002 1.44327,-1.187c0.78167,0.01319 1.40283,0.56603 1.38741,1.23479c-0.01542,0.66876 -0.66159,1.2002 -1.44326,1.187c-0.78167,-0.01319 -1.40284,-0.56603 -1.38741,-1.23479z"/><path d="M302.63741,188.96875c0.01542,-0.66876 0.6616,-1.2002 1.44327,-1.187c0.78167,0.01319 1.40284,0.56603 1.38741,1.23479c-0.01542,0.66876 -0.6616,1.2002 -1.44327,1.187c-0.78167,-0.01319 -1.40283,-0.56603 -1.38741,-1.23479z"/><path d="M299.15861,180.18819c0.01542,-0.66876 0.6616,-1.20019 1.44327,-1.187c0.78167,0.01319 1.40283,0.56603 1.38741,1.23479c-0.01542,0.66876 -0.6616,1.20019 -1.44327,1.18699c-0.78167,-0.01319 -1.40283,-0.56603 -1.38741,-1.23479z"/><path d="M284.66628,182.36626c0.01542,-0.66876 0.6616,-1.20019 1.44327,-1.187c0.78167,0.01319 1.40283,0.56603 1.38741,1.23479c-0.01542,0.66876 -0.6616,1.2002 -1.44327,1.187c-0.78167,-0.01319 -1.40284,-0.56603 -1.38741,-1.23479z"/><path d="M316.59153,185.57024c0.01542,-0.66876 0.6616,-1.20019 1.44327,-1.187c0.78167,0.01319 1.40284,0.56603 1.38741,1.23479c-0.01542,0.66876 -0.6616,1.20019 -1.44327,1.187c-0.78167,-0.01319 -1.40284,-0.56603 -1.38742,-1.23479z"/><path d="M301.87757,185.07956c0.01542,-0.66876 0.6616,-1.2002 1.44327,-1.187c0.78167,0.01319 1.40283,0.56603 1.38741,1.23479c-0.01542,0.66876 -0.66159,1.2002 -1.44326,1.187c-0.78167,-0.01319 -1.40284,-0.56603 -1.38742,-1.23479z"/><path d="M307.36578,192.68268c0.01542,-0.66876 0.6616,-1.20019 1.44327,-1.187c0.78167,0.01319 1.40283,0.56603 1.38741,1.23479c-0.01542,0.66876 -0.66159,1.20019 -1.44326,1.187c-0.78167,-0.01319 -1.40284,-0.56603 -1.38742,-1.23479z"/><path d="M307.73642,201.16849c0.01542,-0.66876 0.6616,-1.20019 1.44327,-1.18699c0.78167,0.01319 1.40284,0.56603 1.38741,1.23479c-0.01542,0.66876 -0.6616,1.20019 -1.44327,1.187c-0.78167,-0.01319 -1.40284,-0.56603 -1.38741,-1.23479z"/><path d="M316.58414,198.16832c0.01542,-0.66876 0.6616,-1.2002 1.44327,-1.187c0.78167,0.01319 1.40284,0.56603 1.38742,1.23479c-0.01542,0.66876 -0.6616,1.20019 -1.44327,1.187c-0.78167,-0.01319 -1.40284,-0.56602 -1.38742,-1.23478z"/><path d="M319.40365,198.70046c0.01542,-0.66876 0.6616,-1.20019 1.44327,-1.18699c0.78167,0.01319 1.40284,0.56603 1.38741,1.23479c-0.01542,0.66876 -0.6616,1.20019 -1.44327,1.18699c-0.78167,-0.01319 -1.40284,-0.56603 -1.38741,-1.23479z"/><path d="M316.14648,192.58864c0.01542,-0.66876 0.66159,-1.20019 1.44326,-1.18699c0.78167,0.01319 1.40284,0.56602 1.38742,1.23478c-0.01542,0.66876 -0.6616,1.2002 -1.44327,1.187c-0.78167,-0.01319 -1.40283,-0.56603 -1.38741,-1.23479z"/><path d="M322.06856,193.65772c0.01542,-0.66876 0.6616,-1.2002 1.44327,-1.187c0.78167,0.01319 1.40283,0.56603 1.38741,1.23479c-0.01542,0.66876 -0.6616,1.2002 -1.44327,1.187c-0.78167,-0.01319 -1.40284,-0.56603 -1.38741,-1.23479z"/><path d="M325.44124,207.03968c0.01542,-0.66876 0.6616,-1.20019 1.44327,-1.187c0.78167,0.01319 1.40283,0.56602 1.38741,1.23478c-0.01542,0.66876 -0.6616,1.2002 -1.44327,1.187c-0.78167,-0.01319 -1.40283,-0.56603 -1.38741,-1.23479z"/><path d="M327.51948,190.60019c0.01542,-0.66876 0.66159,-1.2002 1.44326,-1.187c0.78167,0.01319 1.40284,0.56603 1.38741,1.23479c-0.01542,0.66876 -0.6616,1.20019 -1.44327,1.187c-0.78167,-0.01319 -1.40283,-0.56603 -1.38741,-1.23479z"/></g><g data-paper-data="{&quot;index&quot;:null}" fill="#a3d325" stroke="#a3d325" stroke-width="5.5" stroke-linecap="butt"><path d="M261.0655,185.71546c0.78167,0.01319 1.40283,0.56603 1.38741,1.23479c-0.01542,0.66876 -0.6616,1.20019 -1.44327,1.18699c-0.46299,-0.00781 -0.86966,-0.20495 -1.1211,-0.50335c-0.265,0.28968 -0.68046,0.47294 -1.14344,0.46513c-0.78167,-0.01319 -1.40283,-0.56603 -1.38741,-1.23479c0.01542,-0.66876 0.6616,-1.20019 1.44327,-1.18699c0.46299,0.00781 0.86966,0.20494 1.12111,0.50335c0.265,-0.28968 0.68045,-0.47293 1.14344,-0.46512z"/><path d="M266.38794,188.22805c0.01542,-0.66876 0.6616,-1.2002 1.44327,-1.187c0.78167,0.01319 1.40283,0.56603 1.38741,1.23479c-0.01542,0.66876 -0.66159,1.2002 -1.44326,1.187c-0.78167,-0.01319 -1.40284,-0.56603 -1.38741,-1.23479z"/><path d="M266.17748,185.07494c0.01542,-0.66876 0.6616,-1.2002 1.44327,-1.187c0.78167,0.01319 1.40284,0.56603 1.38742,1.23479c-0.01542,0.66876 -0.6616,1.20019 -1.44327,1.18699c-0.78167,-0.01319 -1.40284,-0.56602 -1.38741,-1.23478z"/><path d="M280.79089,189.92484c0.01542,-0.66876 0.6616,-1.20019 1.44327,-1.187c0.78167,0.01319 1.40283,0.56602 1.38741,1.23478c-0.01542,0.66876 -0.6616,1.2002 -1.44327,1.187c-0.78167,-0.01319 -1.40284,-0.56603 -1.38741,-1.23479z"/><path d="M280.08692,183.61385c0.01542,-0.66876 0.6616,-1.20019 1.44327,-1.187c0.78167,0.01319 1.40283,0.56603 1.38741,1.23479c-0.01542,0.66876 -0.6616,1.20019 -1.44327,1.18699c-0.78167,-0.01319 -1.40283,-0.56603 -1.38741,-1.23479z"/><path d="M273.85762,195.86462c0.01542,-0.66876 0.6616,-1.2002 1.44327,-1.187c0.78167,0.01319 1.40284,0.56603 1.38742,1.23479c-0.01542,0.66876 -0.6616,1.20019 -1.44327,1.187c-0.78167,-0.01319 -1.40284,-0.56602 -1.38741,-1.23478z"/><path d="M283.55455,192.87878c0.01542,-0.66876 0.6616,-1.20019 1.44327,-1.187c0.78167,0.01319 1.40284,0.56602 1.38741,1.23478c-0.01542,0.66876 -0.6616,1.2002 -1.44327,1.187c-0.78167,-0.01319 -1.40284,-0.56603 -1.38741,-1.23479z"/><path d="M287.95139,186.41163c0.01542,-0.66876 0.66159,-1.2002 1.44326,-1.187c0.78167,0.01319 1.40284,0.56603 1.38741,1.23479c-0.01542,0.66876 -0.6616,1.20019 -1.44327,1.18699c-0.78167,-0.01319 -1.40283,-0.56602 -1.38741,-1.23478z"/><path d="M265.27062,199.83829c0.01542,-0.66876 0.6616,-1.20019 1.44327,-1.18699c0.78167,0.01319 1.40284,0.56602 1.38741,1.23478c-0.01542,0.66876 -0.6616,1.2002 -1.44327,1.187c-0.78167,-0.01319 -1.40284,-0.56603 -1.38741,-1.23479z"/><path d="M283.70356,198.69585c0.78167,0.01319 1.40284,0.56603 1.38742,1.23479c-0.01542,0.66876 -0.6616,1.2002 -1.44327,1.187c-0.31862,-0.00537 -0.61056,-0.10042 -0.8436,-0.25642c-0.265,0.2897 -0.68046,0.47296 -1.14346,0.46515c-0.78167,-0.01319 -1.40284,-0.56603 -1.38741,-1.23479c0.01542,-0.66876 0.6616,-1.20019 1.44327,-1.187c0.31862,0.00537 0.61056,0.10041 0.8436,0.25642c0.265,-0.2897 0.68046,-0.47296 1.14346,-0.46514z"/><path d="M274.20772,192.96325c0.01542,-0.66876 0.6616,-1.20019 1.44327,-1.187c0.78167,0.01319 1.40283,0.56603 1.38741,1.23479c-0.01542,0.66876 -0.6616,1.20019 -1.44327,1.18699c-0.78167,-0.01319 -1.40283,-0.56603 -1.38741,-1.23479z"/><path d="M292.54011,196.18002c0.00628,-0.2726 0.11738,-0.52238 0.29972,-0.72176c-0.78162,-0.01325 -1.40274,-0.56605 -1.38731,-1.23478c0.01542,-0.66876 0.6616,-1.20019 1.44327,-1.18699c0.78167,0.01319 1.40283,0.56602 1.38741,1.23478c-0.00628,0.2726 -0.11738,0.52238 -0.29972,0.72176c0.78162,0.01325 1.40273,0.56606 1.38731,1.23479c-0.01542,0.66876 -0.66159,1.20019 -1.44326,1.187c-0.78167,-0.01319 -1.40284,-0.56603 -1.38741,-1.23479z"/><path d="M264.5443,194.49602c0.01542,-0.66876 0.6616,-1.20019 1.44327,-1.187c0.78167,0.01319 1.40283,0.56603 1.38741,1.23479c-0.01542,0.66876 -0.6616,1.20019 -1.44327,1.187c-0.78167,-0.01319 -1.40283,-0.56603 -1.38741,-1.23479z"/><path d="M269.51286,187.79626c0.01542,-0.66876 0.6616,-1.2002 1.44327,-1.187c0.78167,0.01319 1.40283,0.56603 1.38741,1.23479c-0.01542,0.66876 -0.66159,1.2002 -1.44326,1.187c-0.78167,-0.01319 -1.40284,-0.56603 -1.38741,-1.23479z"/><path d="M276.25244,177.97684c0.01542,-0.66876 0.6616,-1.20019 1.44327,-1.18699c0.78167,0.01319 1.40284,0.56602 1.38742,1.23478c-0.01542,0.66876 -0.6616,1.2002 -1.44327,1.187c-0.78167,-0.01319 -1.40284,-0.56603 -1.38742,-1.23479z"/><path d="M285.06665,176.42973c0.01542,-0.66876 0.66159,-1.2002 1.44326,-1.187c0.78167,0.01319 1.40284,0.56603 1.38742,1.23479c-0.01542,0.66876 -0.6616,1.20019 -1.44327,1.18699c-0.78167,-0.01319 -1.40284,-0.56602 -1.38741,-1.23478z"/><path d="M295.5663,187.75155c0.01542,-0.66876 0.66159,-1.20019 1.44326,-1.18699c0.78167,0.01319 1.40284,0.56602 1.38741,1.23478c-0.01542,0.66876 -0.6616,1.2002 -1.44327,1.187c-0.78167,-0.01319 -1.40283,-0.56603 -1.38741,-1.23479z"/><path d="M291.51217,203.91541c0.01542,-0.66876 0.6616,-1.2002 1.44327,-1.187c0.78167,0.01319 1.40283,0.56603 1.38741,1.23479c-0.01542,0.66876 -0.6616,1.2002 -1.44327,1.187c-0.78167,-0.01319 -1.40284,-0.56603 -1.38741,-1.23479z"/><path d="M274.81115,203.63346c0.01542,-0.66876 0.6616,-1.2002 1.44327,-1.187c0.78167,0.01319 1.40283,0.56603 1.38741,1.23479c-0.01542,0.66876 -0.66159,1.2002 -1.44326,1.187c-0.78167,-0.01319 -1.40284,-0.56603 -1.38741,-1.23479z"/><path d="M297.92399,196.02865c0.01542,-0.66876 0.6616,-1.2002 1.44327,-1.187c0.78167,0.01319 1.40283,0.56603 1.38741,1.23479c-0.01542,0.66876 -0.66159,1.2002 -1.44326,1.187c-0.78167,-0.01319 -1.40284,-0.56602 -1.38741,-1.23478z"/><path d="M298.55157,193.37423c0.01542,-0.66876 0.6616,-1.20019 1.44327,-1.187c0.78167,0.01319 1.40283,0.56603 1.38741,1.23479c-0.01542,0.66876 -0.6616,1.20019 -1.44327,1.18699c-0.78167,-0.01319 -1.40283,-0.56603 -1.38741,-1.23479z"/><path d="M289.56601,190.07299c0.01542,-0.66876 0.6616,-1.20019 1.44327,-1.187c0.78167,0.01319 1.40283,0.56603 1.38741,1.23479c-0.01542,0.66876 -0.6616,1.20019 -1.44327,1.18699c-0.78167,-0.01319 -1.40283,-0.56603 -1.38741,-1.23479z"/><path d="M288.84347,196.84443c0.01542,-0.66876 0.6616,-1.20019 1.44327,-1.18699c0.78167,0.01319 1.40283,0.56603 1.38741,1.23479c-0.01542,0.66876 -0.6616,1.20019 -1.44327,1.18699c-0.78167,-0.01319 -1.40283,-0.56603 -1.38741,-1.23479z"/><path d="M272.38264,186.14879c0.01542,-0.66876 0.6616,-1.20019 1.44327,-1.187c0.78167,0.01319 1.40284,0.56603 1.38742,1.23479c-0.01542,0.66876 -0.6616,1.20019 -1.44327,1.187c-0.78167,-0.01319 -1.40284,-0.56603 -1.38742,-1.23479z"/><path d="M268.83681,180.27438c0.01542,-0.66876 0.6616,-1.20019 1.44327,-1.187c0.78167,0.01319 1.40283,0.56603 1.38741,1.23479c-0.01542,0.66876 -0.6616,1.20019 -1.44327,1.18699c-0.78167,-0.01319 -1.40283,-0.56603 -1.38741,-1.23479z"/><path d="M264.25745,182.37753c0.01542,-0.66876 0.6616,-1.2002 1.44327,-1.187c0.78167,0.01319 1.40283,0.56603 1.38741,1.23479c-0.01542,0.66876 -0.6616,1.2002 -1.44327,1.187c-0.78167,-0.01319 -1.40283,-0.56603 -1.38741,-1.23479z"/><path d="M266.3283,178.53612c0.01542,-0.66876 0.6616,-1.20019 1.44327,-1.187c0.78167,0.01319 1.40284,0.56602 1.38741,1.23478c-0.01542,0.66876 -0.6616,1.2002 -1.44327,1.187c-0.78167,-0.01319 -1.40284,-0.56603 -1.38741,-1.23479z"/><path d="M261.82155,177.49094c0.01542,-0.66876 0.6616,-1.2002 1.44327,-1.187c0.78167,0.01319 1.40283,0.56603 1.38741,1.23479c-0.01542,0.66876 -0.6616,1.2002 -1.44327,1.187c-0.78167,-0.01319 -1.40283,-0.56603 -1.38741,-1.23479z"/><path d="M265.86829,173.92516c0.01542,-0.66876 0.6616,-1.2002 1.44327,-1.187c0.78167,0.01319 1.40283,0.56603 1.38741,1.23479c-0.01542,0.66876 -0.6616,1.20019 -1.44327,1.187c-0.78167,-0.01319 -1.40283,-0.56602 -1.38741,-1.23478z"/><path d="M294.69097,176.59221c0.01542,-0.66876 0.66159,-1.20019 1.44326,-1.187c0.78167,0.01319 1.40284,0.56603 1.38741,1.23479c-0.01542,0.66876 -0.6616,1.2002 -1.44327,1.187c-0.78167,-0.01319 -1.40283,-0.56603 -1.38741,-1.23479z"/><path d="M297.34849,184.14755c0.01542,-0.66876 0.6616,-1.2002 1.44327,-1.187c0.78167,0.01319 1.40284,0.56603 1.38741,1.23479c-0.01542,0.66876 -0.6616,1.2002 -1.44327,1.187c-0.78167,-0.01319 -1.40284,-0.56603 -1.38742,-1.23479z"/><path d="M309.04924,180.22644c0.01542,-0.66876 0.6616,-1.2002 1.44327,-1.187c0.78167,0.01319 1.40283,0.56603 1.38741,1.23479c-0.01542,0.66876 -0.66159,1.2002 -1.44326,1.187c-0.78167,-0.01319 -1.40284,-0.56603 -1.38741,-1.23479z"/><path d="M302.63741,188.1132c0.01542,-0.66876 0.6616,-1.2002 1.44327,-1.187c0.78167,0.01319 1.40284,0.56603 1.38741,1.23479c-0.01542,0.66876 -0.6616,1.2002 -1.44327,1.187c-0.78167,-0.01319 -1.40283,-0.56603 -1.38741,-1.23479z"/><path d="M299.15861,179.33264c0.01542,-0.66876 0.6616,-1.2002 1.44327,-1.187c0.78167,0.01319 1.40283,0.56603 1.38741,1.23479c-0.01542,0.66876 -0.6616,1.20019 -1.44327,1.18699c-0.78167,-0.01319 -1.40283,-0.56602 -1.38741,-1.23478z"/><path d="M284.66628,181.51071c0.01542,-0.66876 0.6616,-1.2002 1.44327,-1.187c0.78167,0.01319 1.40283,0.56603 1.38741,1.23479c-0.01542,0.66876 -0.6616,1.2002 -1.44327,1.187c-0.78167,-0.01319 -1.40284,-0.56603 -1.38741,-1.23479z"/><path d="M316.59153,184.71469c0.01542,-0.66876 0.6616,-1.2002 1.44327,-1.187c0.78167,0.01319 1.40284,0.56603 1.38741,1.23479c-0.01542,0.66876 -0.6616,1.2002 -1.44327,1.187c-0.78167,-0.01319 -1.40284,-0.56603 -1.38742,-1.23479z"/><path d="M301.87757,184.22401c0.01542,-0.66876 0.6616,-1.2002 1.44327,-1.187c0.78167,0.01319 1.40283,0.56603 1.38741,1.23479c-0.01542,0.66876 -0.66159,1.2002 -1.44326,1.187c-0.78167,-0.01319 -1.40284,-0.56603 -1.38742,-1.23479z"/><path d="M307.36578,191.82713c0.01542,-0.66876 0.6616,-1.20019 1.44327,-1.187c0.78167,0.01319 1.40283,0.56603 1.38741,1.23479c-0.01542,0.66876 -0.66159,1.2002 -1.44326,1.187c-0.78167,-0.01319 -1.40284,-0.56603 -1.38742,-1.23479z"/><path d="M307.73642,200.31294c0.01542,-0.66876 0.6616,-1.20019 1.44327,-1.18699c0.78167,0.01319 1.40284,0.56603 1.38741,1.23479c-0.01542,0.66876 -0.6616,1.20019 -1.44327,1.18699c-0.78167,-0.01319 -1.40284,-0.56603 -1.38741,-1.23479z"/><path d="M316.58414,197.31277c0.01542,-0.66876 0.6616,-1.2002 1.44327,-1.187c0.78167,0.01319 1.40284,0.56603 1.38742,1.23479c-0.01542,0.66876 -0.6616,1.2002 -1.44327,1.187c-0.78167,-0.01319 -1.40284,-0.56602 -1.38742,-1.23478z"/><path d="M319.40365,197.84491c0.01542,-0.66876 0.6616,-1.20019 1.44327,-1.187c0.78167,0.01319 1.40284,0.56603 1.38741,1.23479c-0.01542,0.66876 -0.6616,1.20019 -1.44327,1.18699c-0.78167,-0.01319 -1.40284,-0.56603 -1.38741,-1.23479z"/><path d="M316.14648,191.73309c0.01542,-0.66876 0.66159,-1.20019 1.44326,-1.18699c0.78167,0.01319 1.40284,0.56602 1.38742,1.23478c-0.01542,0.66876 -0.6616,1.2002 -1.44327,1.187c-0.78167,-0.01319 -1.40283,-0.56603 -1.38741,-1.23479z"/><path d="M322.06856,192.80217c0.01542,-0.66876 0.6616,-1.2002 1.44327,-1.187c0.78167,0.01319 1.40283,0.56603 1.38741,1.23479c-0.01542,0.66876 -0.6616,1.20019 -1.44327,1.187c-0.78167,-0.01319 -1.40284,-0.56602 -1.38741,-1.23478z"/><path d="M325.44124,206.18413c0.01542,-0.66876 0.6616,-1.20019 1.44327,-1.187c0.78167,0.01319 1.40283,0.56603 1.38741,1.23479c-0.01542,0.66876 -0.6616,1.20019 -1.44327,1.187c-0.78167,-0.01319 -1.40283,-0.56603 -1.38741,-1.23479z"/><path d="M327.51948,189.74464c0.01542,-0.66876 0.66159,-1.20019 1.44326,-1.187c0.78167,0.01319 1.40284,0.56603 1.38741,1.23479c-0.01542,0.66876 -0.6616,1.20019 -1.44327,1.187c-0.78167,-0.01319 -1.40283,-0.56603 -1.38741,-1.23479z"/></g><path d="M225.57446,198.35878c-1.8483,-3.89591 -2.00946,-6.23773 -2.48917,-10.74949c-0.47971,-4.51175 -0.18488,-7.98814 0.11052,-11.62192c0.2954,-3.63378 0.46172,-5.4863 1.58157,-9.19329c1.11985,-3.70698 2.55578,-7.05028 3.94188,-9.09079c1.3861,-2.0405 1.58625,-3.10066 5.14791,-5.09717c3.56164,-1.99651 7.57679,-2.03575 7.57679,-2.03575c0,0 14.60417,0.43686 17.30892,0.7516c2.70475,0.31476 4.30742,1.16519 6.96135,3.06116c2.65393,1.89596 5.43931,6.34513 5.43931,6.34513l2.63438,7.40572l0.84706,7.72224l-0.28159,11.0233l-2.01767,10.15967l-2.7449,4.2162c0,0 -3.49745,5.05736 -13.24645,5.53376c-9.74901,0.4764 -21.29792,-1.23603 -24.68283,-2.16344c-2.95602,-2.15995 -4.23877,-2.37102 -6.08707,-6.26693z" fill="#ffffff" stroke="#000000" stroke-width="3.5" stroke-linecap="round"/><path d="M226.56664,197.26065c-1.76329,-3.73132 -1.91674,-5.97436 -2.37385,-10.29576c-0.45712,-4.3214 -0.17522,-7.65123 0.10724,-11.13179c0.28246,-3.48057 0.44147,-5.25498 1.51073,-8.8058c1.06925,-3.55081 2.44013,-6.75333 3.76322,-8.708c1.32309,-1.95467 1.51426,-2.97013 4.91354,-4.88298c3.39927,-1.91285 7.23103,-1.95105 7.23103,-1.95105c0,0 13.93705,0.41618 16.51821,0.71725c2.58117,0.30106 4.11051,1.11539 6.64292,2.931c2.53242,1.81561 5.1899,6.07671 5.1899,6.07671l2.51292,7.09298l0.80719,7.39643l-0.2704,10.55844l-1.92705,9.73149l-2.62016,4.0388c0,0 -3.33846,4.84461 -12.64226,5.3024c-9.30379,0.4578 -20.58408,-0.71255 -23.81423,-1.60032c-3.23015,-0.88778 -3.78567,-2.7385 -5.54896,-6.46981z" fill="#ffffff" stroke="#1c1c1c" stroke-width="3" stroke-linecap="round"/><path d="M256.74152,177.03395c5.15993,0.22405 9.20522,3.57593 9.03542,7.48661c-0.16981,3.91067 -4.49043,6.89928 -9.65035,6.67523c-5.15993,-0.22405 -9.20522,-3.57592 -9.0354,-7.48661c0.16981,-3.91067 4.49041,-6.89928 9.65034,-6.67523z" fill-opacity="0.67238" fill="#000000" stroke="#000000" stroke-width="2" stroke-linecap="butt"/><g fill="#a3d325" stroke-linecap="butt"><g stroke="#000000" stroke-width="4.5"><path d="M254.61757,184.77788c0.02939,-0.28186 0.28172,-0.48651 0.56357,-0.45711c0.28186,0.02939 0.48651,0.28172 0.45711,0.56357c-0.01741,0.16694 -0.11303,0.3068 -0.24667,0.38699c0.11422,0.10603 0.17892,0.26262 0.16151,0.42956c-0.02939,0.28186 -0.28172,0.4865 -0.56357,0.45711c-0.28186,-0.02939 -0.48651,-0.28171 -0.45712,-0.56357c0.01741,-0.16694 0.11303,-0.3068 0.24668,-0.38699c-0.11422,-0.10603 -0.17892,-0.26262 -0.16151,-0.42956z"/><path d="M255.84053,182.94503c-0.28186,-0.02939 -0.48651,-0.28171 -0.45712,-0.56357c0.02939,-0.28186 0.28171,-0.48651 0.56357,-0.45711c0.28186,0.02939 0.48651,0.28171 0.45711,0.56357c-0.0294,0.28186 -0.28171,0.48651 -0.56357,0.45711z"/><path d="M254.50299,182.9087c-0.28186,-0.02939 -0.48651,-0.28171 -0.45711,-0.56357c0.02939,-0.28186 0.28171,-0.48651 0.56357,-0.45712c0.28186,0.02939 0.48651,0.28172 0.45711,0.56357c-0.02939,0.28186 -0.28171,0.48651 -0.56357,0.45712z"/><path d="M256.99587,177.8034c-0.28186,-0.02939 -0.48651,-0.28172 -0.45711,-0.56357c0.0294,-0.28186 0.28171,-0.48651 0.56357,-0.45712c0.28186,0.02939 0.48651,0.28172 0.45711,0.56358c-0.0294,0.28186 -0.28172,0.48651 -0.56357,0.45711z"/><path d="M254.31015,177.83281c-0.28186,-0.02939 -0.48651,-0.28172 -0.45712,-0.56357c0.02939,-0.28186 0.28171,-0.4865 0.56357,-0.45711c0.28186,0.02939 0.48651,0.28171 0.45712,0.56357c-0.02939,0.28186 -0.28172,0.48651 -0.56357,0.45711z"/><path d="M259.29209,180.51919c-0.28186,-0.02939 -0.48651,-0.28172 -0.45711,-0.56358c0.0294,-0.28186 0.28172,-0.48651 0.56357,-0.45711c0.28186,0.02939 0.48651,0.28171 0.45712,0.56357c-0.0294,0.28186 -0.28172,0.48651 -0.56358,0.45712z"/><path d="M258.32716,176.91046c-0.28186,-0.02939 -0.48651,-0.28172 -0.45711,-0.56357c0.0294,-0.28186 0.28171,-0.48651 0.56357,-0.45712c0.28186,0.02939 0.48651,0.28172 0.45711,0.56357c-0.0294,0.28186 -0.28171,0.48651 -0.56357,0.45712z"/><path d="M255.73099,175.09199c-0.28186,-0.02939 -0.48651,-0.28171 -0.45712,-0.56357c0.02939,-0.28186 0.28171,-0.48651 0.56357,-0.45711c0.28185,0.02939 0.48651,0.28171 0.45712,0.56357c-0.0294,0.28186 -0.28172,0.48651 -0.56357,0.45711z"/><path d="M260.70788,183.76223c-0.28186,-0.02939 -0.48651,-0.28172 -0.45711,-0.56357c0.0294,-0.28186 0.28172,-0.48651 0.56358,-0.45712c0.28186,0.02939 0.48651,0.28172 0.45711,0.56358c-0.0294,0.28186 -0.28172,0.48651 -0.56358,0.45711z"/><path d="M260.78745,177.06389c0.0294,-0.28186 0.28172,-0.48651 0.56357,-0.45711c0.28186,0.02939 0.48651,0.28171 0.45711,0.56357c-0.01198,0.11488 -0.061,0.21695 -0.13396,0.29556c0.11422,0.10603 0.17893,0.26262 0.16151,0.42957c-0.0294,0.28186 -0.28172,0.48651 -0.56357,0.45712c-0.28186,-0.02939 -0.48651,-0.28172 -0.45712,-0.56358c0.01198,-0.11488 0.06101,-0.21695 0.13397,-0.29556c-0.11422,-0.10603 -0.17893,-0.26262 -0.16152,-0.42956z"/><path d="M258.07791,180.28937c-0.28186,-0.02939 -0.48651,-0.28172 -0.45711,-0.56357c0.0294,-0.28186 0.28172,-0.4865 0.56357,-0.45711c0.28186,0.02939 0.48651,0.28171 0.45711,0.56357c-0.0294,0.28186 -0.28172,0.48651 -0.56358,0.45711z"/><path d="M259.99471,173.78265c-0.11489,-0.01198 -0.21695,-0.061 -0.29557,-0.13397c-0.02941,0.28184 -0.28172,0.48647 -0.56356,0.45708c-0.28186,-0.02939 -0.48651,-0.28172 -0.45711,-0.56358c0.0294,-0.28186 0.28171,-0.48651 0.56357,-0.45711c0.11489,0.01198 0.21695,0.061 0.29557,0.13397c0.02941,-0.28184 0.28173,-0.48648 0.56357,-0.45708c0.28186,0.02939 0.48651,0.28172 0.45711,0.56358c-0.0294,0.28186 -0.28172,0.48651 -0.56358,0.45711z"/><path d="M258.43044,183.83423c-0.28186,-0.02939 -0.48651,-0.28171 -0.45711,-0.56357c0.0294,-0.28186 0.28172,-0.48651 0.56357,-0.45712c0.28186,0.02939 0.48651,0.28172 0.45711,0.56358c-0.0294,0.28186 -0.28172,0.4865 -0.56358,0.45711z"/><path d="M255.75349,181.80098c-0.28186,-0.02939 -0.48651,-0.28172 -0.45711,-0.56358c0.02939,-0.28186 0.28171,-0.48651 0.56357,-0.45711c0.28185,0.02939 0.48651,0.28171 0.45712,0.56357c-0.0294,0.28186 -0.28172,0.48651 -0.56357,0.45712z"/><path d="M251.81353,179.01692c-0.28186,-0.02939 -0.48651,-0.28171 -0.45711,-0.56357c0.02939,-0.28186 0.28171,-0.48651 0.56357,-0.45712c0.28186,0.02939 0.48651,0.28172 0.45712,0.56358c-0.02939,0.28186 -0.28172,0.48651 -0.56358,0.45711z"/><path d="M251.42906,175.77827c-0.28186,-0.02939 -0.48651,-0.28171 -0.45711,-0.56357c0.02939,-0.28186 0.28172,-0.48651 0.56357,-0.45712c0.28186,0.02939 0.48651,0.28172 0.45712,0.56358c-0.02939,0.28186 -0.28172,0.4865 -0.56358,0.45711z"/><path d="M256.52876,172.38936c-0.28186,-0.02939 -0.48651,-0.28172 -0.45711,-0.56358c0.0294,-0.28186 0.28172,-0.4865 0.56358,-0.45711c0.28186,0.02939 0.48651,0.28171 0.45711,0.56357c-0.0294,0.28186 -0.28172,0.48651 -0.56358,0.45712z"/><path d="M263.22898,174.42952c-0.28186,-0.02939 -0.48651,-0.28172 -0.45711,-0.56357c0.0294,-0.28186 0.28171,-0.48651 0.56357,-0.45712c0.28186,0.02939 0.48652,0.28172 0.45712,0.56358c-0.0294,0.28186 -0.28172,0.48651 -0.56358,0.45711z"/><path d="M262.60087,180.45158c-0.28186,-0.02939 -0.48651,-0.28172 -0.45711,-0.56358c0.0294,-0.28186 0.28172,-0.4865 0.56357,-0.45711c0.28186,0.02939 0.48651,0.28171 0.45712,0.56357c-0.0294,0.28186 -0.28172,0.48651 -0.56358,0.45712z"/><path d="M260.09492,171.8327c-0.28186,-0.02939 -0.48652,-0.28172 -0.45712,-0.56357c0.0294,-0.28186 0.28172,-0.48651 0.56358,-0.45712c0.28186,0.02939 0.48651,0.28172 0.45711,0.56357c-0.0294,0.28186 -0.28171,0.48651 -0.56357,0.45712z"/><path d="M258.99345,171.51146c-0.28186,-0.02939 -0.48651,-0.28171 -0.45711,-0.56357c0.0294,-0.28186 0.28171,-0.48651 0.56357,-0.45712c0.28186,0.02939 0.48651,0.28171 0.45712,0.56357c-0.0294,0.28186 -0.28172,0.48651 -0.56357,0.45712z"/><path d="M257.32589,174.63927c-0.28186,-0.02939 -0.48651,-0.28172 -0.45711,-0.56357c0.0294,-0.28186 0.28172,-0.48651 0.56357,-0.45712c0.28186,0.02939 0.48651,0.28172 0.45711,0.56358c-0.0294,0.28186 -0.28172,0.48651 -0.56357,0.45711z"/><path d="M260.16252,175.14149c-0.28186,-0.02939 -0.48651,-0.28172 -0.45711,-0.56357c0.0294,-0.28186 0.28172,-0.48651 0.56357,-0.45712c0.28186,0.02939 0.48651,0.28172 0.45711,0.56357c-0.0294,0.28186 -0.28172,0.48651 -0.56358,0.45712z"/><path d="M255.14547,180.70577c-0.28186,-0.02939 -0.48651,-0.28172 -0.45711,-0.56358c0.02939,-0.28186 0.28172,-0.4865 0.56357,-0.45711c0.28186,0.02939 0.48651,0.28172 0.45711,0.56357c-0.02939,0.28186 -0.28172,0.48651 -0.56357,0.45711z"/><path d="M252.55743,181.77717c-0.28186,-0.02939 -0.48651,-0.28172 -0.45712,-0.56357c0.02939,-0.28186 0.28172,-0.4865 0.56358,-0.45711c0.28186,0.02939 0.48651,0.28172 0.45711,0.56357c-0.02939,0.28186 -0.28171,0.4865 -0.56357,0.45711z"/><path d="M253.30571,183.50608c-0.28186,-0.02939 -0.4865,-0.28171 -0.45711,-0.56357c0.02939,-0.28186 0.28171,-0.48651 0.56357,-0.45712c0.28186,0.02939 0.48651,0.28171 0.45712,0.56357c-0.02939,0.28186 -0.28172,0.48651 -0.56358,0.45712z"/><path d="M251.74713,182.62127c-0.28186,-0.02939 -0.48651,-0.28172 -0.45711,-0.56357c0.02939,-0.28186 0.28171,-0.48651 0.56357,-0.45712c0.28186,0.02939 0.48651,0.28172 0.45711,0.56358c-0.02939,0.28186 -0.28171,0.48651 -0.56357,0.45711z"/><path d="M251.16852,184.21178c-0.28186,-0.02939 -0.48651,-0.28171 -0.45711,-0.56357c0.02939,-0.28186 0.28172,-0.48651 0.56357,-0.45712c0.28186,0.02939 0.48651,0.28172 0.45711,0.56358c-0.02939,0.28186 -0.28172,0.4865 -0.56357,0.45711z"/><path d="M249.78653,182.62313c-0.28186,-0.02939 -0.48651,-0.28172 -0.45711,-0.56358c0.02939,-0.28186 0.28171,-0.4865 0.56357,-0.45711c0.28186,0.02939 0.48651,0.28171 0.45712,0.56357c-0.02939,0.28186 -0.28172,0.48651 -0.56358,0.45712z"/><path d="M251.79102,172.30793c-0.28186,-0.02939 -0.4865,-0.28171 -0.45711,-0.56357c0.02939,-0.28186 0.28171,-0.48651 0.56357,-0.45712c0.28186,0.02939 0.48651,0.28172 0.45712,0.56358c-0.02939,0.28186 -0.28172,0.48651 -0.56358,0.45711z"/><path d="M255.06161,171.61726c-0.28186,-0.02939 -0.48651,-0.28171 -0.45711,-0.56357c0.02939,-0.28186 0.28172,-0.48651 0.56358,-0.45711c0.28186,0.02939 0.48651,0.28171 0.45711,0.56357c-0.02939,0.28186 -0.28172,0.48651 -0.56358,0.45711z"/><path d="M253.76292,167.25147c-0.28186,-0.02939 -0.48651,-0.28172 -0.45711,-0.56357c0.02939,-0.28186 0.28172,-0.4865 0.56357,-0.45711c0.28186,0.02939 0.4865,0.28171 0.45711,0.56357c-0.02939,0.28186 -0.28171,0.48651 -0.56357,0.45711z"/><path d="M256.89698,169.84829c-0.28186,-0.02939 -0.48651,-0.28171 -0.45711,-0.56357c0.0294,-0.28186 0.28172,-0.48651 0.56358,-0.45712c0.28186,0.02939 0.48651,0.28171 0.45711,0.56357c-0.0294,0.28186 -0.28172,0.48651 -0.56358,0.45712z"/><path d="M253.08411,170.79194c-0.28186,-0.02939 -0.48651,-0.28172 -0.45711,-0.56357c0.02939,-0.28186 0.28171,-0.48651 0.56357,-0.45712c0.28186,0.02939 0.48651,0.28172 0.45712,0.56358c-0.02939,0.28186 -0.28172,0.48651 -0.56358,0.45711z"/><path d="M253.56186,176.1039c-0.28186,-0.02939 -0.4865,-0.28172 -0.45711,-0.56358c0.02939,-0.28186 0.28172,-0.48651 0.56357,-0.45711c0.28186,0.02939 0.4865,0.28172 0.45711,0.56357c-0.02939,0.28186 -0.28172,0.48651 -0.56357,0.45712z"/><path d="M255.88759,164.68723c-0.28186,-0.02939 -0.48651,-0.28171 -0.45712,-0.56357c0.02939,-0.28186 0.28172,-0.48651 0.56357,-0.45711c0.28185,0.02939 0.48651,0.28171 0.45712,0.56357c-0.0294,0.28186 -0.28172,0.48651 -0.56357,0.45711z"/><path d="M255.23194,169.98417c-0.28186,-0.02939 -0.48651,-0.28172 -0.45712,-0.56357c0.02939,-0.28186 0.28171,-0.48651 0.56357,-0.45712c0.28186,0.02939 0.48651,0.28171 0.45712,0.56357c-0.02939,0.28186 -0.28171,0.48651 -0.56357,0.45712z"/><path d="M258.60899,168.27281c-0.28186,-0.02939 -0.48651,-0.28172 -0.45711,-0.56358c0.0294,-0.28186 0.28171,-0.48651 0.56357,-0.45711c0.28186,0.02939 0.48651,0.28172 0.45711,0.56357c-0.0294,0.28186 -0.28171,0.48651 -0.56357,0.45712z"/><path d="M262.20268,168.44127c-0.28186,-0.02939 -0.48651,-0.28171 -0.45711,-0.56357c0.0294,-0.28186 0.28172,-0.48651 0.56357,-0.45712c0.28186,0.02939 0.48651,0.28172 0.45711,0.56357c-0.0294,0.28186 -0.28172,0.48651 -0.56357,0.45712z"/><path d="M261.20581,165.13875c-0.28186,-0.02939 -0.48651,-0.28172 -0.45711,-0.56357c0.0294,-0.28186 0.28172,-0.48651 0.56357,-0.45712c0.28186,0.02939 0.48651,0.28171 0.45711,0.56357c-0.0294,0.28186 -0.28172,0.48651 -0.56357,0.45712z"/><path d="M261.51641,164.13935c-0.28186,-0.02939 -0.48651,-0.28171 -0.45712,-0.56357c0.0294,-0.28186 0.28172,-0.48651 0.56358,-0.45712c0.28186,0.02939 0.48651,0.28172 0.45711,0.56358c-0.0294,0.28186 -0.28172,0.48651 -0.56357,0.45711z"/><path d="M258.83694,165.09803c-0.28186,-0.02939 -0.48651,-0.28171 -0.45711,-0.56357c0.0294,-0.28186 0.28172,-0.48651 0.56357,-0.45712c0.28186,0.02939 0.48651,0.28172 0.45711,0.56358c-0.0294,0.28186 -0.28172,0.4865 -0.56357,0.45711z"/><path d="M259.46878,162.99717c-0.28186,-0.02939 -0.48651,-0.28172 -0.45712,-0.56358c0.0294,-0.28186 0.28172,-0.48651 0.56357,-0.45711c0.28186,0.02939 0.48651,0.28172 0.45712,0.56357c-0.0294,0.28186 -0.28172,0.48651 -0.56357,0.45712z"/><path d="M265.22095,162.25579c-0.28186,-0.02939 -0.48651,-0.28172 -0.45712,-0.56357c0.0294,-0.28186 0.28172,-0.4865 0.56357,-0.45711c0.28186,0.02939 0.48651,0.28171 0.45711,0.56357c-0.0294,0.28186 -0.28171,0.48651 -0.56357,0.45711z"/><path d="M258.34415,160.91947c-0.28186,-0.02939 -0.48651,-0.28171 -0.45711,-0.56357c0.0294,-0.28186 0.28171,-0.48651 0.56357,-0.45712c0.28186,0.02939 0.48651,0.28172 0.45711,0.56357c-0.0294,0.28186 -0.28171,0.48651 -0.56357,0.45712z"/></g><g stroke="#a3d325" stroke-width="3.5"><path d="M254.25639,184.74739c0.02939,-0.28186 0.28171,-0.4865 0.56357,-0.45711c0.28186,0.02939 0.48651,0.28171 0.45712,0.56357c-0.01741,0.16694 -0.11302,0.3068 -0.24667,0.38699c0.11422,0.10603 0.17891,0.26262 0.1615,0.42956c-0.02939,0.28186 -0.28171,0.4865 -0.56357,0.45711c-0.28186,-0.02939 -0.48651,-0.28172 -0.45711,-0.56357c0.01741,-0.16694 0.11303,-0.3068 0.24667,-0.38699c-0.11422,-0.10603 -0.17892,-0.26262 -0.16151,-0.42956z"/><path d="M255.47934,182.91455c-0.28186,-0.02939 -0.48651,-0.28172 -0.45712,-0.56358c0.02939,-0.28186 0.28171,-0.48651 0.56357,-0.45711c0.28186,0.02939 0.48652,0.28172 0.45712,0.56357c-0.0294,0.28186 -0.28172,0.48651 -0.56357,0.45712z"/><path d="M254.1418,182.87822c-0.28186,-0.02939 -0.48651,-0.28172 -0.45711,-0.56357c0.02939,-0.28186 0.28172,-0.48651 0.56357,-0.45712c0.28186,0.02939 0.48651,0.28171 0.45712,0.56357c-0.02939,0.28186 -0.28172,0.48651 -0.56358,0.45712z"/><path d="M256.63469,177.77292c-0.28186,-0.02939 -0.48651,-0.28172 -0.45711,-0.56358c0.0294,-0.28186 0.28172,-0.48651 0.56357,-0.45711c0.28186,0.02939 0.48651,0.28172 0.45711,0.56357c-0.0294,0.28186 -0.28172,0.48651 -0.56357,0.45712z"/><path d="M253.94897,177.80233c-0.28186,-0.02939 -0.48651,-0.28171 -0.45711,-0.56357c0.02939,-0.28186 0.28172,-0.48651 0.56358,-0.45711c0.28186,0.02939 0.4865,0.28172 0.45711,0.56357c-0.02939,0.28186 -0.28172,0.4865 -0.56357,0.45711z"/><path d="M258.93091,180.48871c-0.28186,-0.02939 -0.48651,-0.28172 -0.45711,-0.56357c0.0294,-0.28186 0.28172,-0.48651 0.56358,-0.45712c0.28186,0.02939 0.48651,0.28172 0.45711,0.56357c-0.0294,0.28186 -0.28172,0.48651 -0.56357,0.45712z"/><path d="M257.96598,176.87998c-0.28186,-0.02939 -0.48652,-0.28172 -0.45712,-0.56358c0.0294,-0.28186 0.28172,-0.48651 0.56358,-0.45711c0.28186,0.02939 0.48651,0.28172 0.45711,0.56357c-0.0294,0.28186 -0.28171,0.48651 -0.56357,0.45712z"/><path d="M255.3698,175.06151c-0.28186,-0.02939 -0.4865,-0.28171 -0.45711,-0.56357c0.02939,-0.28186 0.28171,-0.48651 0.56357,-0.45712c0.28186,0.02939 0.48651,0.28171 0.45712,0.56357c-0.02939,0.28186 -0.28172,0.48651 -0.56358,0.45712z"/><path d="M260.34671,183.73175c-0.28186,-0.02939 -0.48651,-0.28172 -0.45711,-0.56358c0.0294,-0.28186 0.28172,-0.48651 0.56358,-0.45711c0.28186,0.02939 0.48651,0.28171 0.45711,0.56357c-0.0294,0.28186 -0.28172,0.48651 -0.56358,0.45712z"/><path d="M260.42627,177.03341c0.0294,-0.28186 0.28172,-0.48651 0.56357,-0.45712c0.28186,0.02939 0.48651,0.28172 0.45711,0.56357c-0.01198,0.11488 -0.061,0.21695 -0.13396,0.29556c0.11422,0.10603 0.17893,0.26263 0.16152,0.42957c-0.0294,0.28186 -0.28172,0.48651 -0.56358,0.45711c-0.28186,-0.02939 -0.48651,-0.28172 -0.45711,-0.56357c0.01198,-0.11488 0.061,-0.21695 0.13396,-0.29556c-0.11422,-0.10603 -0.17893,-0.26262 -0.16151,-0.42957z"/><path d="M257.71673,180.25889c-0.28186,-0.02939 -0.48651,-0.28172 -0.45711,-0.56358c0.0294,-0.28186 0.28172,-0.48651 0.56357,-0.45711c0.28186,0.02939 0.48651,0.28172 0.45711,0.56357c-0.0294,0.28186 -0.28172,0.48651 -0.56357,0.45712z"/><path d="M259.63353,173.75217c-0.11489,-0.01198 -0.21695,-0.061 -0.29557,-0.13397c-0.02941,0.28184 -0.28172,0.48647 -0.56356,0.45708c-0.28186,-0.02939 -0.48651,-0.28171 -0.45711,-0.56357c0.0294,-0.28186 0.28171,-0.48651 0.56357,-0.45712c0.11489,0.01198 0.21695,0.061 0.29557,0.13397c0.02941,-0.28184 0.28173,-0.48647 0.56357,-0.45708c0.28186,0.02939 0.48651,0.28171 0.45711,0.56357c-0.0294,0.28186 -0.28171,0.48651 -0.56357,0.45712z"/><path d="M258.06926,183.80375c-0.28186,-0.02939 -0.48651,-0.28171 -0.45711,-0.56357c0.0294,-0.28186 0.28171,-0.48651 0.56357,-0.45711c0.28186,0.02939 0.48652,0.28171 0.45712,0.56357c-0.0294,0.28186 -0.28172,0.48651 -0.56358,0.45711z"/><path d="M255.39231,181.7705c-0.28186,-0.02939 -0.48651,-0.28172 -0.45712,-0.56357c0.02939,-0.28186 0.28171,-0.48651 0.56357,-0.45712c0.28186,0.02939 0.48651,0.28171 0.45712,0.56357c-0.02939,0.28186 -0.28171,0.48651 -0.56357,0.45712z"/><path d="M251.45234,178.98644c-0.28186,-0.02939 -0.48651,-0.28172 -0.45711,-0.56357c0.02939,-0.28186 0.28172,-0.48651 0.56357,-0.45711c0.28186,0.02939 0.48651,0.28171 0.45712,0.56357c-0.02939,0.28186 -0.28172,0.48651 -0.56358,0.45712z"/><path d="M251.06788,175.74779c-0.28186,-0.02939 -0.48651,-0.28171 -0.45712,-0.56357c0.02939,-0.28186 0.28172,-0.48651 0.56358,-0.45711c0.28186,0.02939 0.4865,0.28171 0.45711,0.56357c-0.02939,0.28186 -0.28171,0.48651 -0.56357,0.45711z"/><path d="M256.16758,172.35888c-0.28186,-0.02939 -0.48651,-0.28171 -0.45711,-0.56357c0.02939,-0.28186 0.28172,-0.48651 0.56358,-0.45712c0.28186,0.02939 0.48651,0.28172 0.45711,0.56358c-0.0294,0.28186 -0.28172,0.4865 -0.56358,0.45711z"/><path d="M262.86779,174.39904c-0.28186,-0.02939 -0.48651,-0.28172 -0.45711,-0.56358c0.0294,-0.28186 0.28171,-0.48651 0.56357,-0.45711c0.28186,0.02939 0.48651,0.28172 0.45712,0.56357c-0.0294,0.28186 -0.28172,0.48651 -0.56358,0.45712z"/><path d="M262.23969,180.4211c-0.28186,-0.02939 -0.48651,-0.28172 -0.45711,-0.56358c0.0294,-0.28186 0.28172,-0.4865 0.56357,-0.45711c0.28186,0.02939 0.48651,0.28171 0.45711,0.56357c-0.0294,0.28186 -0.28172,0.48651 -0.56358,0.45712z"/><path d="M259.73373,171.80222c-0.28186,-0.02939 -0.48651,-0.28171 -0.45711,-0.56357c0.0294,-0.28186 0.28172,-0.48651 0.56358,-0.45711c0.28186,0.02939 0.48651,0.28171 0.45711,0.56357c-0.0294,0.28186 -0.28172,0.48651 -0.56357,0.45711z"/><path d="M258.63227,171.48098c-0.28186,-0.02939 -0.48651,-0.28171 -0.45711,-0.56357c0.0294,-0.28186 0.28171,-0.48651 0.56357,-0.45712c0.28186,0.02939 0.48651,0.28172 0.45711,0.56357c-0.0294,0.28186 -0.28172,0.48651 -0.56357,0.45711z"/><path d="M256.96471,174.60878c-0.28186,-0.02939 -0.48652,-0.28171 -0.45712,-0.56357c0.0294,-0.28186 0.28172,-0.48651 0.56358,-0.45711c0.28186,0.02939 0.48651,0.28171 0.45711,0.56357c-0.0294,0.28186 -0.28171,0.48651 -0.56357,0.45711z"/><path d="M259.80134,175.111c-0.28186,-0.02939 -0.48651,-0.28172 -0.45711,-0.56357c0.0294,-0.28186 0.28172,-0.4865 0.56358,-0.45711c0.28186,0.02939 0.48651,0.28171 0.45711,0.56357c-0.0294,0.28186 -0.28172,0.48651 -0.56358,0.45711z"/><path d="M254.78429,180.67529c-0.28186,-0.02939 -0.48651,-0.28172 -0.45712,-0.56357c0.02939,-0.28186 0.28172,-0.48651 0.56358,-0.45712c0.28186,0.02939 0.4865,0.28172 0.45711,0.56358c-0.02939,0.28186 -0.28171,0.48651 -0.56357,0.45711z"/><path d="M252.19624,181.74669c-0.28186,-0.02939 -0.48651,-0.28172 -0.45711,-0.56358c0.02939,-0.28186 0.28171,-0.48651 0.56357,-0.45711c0.28186,0.02939 0.48651,0.28172 0.45711,0.56357c-0.02939,0.28186 -0.28171,0.48651 -0.56357,0.45712z"/><path d="M252.94453,183.4756c-0.28186,-0.02939 -0.48651,-0.28172 -0.45711,-0.56357c0.02939,-0.28186 0.28171,-0.48651 0.56357,-0.45712c0.28186,0.02939 0.48651,0.28172 0.45712,0.56358c-0.02939,0.28186 -0.28172,0.48651 -0.56358,0.45711z"/><path d="M251.38595,182.59078c-0.28186,-0.02939 -0.4865,-0.28171 -0.45711,-0.56357c0.02939,-0.28186 0.28171,-0.48651 0.56357,-0.45711c0.28186,0.02939 0.48651,0.28172 0.45712,0.56357c-0.02939,0.28186 -0.28172,0.4865 -0.56358,0.45711z"/><path d="M250.80734,184.1813c-0.28186,-0.02939 -0.48651,-0.28172 -0.45712,-0.56357c0.02939,-0.28186 0.28171,-0.4865 0.56357,-0.45711c0.28186,0.02939 0.48651,0.28171 0.45712,0.56357c-0.02939,0.28186 -0.28171,0.48651 -0.56357,0.45711z"/><path d="M249.42535,182.59265c-0.28186,-0.02939 -0.48651,-0.28172 -0.45712,-0.56357c0.02939,-0.28186 0.28171,-0.48651 0.56357,-0.45712c0.28186,0.02939 0.48651,0.28172 0.45712,0.56358c-0.02939,0.28186 -0.28171,0.48651 -0.56357,0.45711z"/><path d="M251.42984,172.27745c-0.28186,-0.02939 -0.48651,-0.28172 -0.45711,-0.56357c0.02939,-0.28186 0.28172,-0.48651 0.56357,-0.45711c0.28186,0.02939 0.48651,0.28171 0.45712,0.56357c-0.02939,0.28186 -0.28172,0.48651 -0.56358,0.45712z"/><path d="M254.70043,171.58678c-0.28186,-0.02939 -0.48651,-0.28172 -0.45712,-0.56358c0.02939,-0.28186 0.28172,-0.48651 0.56358,-0.45711c0.28186,0.02939 0.48651,0.28172 0.45712,0.56357c-0.02939,0.28186 -0.28172,0.48651 -0.56358,0.45712z"/><path d="M253.40173,167.22098c-0.28186,-0.02939 -0.48651,-0.28171 -0.45711,-0.56357c0.02939,-0.28186 0.28172,-0.48651 0.56358,-0.45711c0.28186,0.02939 0.48651,0.28172 0.45711,0.56357c-0.02939,0.28186 -0.28172,0.4865 -0.56358,0.45711z"/><path d="M256.5358,169.81781c-0.28186,-0.02939 -0.48651,-0.28171 -0.45711,-0.56357c0.0294,-0.28186 0.28171,-0.48651 0.56357,-0.45711c0.28186,0.02939 0.48651,0.28171 0.45711,0.56357c-0.0294,0.28186 -0.28171,0.48651 -0.56357,0.45711z"/><path d="M252.72293,170.76146c-0.28186,-0.02939 -0.48651,-0.28172 -0.45712,-0.56358c0.02939,-0.28186 0.28172,-0.48651 0.56358,-0.45711c0.28186,0.02939 0.4865,0.28171 0.45711,0.56357c-0.02939,0.28186 -0.28171,0.48651 -0.56357,0.45712z"/><path d="M253.20068,176.07342c-0.28186,-0.02939 -0.48651,-0.28171 -0.45712,-0.56357c0.02939,-0.28186 0.28172,-0.48651 0.56357,-0.45712c0.28186,0.02939 0.48651,0.28172 0.45712,0.56358c-0.02939,0.28186 -0.28171,0.4865 -0.56357,0.45711z"/><path d="M255.52641,164.65675c-0.28186,-0.02939 -0.48651,-0.28172 -0.45712,-0.56357c0.02939,-0.28186 0.28172,-0.48651 0.56358,-0.45712c0.28186,0.02939 0.4865,0.28172 0.45711,0.56358c-0.0294,0.28186 -0.28171,0.48651 -0.56357,0.45711z"/><path d="M254.87076,169.95368c-0.28186,-0.02939 -0.4865,-0.28171 -0.45711,-0.56357c0.02939,-0.28186 0.28171,-0.48651 0.56357,-0.45711c0.28186,0.02939 0.48651,0.28171 0.45711,0.56357c-0.02939,0.28186 -0.28172,0.48651 -0.56357,0.45711z"/><path d="M258.24781,168.24233c-0.28186,-0.02939 -0.48651,-0.28172 -0.45712,-0.56357c0.0294,-0.28186 0.28172,-0.48651 0.56357,-0.45712c0.28186,0.02939 0.48651,0.28171 0.45712,0.56357c-0.0294,0.28186 -0.28172,0.48651 -0.56357,0.45712z"/><path d="M261.8415,168.41079c-0.28186,-0.02939 -0.48651,-0.28172 -0.45711,-0.56357c0.0294,-0.28186 0.28172,-0.48651 0.56357,-0.45712c0.28186,0.02939 0.48651,0.28171 0.45711,0.56357c-0.0294,0.28186 -0.28172,0.48651 -0.56358,0.45712z"/><path d="M260.84463,165.10826c-0.28186,-0.02939 -0.48651,-0.28172 -0.45711,-0.56357c0.0294,-0.28186 0.28171,-0.48651 0.56357,-0.45712c0.28186,0.02939 0.48651,0.28172 0.45712,0.56358c-0.0294,0.28186 -0.28172,0.48651 -0.56358,0.45712z"/><path d="M261.15522,164.10887c-0.28186,-0.02939 -0.48651,-0.28171 -0.45711,-0.56357c0.0294,-0.28186 0.28172,-0.48651 0.56358,-0.45712c0.28186,0.02939 0.48651,0.28172 0.45711,0.56357c-0.0294,0.28186 -0.28172,0.48651 -0.56358,0.45712z"/><path d="M258.47576,165.06755c-0.28186,-0.02939 -0.48651,-0.28172 -0.45711,-0.56357c0.0294,-0.28186 0.28171,-0.4865 0.56357,-0.45711c0.28186,0.02939 0.48652,0.28171 0.45712,0.56357c-0.0294,0.28186 -0.28172,0.48651 -0.56358,0.45711z"/><path d="M259.10759,162.96669c-0.28186,-0.02939 -0.48651,-0.28171 -0.45712,-0.56357c0.0294,-0.28186 0.28172,-0.48651 0.56358,-0.45712c0.28186,0.02939 0.48651,0.28171 0.45711,0.56357c-0.0294,0.28186 -0.28171,0.48651 -0.56357,0.45712z"/><path d="M264.85977,162.22531c-0.28186,-0.02939 -0.48651,-0.28172 -0.45712,-0.56358c0.0294,-0.28186 0.28172,-0.48651 0.56357,-0.45711c0.28186,0.02939 0.48651,0.28172 0.45711,0.56357c-0.0294,0.28186 -0.28171,0.48651 -0.56357,0.45712z"/><path d="M257.98296,160.88898c-0.28186,-0.02939 -0.48651,-0.28171 -0.45711,-0.56357c0.0294,-0.28186 0.28172,-0.48651 0.56358,-0.45712c0.28186,0.02939 0.48651,0.28171 0.45711,0.56357c-0.0294,0.28186 -0.28172,0.48651 -0.56358,0.45712z"/></g></g><path d="M256.54152,177.03395c5.15993,0.22405 9.20522,3.57593 9.03542,7.48661c-0.16981,3.91067 -4.49043,6.89928 -9.65035,6.67523c-5.15993,-0.22405 -9.20522,-3.57592 -9.03541,-7.48661c0.16981,-3.91067 4.49042,-6.89928 9.65035,-6.67523z" fill="none" stroke="#000000" stroke-width="2" stroke-linecap="butt"/><path d="M255.22666,204.95799c-3.21033,-0.01585 -6.97491,-0.57933 -8.43748,-1.33769c-0.69225,-0.35894 -0.1166,-0.72886 -0.11445,-1.1655c0.00671,-1.35915 3.8464,-2.44203 8.57621,-2.41869c4.7298,0.02334 8.55863,1.14405 8.55192,2.50319c-0.0067,1.35914 -3.8464,2.44203 -8.57621,2.41869z" data-paper-data="{&quot;index&quot;:null}" fill="url(#color-1)" stroke="#000000" stroke-width="2" stroke-linecap="butt"/><path d="M231.38798,196.58065l-14.2372,-0.84759l-11.41477,-2.16061l-9.76604,-8.26973l-2.38559,-6.40263l3.61405,2.21893l4.07475,0.69996l0.62735,-2.48914l2.29509,0.59402l4.63898,4.3926l4.20212,1.12136l6.82457,0.97257l6.41507,-1.29515l3.14981,-2.05582" data-paper-data="{&quot;index&quot;:null}" fill="#ffffff" stroke="#000000" stroke-width="3" stroke-linecap="round"/><path d="M229.83971,198.05145l-0.19485,-0.91246c-0.14086,-0.77426 -0.70687,-1.58893 -0.42257,-2.32274c0.06007,-0.15508 0.13067,-0.30411 0.20987,-0.44822l-0.09952,-0.03832l0.62332,-1.61898c0.28044,-0.77347 2.73657,-1.67824 3.57593,-1.53405c0.7859,0.13501 -0.29757,1.19867 -0.22292,1.95556l0.18146,1.4882c1.11515,2.03111 1.08831,4.01025 1.6007,6.19168c0,0 -1.05766,0.74737 -2.75206,1.10919c-1.6944,0.36183 -3.81357,-1.59814 -3.83928,-1.95924z" data-paper-data="{&quot;index&quot;:null}" fill="#ffffff" stroke="none" stroke-width="0.5" stroke-linecap="butt"/><path d="M228.06953,195.66516l-12.00882,-0.71493l-9.62813,-1.82243l-8.23748,-6.97537l-2.0122,-5.4005l3.04839,1.87161l3.43697,0.59041l0.52916,-2.09954l1.93587,0.50105l3.91289,3.70507l3.5444,0.94585l5.75639,0.82034l5.411,-1.09243l2.96605,-0.71094" data-paper-data="{&quot;index&quot;:null}" fill="#ffffff" stroke="#2b2b2b" stroke-width="2.5" stroke-linecap="round"/><path d="M230.75186,169.47161c0,0 -4.37944,-3.2015 -7.23128,-3.40956c-1.29914,-0.09477 -2.34816,0.14775 -3.33528,0.55027c-0.17467,-0.97634 -0.63237,-2.12579 -1.7472,-2.93401c0.19019,-1.84456 0.24526,-3.70278 0.22153,-5.59652c2.48442,-0.60496 4.77417,-0.9847 6.83228,-1.14592c3.58629,-0.28092 6.54431,0.36537 9.14432,1.15978c2.60001,0.79441 6.0357,3.47834 6.0357,3.47834z" data-paper-data="{&quot;index&quot;:null}" fill="#ffffff" stroke="#000000" stroke-width="4" stroke-linecap="butt"/><path d="" data-paper-data="{&quot;index&quot;:null}" fill="#ffffff" stroke="#000000" stroke-width="4" stroke-linecap="butt"/><path d="" data-paper-data="{&quot;index&quot;:null}" fill="#ffffff" stroke="#000000" stroke-width="4" stroke-linecap="butt"/><path d="M228.80001,153.7l-5.5,1.5l-1.5,-8h3l0.5,5.5l-10,-5.5" fill="none" stroke="#000000" stroke-width="2" stroke-linecap="round"/><path d="M206.30001,156.7l7.5,2.5l-6,-11l8.5,6v5" fill="none" stroke="#000000" stroke-width="3" stroke-linecap="round"/><path d="M246.64926,180.89821l-0.2,-23.97744c0,0 11.4394,-0.1417 14.98765,-0.08156c1.40249,0.02377 3.89435,1.5543 3.89435,1.5543c0,0 1.53839,0.96277 2.32097,2.24371c0.82969,1.35805 2.50709,7.06386 2.53519,8.0006c0.10014,3.33817 -1.46295,9.66039 -1.46295,9.66039c0,0 -1.57448,2.57531 -2.87793,2.55191c-1.03908,-0.01866 -3.30706,-3.89105 -5.61122,-4.38524c-2.30416,-0.49419 -4.75086,-0.49762 -6.99383,-0.23246c-3.64379,0.43077 -6.59223,4.6658 -6.59223,4.6658z" fill="#ffffff" stroke="#1c1c1c" stroke-width="0" stroke-linecap="butt"/><g data-paper-data="{&quot;index&quot;:null}" fill="#a3d325" stroke-width="1.5" stroke-linecap="butt"><g stroke="#000000"><path d=""/><path d=""/><path d=""/><path d=""/><path d=""/><path d=""/><path d=""/><path d=""/><path d=""/><path d=""/><path d=""/><path d=""/><path d=""/><path d=""/><path d=""/><path d=""/><path d=""/><path d=""/><path d=""/><path d=""/><path d=""/><path d=""/><path d=""/><path d=""/><path d=""/><path d=""/><path d=""/><path d=""/><path d=""/><path d=""/><path d=""/><path d=""/><path d=""/><path d=""/><path d=""/><path d="M252.59297,183.68707c0.02692,1.41819 -0.16047,2.68777 -0.41854,2.83568c-0.25807,0.14791 -0.4891,-0.88185 -0.51602,-2.30004c-0.02692,-1.41819 0.16048,-2.68777 0.41855,-2.83568c0.25807,-0.14791 0.48909,0.88185 0.51601,2.30004z"/><path d=""/><path d=""/><path d=""/><path d="M257.46241,181.41524c0.02692,1.41819 -0.16047,2.68777 -0.41854,2.83568c-0.25807,0.14791 -0.48909,-0.88185 -0.51601,-2.30004c-0.02692,-1.41819 0.16047,-2.6878 0.41854,-2.8357c0.25807,-0.14791 0.48909,0.88187 0.51601,2.30006z"/><path d="M257.7468,186.44383c0.02692,1.41819 -0.16047,2.6878 -0.41854,2.83571c-0.25807,0.14791 -0.4891,-0.88187 -0.51602,-2.30006c-0.02692,-1.41819 0.16047,-2.68777 0.41854,-2.83568c0.25807,-0.14791 0.4891,0.88185 0.51602,2.30003z"/><path d="M255.29343,181.62007c0.02692,1.41819 -0.16047,2.6878 -0.41854,2.83571c-0.25807,0.14791 -0.48909,-0.88185 -0.51601,-2.30004c-0.02692,-1.41819 0.16047,-2.68777 0.41854,-2.83568c0.25807,-0.14791 0.48909,0.88182 0.51601,2.30001z"/><path d="M255.87196,192.19084c0.02692,1.41819 -0.16047,2.6878 -0.41854,2.83571c-0.25807,0.14791 -0.4891,-0.88185 -0.51602,-2.30004c-0.02692,-1.41819 0.16048,-2.6878 0.41855,-2.83571c0.25807,-0.14791 0.48909,0.88185 0.51601,2.30004z"/><path d="M261.13873,195.9212c0.02692,1.41819 -0.16047,2.68777 -0.41854,2.83568c-0.25807,0.14791 -0.4891,-0.88182 -0.51602,-2.30001c-0.02692,-1.41819 0.16047,-2.6878 0.41854,-2.8357c0.25807,-0.14791 0.4891,0.88185 0.51602,2.30003z"/><path d="M254.84223,202.6451c0.02692,1.41819 -0.16047,2.6878 -0.41854,2.83571c-0.25807,0.14791 -0.48909,-0.88187 -0.51601,-2.30006c-0.02692,-1.41819 0.16047,-2.68778 0.41854,-2.83569c0.25807,-0.14791 0.48909,0.88185 0.51601,2.30004z"/></g><g stroke="#a3d325"><path d=""/><path d=""/><path d=""/><path d=""/><path d=""/><path d=""/><path d=""/><path d=""/><path d=""/><path d=""/><path d=""/><path d=""/><path d=""/><path d=""/><path d=""/><path d=""/><path d=""/><path d=""/><path d=""/><path d=""/><path d=""/><path d=""/><path d=""/><path d=""/><path d=""/><path d=""/><path d=""/><path d=""/><path d=""/><path d=""/><path d=""/><path d=""/><path d=""/><path d=""/><path d=""/><path d="M252.26227,183.84043c0.02692,1.41819 -0.16047,2.6878 -0.41854,2.83571c-0.25807,0.14791 -0.4891,-0.88185 -0.51602,-2.30003c-0.02692,-1.41819 0.16047,-2.6878 0.41854,-2.83571c0.25807,-0.14791 0.4891,0.88185 0.51602,2.30003z"/><path d=""/><path d=""/><path d=""/><path d="M257.13171,181.5686c0.02692,1.41819 -0.16047,2.6878 -0.41854,2.83571c-0.25807,0.14791 -0.4891,-0.88187 -0.51602,-2.30006c-0.02692,-1.41819 0.16047,-2.6878 0.41854,-2.83571c0.25807,-0.14791 0.4891,0.88187 0.51602,2.30006z"/><path d="M257.41609,186.5972c0.02692,1.41819 -0.16047,2.6878 -0.41854,2.8357c-0.25807,0.14791 -0.4891,-0.88187 -0.51602,-2.30006c-0.02692,-1.41819 0.16047,-2.68777 0.41854,-2.83568c0.25807,-0.14791 0.4891,0.88185 0.51602,2.30004z"/><path d="M254.96274,181.77346c0.02692,1.41819 -0.16048,2.68777 -0.41855,2.83568c-0.25807,0.14791 -0.4891,-0.88182 -0.51602,-2.30001c-0.02692,-1.41819 0.16047,-2.6878 0.41854,-2.8357c0.25807,-0.14791 0.4891,0.88185 0.51602,2.30003z"/><path d="M255.54125,192.34423c0.02692,1.41819 -0.16047,2.68777 -0.41854,2.83568c-0.25807,0.14791 -0.4891,-0.88185 -0.51602,-2.30003c-0.02692,-1.41819 0.16047,-2.68777 0.41854,-2.83568c0.25807,-0.14791 0.4891,0.88185 0.51602,2.30003z"/><path d="M260.80803,196.07456c0.02692,1.41819 -0.16047,2.6878 -0.41854,2.8357c-0.25807,0.14791 -0.48909,-0.88185 -0.51601,-2.30003c-0.02692,-1.41819 0.16047,-2.6878 0.41854,-2.83571c0.25807,-0.14791 0.48909,0.88185 0.51601,2.30004z"/><path d="M254.51153,202.79849c0.02692,1.41819 -0.16047,2.68777 -0.41854,2.83568c-0.25807,0.14791 -0.4891,-0.88185 -0.51602,-2.30003c-0.02692,-1.41819 0.16047,-2.68777 0.41854,-2.83568c0.25807,-0.14791 0.4891,0.88185 0.51602,2.30003z"/></g></g><g data-paper-data="{&quot;index&quot;:null}" fill="#a3d325" stroke-width="1.5" stroke-linecap="butt"><g stroke="#000000"><path d=""/><path d=""/><path d=""/><path d=""/><path d=""/><path d=""/><path d=""/><path d=""/><path d=""/><path d=""/><path d=""/><path d=""/><path d=""/><path d=""/><path d=""/><path d=""/><path d=""/><path d=""/><path d=""/><path d=""/><path d=""/><path d=""/><path d=""/><path d=""/><path d=""/><path d=""/><path d=""/><path d=""/><path d=""/><path d=""/><path d=""/><path d=""/><path d=""/><path d=""/><path d=""/><path d="M254.30617,201.69447c-1.41843,0.00629 -2.68516,-0.19954 -2.82929,-0.45973c-0.14414,-0.26019 0.88887,-0.47623 2.3073,-0.48252c1.41843,-0.00629 2.68516,0.19954 2.82929,0.45973c0.14414,0.26019 -0.88887,0.47622 -2.3073,0.48251z"/><path d=""/><path d=""/><path d=""/><path d="M256.50696,206.59642c-1.41843,0.00629 -2.68516,-0.19954 -2.82929,-0.45973c-0.14414,-0.26019 0.88887,-0.47622 2.3073,-0.48251c1.41843,-0.00629 2.68518,0.19954 2.82931,0.45973c0.14414,0.26019 -0.88889,0.47622 -2.30732,0.48251z"/><path d="M251.47476,206.80767c-1.41843,0.00629 -2.68518,-0.19954 -2.82932,-0.45973c-0.14414,-0.26019 0.88889,-0.47623 2.30732,-0.48253c1.41843,-0.00629 2.68516,0.19954 2.82929,0.45973c0.14414,0.26019 -0.88886,0.47623 -2.3073,0.48252z"/><path d="M256.33368,204.4247c-1.41843,0.00629 -2.68518,-0.19953 -2.82932,-0.45972c-0.14414,-0.26019 0.88887,-0.47622 2.3073,-0.48251c1.41843,-0.00629 2.68516,0.19953 2.82929,0.45972c0.14414,0.26019 -0.88884,0.47622 -2.30728,0.48251z"/><path d="M245.75562,204.84945c-1.41843,0.00629 -2.68518,-0.19954 -2.82932,-0.45973c-0.14414,-0.26019 0.88887,-0.47623 2.3073,-0.48252c1.41843,-0.00629 2.68518,0.19954 2.82932,0.45973c0.14414,0.26019 -0.88887,0.47622 -2.3073,0.48251z"/><path d="M241.94907,210.06142c-1.41843,0.00629 -2.68516,-0.19954 -2.82929,-0.45973c-0.14414,-0.26019 0.88884,-0.47623 2.30728,-0.48252c1.41843,-0.00629 2.68518,0.19954 2.82931,0.45973c0.14414,0.26019 -0.88886,0.47623 -2.3073,0.48252z"/><path d="M235.31744,203.66782c-1.41843,0.00629 -2.68518,-0.19954 -2.82932,-0.45973c-0.14414,-0.26019 0.88889,-0.47622 2.30732,-0.48251c1.41843,-0.00629 2.68516,0.19954 2.8293,0.45973c0.14414,0.26019 -0.88887,0.47622 -2.3073,0.48251z"/></g><g stroke="#a3d325"><path d=""/><path d=""/><path d=""/><path d=""/><path d=""/><path d=""/><path d=""/><path d=""/><path d=""/><path d=""/><path d=""/><path d=""/><path d=""/><path d=""/><path d=""/><path d=""/><path d=""/><path d=""/><path d=""/><path d=""/><path d=""/><path d=""/><path d=""/><path d=""/><path d=""/><path d=""/><path d=""/><path d=""/><path d=""/><path d=""/><path d=""/><path d=""/><path d=""/><path d=""/><path d=""/><path d="M254.15763,201.36157c-1.41843,0.00629 -2.68519,-0.19954 -2.82932,-0.45973c-0.14414,-0.26019 0.88886,-0.47623 2.3073,-0.48252c1.41843,-0.00629 2.68519,0.19954 2.82932,0.45973c0.14414,0.26019 -0.88886,0.47623 -2.3073,0.48252z"/><path d=""/><path d=""/><path d=""/><path d="M256.35842,206.26353c-1.41843,0.00629 -2.68519,-0.19954 -2.82932,-0.45973c-0.14414,-0.26019 0.88889,-0.47622 2.30733,-0.48252c1.41843,-0.00629 2.68518,0.19953 2.82932,0.45972c0.14414,0.26019 -0.88889,0.47623 -2.30732,0.48252z"/><path d="M251.32622,206.47476c-1.41843,0.00629 -2.68518,-0.19954 -2.82931,-0.45973c-0.14414,-0.26019 0.88889,-0.47622 2.30732,-0.48252c1.41843,-0.00629 2.68516,0.19954 2.82929,0.45973c0.14414,0.26019 -0.88887,0.47623 -2.3073,0.48252z"/><path d="M256.18512,204.09181c-1.41843,0.00629 -2.68516,-0.19954 -2.82929,-0.45973c-0.14414,-0.26019 0.88884,-0.47623 2.30727,-0.48252c1.41843,-0.00629 2.68518,0.19954 2.82932,0.45973c0.14414,0.26019 -0.88886,0.47623 -2.3073,0.48252z"/><path d="M245.60705,204.51655c-1.41843,0.00629 -2.68516,-0.19953 -2.82929,-0.45972c-0.14414,-0.26019 0.88886,-0.47624 2.3073,-0.48253c1.41843,-0.00629 2.68516,0.19954 2.82929,0.45973c0.14414,0.26019 -0.88886,0.47623 -2.3073,0.48252z"/><path d="M241.80053,209.72852c-1.41843,0.00629 -2.68518,-0.19954 -2.82932,-0.45973c-0.14414,-0.26019 0.88886,-0.47622 2.3073,-0.48251c1.41843,-0.00629 2.68519,0.19954 2.82932,0.45973c0.14414,0.26019 -0.88887,0.47622 -2.3073,0.48251z"/><path d="M235.16887,203.33493c-1.41843,0.00629 -2.68515,-0.19954 -2.82929,-0.45973c-0.14414,-0.26019 0.88886,-0.47623 2.30729,-0.48252c1.41843,-0.00629 2.68516,0.19954 2.82929,0.45973c0.14414,0.26019 -0.88886,0.47623 -2.3073,0.48252z"/></g></g></g></g></svg>