<svg version="1.1" xmlns="http://www.w3.org/2000/svg" xmlns:xlink="http://www.w3.org/1999/xlink" width="186.18341" height="270.81215" viewBox="0,0,186.18341,270.81215"><defs><radialGradient cx="180.25" cy="114.75001" r="11.25" gradientUnits="userSpaceOnUse" id="color-1"><stop offset="0" stop-color="#f5f5f5"/><stop offset="1" stop-color="#ffffff"/></radialGradient><radialGradient cx="180.25" cy="114.75001" r="11.25" gradientUnits="userSpaceOnUse" id="color-2"><stop offset="0" stop-color="#ffecad" stop-opacity="0"/><stop offset="1" stop-color="#ffecad"/></radialGradient><radialGradient cx="180.02" cy="100.78" r="3.936" gradientUnits="userSpaceOnUse" id="color-3"><stop offset="0" stop-color="#f5f5f5"/><stop offset="1" stop-color="#ffffff"/></radialGradient></defs><g transform="translate(-149.26207,-43.58)"><g data-paper-data="{&quot;isPaintingLayer&quot;:true}" fill-rule="nonzero" stroke-linejoin="miter" stroke-miterlimit="10" stroke-dasharray="" stroke-dashoffset="0" style="mix-blend-mode: normal"><path d="M177.75,100.00001v-26h4.5v26z" fill="#000000" stroke="#000000" stroke-width="2" stroke-linecap="butt"/><path d="M167,128v-26h26v26z" fill="none" stroke="#000000" stroke-width="2" stroke-linecap="butt"/><path d="M250.14149,251.63422h20.67453v26.10526l13.06786,15.61654l46.6152,20l-27.30597,-0.18797h-52.66152v-62z" data-paper-data="{&quot;index&quot;:null}" fill="#ad9fc8" stroke="#000000" stroke-width="2" stroke-linecap="round"/><path d="M255.99277,251.16804v62h-52.66151l-24.18529,0.18797l43.49451,-20l13.06786,-15.61654v-26.10526h20.67452z" data-paper-data="{&quot;index&quot;:null}" fill="#ad9fc8" stroke="#000000" stroke-width="2" stroke-linecap="round"/><path d="M264.33545,119.01047v193.31513l-22.58079,-0.19844v-189.72867h23.01504z" data-paper-data="{&quot;index&quot;:null}" fill="#bcb7c7" stroke="#000000" stroke-width="2" stroke-linecap="round"/><path d="M252.17682,137.36802v-62h32.52623v19.81203h-11.92629l-8.07133,15.61654v26.10527h-12.76955z" data-paper-data="{&quot;index&quot;:null}" fill="#ad9fc8" stroke="#000000" stroke-width="2" stroke-linecap="round"/><path d="M257.78717,136.40186h-15.80992v-26.10526l-9.99307,-15.61654h-14.76587v-19.81203h40.27057v62z" data-paper-data="{&quot;index&quot;:null}" fill="#ad9fc8" stroke="#000000" stroke-width="2" stroke-linecap="round"/><path d="M245.1758,312.19206v-267.04805h16.17275v267.04805z" data-paper-data="{&quot;index&quot;:null}" fill="#ad9fc8" stroke="#000000" stroke-width="2" stroke-linecap="butt"/><path d="M299.62216,82.00804h-149.36009v-9.75518h149.36009z" data-paper-data="{&quot;index&quot;:null}" fill="#ad9fc8" stroke="#000000" stroke-width="2" stroke-linecap="butt"/><path d="M243.92939,69.47009l-0.36033,-3.62892l18.68576,-3.04829l0.36033,3.62892z" data-paper-data="{&quot;index&quot;:null}" fill="#c77d33" stroke="#000000" stroke-width="1.5" stroke-linecap="butt"/><path d="M243.58168,60.72661l0.26692,-3.64217l18.75394,2.25795l-0.26691,3.64216z" data-paper-data="{&quot;index&quot;:null}" fill="#c77d33" stroke="#000000" stroke-width="1.5" stroke-linecap="butt"/><path d="M244.11966,56.78835l-0.36033,-3.62892l18.68576,-3.04829l0.36033,3.62892z" data-paper-data="{&quot;index&quot;:null}" fill="#c77d33" stroke="#000000" stroke-width="1.5" stroke-linecap="butt"/><path d="M150.50094,86.7393v-3.90207h149.20728v3.90207z" data-paper-data="{&quot;index&quot;:null}" fill="#b9b2c7" stroke="#000000" stroke-width="2" stroke-linecap="butt"/><path d="M169,126.00001v-22.5h22.5v22.5z" fill="url(#color-1)" stroke="url(#color-2)" stroke-width="2" stroke-linecap="butt"/><path d="M163.62,98.98h32.8v3.6h-32.8z" fill="url(#color-3)" stroke="#000000" stroke-width="2" stroke-linecap="butt"/><path d="M242.12,108.98l-9.4,-15.2h-13.8" fill="none" stroke="#998db2" stroke-width="1" stroke-linecap="round"/><path d="M264.32,109.18l7.6,-15h11.4" fill="none" stroke="#998db2" stroke-width="1" stroke-linecap="round"/><path d="M267.52,70.88h-29" fill="none" stroke="#998db2" stroke-width="1" stroke-linecap="round"/><path d="M262.12,44.08h-17.4" fill="none" stroke="#998db2" stroke-width="1" stroke-linecap="round"/><path d="M260.12,67.48l-13.6,3" fill="none" stroke="#998db2" stroke-width="1" stroke-linecap="round"/><path d="M260.12,48.88l-13.8,2.4" fill="none" stroke="#998db2" stroke-width="1" stroke-linecap="round"/><path d="M240.4,311.6l-56,0.75l40,-18.75l12.25,-15.25l-0.25,-25.75" fill="none" stroke="#998db2" stroke-width="1" stroke-linecap="round"/><path d="M265.4,311.85h60.25l-43.25,-17.5l-13,-16v-25.75" fill="none" stroke="#998db2" stroke-width="1" stroke-linecap="round"/></g></g></svg>