<svg version="1.1" xmlns="http://www.w3.org/2000/svg" xmlns:xlink="http://www.w3.org/1999/xlink" width="186.18341" height="270.81216" viewBox="0,0,186.18341,270.81216"><defs><radialGradient cx="180.25" cy="114.75001" r="11.25" gradientUnits="userSpaceOnUse" id="color-1"><stop offset="0" stop-color="#f5f5f5" stop-opacity="0.27722"/><stop offset="1" stop-color="#f5f5f5" stop-opacity="0"/></radialGradient><radialGradient cx="180.25" cy="114.75001" r="11.25" gradientUnits="userSpaceOnUse" id="color-2"><stop offset="0" stop-color="#d0ceca" stop-opacity="0"/><stop offset="1" stop-color="#d0ceca"/></radialGradient></defs><g transform="translate(-149.26207,-43.58)"><g data-paper-data="{&quot;isPaintingLayer&quot;:true}" fill-rule="nonzero" stroke-linejoin="miter" stroke-miterlimit="10" stroke-dasharray="" stroke-dashoffset="0" style="mix-blend-mode: normal"><path d="M177.75,100.00001v-26h4.5v26z" fill="#000000" stroke="#000000" stroke-width="2" stroke-linecap="butt"/><path d="M193,126.17606v1.82394h-2.43186" fill="none" stroke="#000000" stroke-width="2" stroke-linecap="butt"/><path d="M167,121.97749v-19.97749h26v3.38329" fill="none" stroke="#000000" stroke-width="2" stroke-linecap="butt"/><path d="M250.14149,251.63422h20.67453v26.10526l13.06786,15.61654l46.6152,20l-27.30597,-0.18797h-52.66152v-62z" data-paper-data="{&quot;index&quot;:null}" fill="#453f50" stroke="#000000" stroke-width="2" stroke-linecap="round"/><path d="M255.99277,251.16804v62h-52.66151l-24.18529,0.18797l43.49451,-20l13.06786,-15.61654v-26.10526h20.67452z" data-paper-data="{&quot;index&quot;:null}" fill="#453f50" stroke="#000000" stroke-width="2" stroke-linecap="round"/><path d="M264.33545,119.01047v193.31513l-22.58079,-0.19844v-189.72867h23.01504z" data-paper-data="{&quot;index&quot;:null}" fill="#5d556c" stroke="#000000" stroke-width="2" stroke-linecap="round"/><path d="M252.17682,137.36802v-62h32.52623v19.81203h-11.92629l-8.07133,15.61654v26.10527h-12.76955z" data-paper-data="{&quot;index&quot;:null}" fill="#453f50" stroke="#000000" stroke-width="2" stroke-linecap="round"/><path d="M257.78717,136.40186h-15.80992v-26.10526l-9.99307,-15.61654h-14.76587v-19.81203h40.27057v62z" data-paper-data="{&quot;index&quot;:null}" fill="#453f50" stroke="#000000" stroke-width="2" stroke-linecap="round"/><path d="M245.1758,312.19206v-267.04805h16.17275v267.04805z" data-paper-data="{&quot;index&quot;:null}" fill="#453f50" stroke="#000000" stroke-width="2" stroke-linecap="butt"/><path d="M299.62216,82.00804h-149.36009v-9.75518h149.36009z" data-paper-data="{&quot;index&quot;:null}" fill="#453f50" stroke="#000000" stroke-width="2" stroke-linecap="butt"/><path d="M243.92939,69.47009l-0.36033,-3.62892l18.68576,-3.04829l0.36033,3.62892z" data-paper-data="{&quot;index&quot;:null}" fill="#453f50" stroke="#000000" stroke-width="1.5" stroke-linecap="butt"/><path d="M243.58168,60.72661l0.26692,-3.64217l18.75394,2.25795l-0.26691,3.64216z" data-paper-data="{&quot;index&quot;:null}" fill="#453f50" stroke="#000000" stroke-width="1.5" stroke-linecap="butt"/><path d="M244.11966,56.78835l-0.36033,-3.62892l18.68576,-3.04829l0.36033,3.62892z" data-paper-data="{&quot;index&quot;:null}" fill="#453f50" stroke="#000000" stroke-width="1.5" stroke-linecap="butt"/><path d="M150.50094,86.7393v-3.90207h149.20728v3.90207z" data-paper-data="{&quot;index&quot;:null}" fill="#453f50" stroke="#000000" stroke-width="2" stroke-linecap="butt"/><path d="M169,103.50001h22.5v1.47714c-0.25564,-0.02886 -0.51172,-0.02662 -0.76877,0.02284c-5.40574,1.04 -8.31998,7.24862 -2.85381,9.62703c0.72349,0.3148 1.44221,0.56175 2.16273,0.75197c0.00059,0.02783 0.00129,0.05564 0.0021,0.08342c-0.00289,0.09897 -0.00436,0.19828 -0.00436,0.29795c0,1.1976 0.21053,2.34605 0.59659,3.41032c-0.37107,0.54407 -0.63215,1.11409 -0.59659,1.75415c0.06185,1.11326 0.74531,2.03519 1.4621,2.9534v2.12179h-1.18792c-0.31722,-1.36398 -0.91357,-2.62085 -1.72556,-3.70712c-0.35056,-2.95961 -1.9882,-6.36807 -5.03519,-6.36807c-0.6322,0 -1.2152,0.13675 -1.74504,0.38152c-3.2754,-5.39131 -13.17109,-6.83776 -11.30313,2.50202c0.19968,0.99839 1.65597,1.2833 2.14102,2.17851c0.4447,0.82074 -1.87161,-0.00789 -2.79855,0.10243c-0.28822,0 -0.57075,0.02438 -0.84563,0.0712z" fill="url(#color-1)" stroke="url(#color-2)" stroke-width="2" stroke-linecap="butt"/><path d="M163.62,98.98h32.8v3.6h-32.8z" fill="#000000" stroke="#000000" stroke-width="2" stroke-linecap="butt"/><path d="M218.92,93.78h13.8l9.4,15.2" fill="none" stroke="#5d556c" stroke-width="1" stroke-linecap="round"/><path d="M264.32,109.18l7.6,-15h11.4" fill="none" stroke="#5d556c" stroke-width="1" stroke-linecap="round"/><path d="M238.52,70.88h29" fill="none" stroke="#453f50" stroke-width="1" stroke-linecap="round"/><path d="M262.12,44.08h-17.4" fill="none" stroke="#453f50" stroke-width="1" stroke-linecap="round"/><path d="M246.52,70.48l13.6,-3" fill="none" stroke="#453f50" stroke-width="1" stroke-linecap="round"/><path d="M246.32,51.28l13.8,-2.4" fill="none" stroke="#453f50" stroke-width="1" stroke-linecap="round"/><path d="M240.4,311.6l-56,0.75l40,-18.75l12.25,-15.25l-0.25,-25.75" fill="none" stroke="#5d556c" stroke-width="1" stroke-linecap="round"/><path d="M269.4,252.6v25.75l13,16l43.25,17.5h-60.25" fill="none" stroke="#5d556c" stroke-width="1" stroke-linecap="round"/></g></g></svg>