<svg version="1.1" xmlns="http://www.w3.org/2000/svg" xmlns:xlink="http://www.w3.org/1999/xlink" width="109.35756" height="104.97457" viewBox="0,0,109.35756,104.97457"><g transform="translate(-185.52284,-126.72291)"><g data-paper-data="{&quot;isPaintingLayer&quot;:true}" fill-rule="nonzero" stroke-linejoin="miter" stroke-miterlimit="10" stroke-dasharray="" stroke-dashoffset="0" style="mix-blend-mode: normal"><path d="M237.06825,228.44748c-31.56514,-6.45227 -47.23277,-20.77661 -48.29541,-27.60178c-2.75315,-17.68299 9.04835,-57.54433 21.50434,-67.80588c8.08819,-6.66325 38.27674,-0.81808 47.24897,2.06605c10.17837,3.27184 7.14002,28.85771 14.69901,38.0332c14.22223,17.26368 26.10628,25.2511 15.07603,36.15766c-11.03026,10.90656 -18.66778,25.60303 -50.23292,19.15075z" data-paper-data="{&quot;index&quot;:null}" fill="#635f6c" stroke="#000000" stroke-width="6.5" stroke-linecap="butt"/><path d="M238.60199,225.95165c-30.14316,-5.67391 -46.81845,-18.52653 -47.81589,-24.93289c-2.58421,-16.59791 9.25188,-55.48897 20.94355,-65.12084c7.59188,-6.25437 36.56303,-0.38395 44.9847,2.3232c9.5538,3.07107 6.09378,27.62201 13.18893,36.23447c13.34952,16.20434 25.08894,22.78038 14.96538,32.79042c-10.12356,10.01003 -16.1235,24.37956 -46.26667,18.70564z" data-paper-data="{&quot;index&quot;:null}" fill="none" stroke="#948ea1" stroke-width="5.5" stroke-linecap="butt"/><path d="M239.58218,224.3566c-29.23361,-5.17236 -46.55366,-17.08853 -47.50943,-23.22723c-2.47624,-15.90446 9.38197,-54.17542 20.58516,-63.40488c7.2747,-5.99307 35.46782,-0.1065 43.53764,2.48756c9.15465,2.94276 5.42514,26.83229 12.22386,35.08493c12.79179,15.52733 24.44596,21.19428 14.89467,30.63847c-9.55129,9.44419 -14.49829,23.59353 -43.7319,18.42117z" data-paper-data="{&quot;index&quot;:null}" fill="none" stroke="#6d6977" stroke-width="3" stroke-linecap="butt"/><path d="M241.05246,221.96402c-27.86764,-4.41306 -46.15648,-14.93154 -47.04974,-20.66877c-2.31429,-14.86428 9.57709,-52.2051 20.04758,-60.83094c6.79892,-5.60111 33.82501,0.30968 41.36705,2.73408c8.55592,2.7503 4.4222,25.64772 10.77627,33.36063c11.95519,14.51182 23.4953,18.80146 14.78859,27.41053c-8.70671,8.60907 -12.06212,22.40754 -39.92976,17.99447z" data-paper-data="{&quot;index&quot;:null}" fill="none" stroke="#676370" stroke-width="5.5" stroke-linecap="butt"/><path d="M218.49772,163.42253l2.71334,17.90636l-10.8875,11.44145" fill="none" stroke="#2e2d33" stroke-width="5.5" stroke-linecap="round"/><path d="M219.94689,164.08504l2,18l-11.33333,11" fill="none" stroke="#424049" stroke-width="3.5" stroke-linecap="round"/><path d="M240.9469,148.75171l10.33333,3.33333" fill="none" stroke="#45424b" stroke-width="3.5" stroke-linecap="round"/><path d="M264.61356,206.41837l1.66667,-5.66667" fill="none" stroke="#4b4852" stroke-width="3.5" stroke-linecap="round"/><path d="M260.8477,202.32074l-14.53675,10.80199l-15.21349,-4.24194" fill="none" stroke="#2e2d33" stroke-width="5.5" stroke-linecap="round"/><path d="M260.51437,201.9874l-14.53675,10.80199l-15.21349,-4.24194" fill="none" stroke="#424049" stroke-width="3.5" stroke-linecap="round"/></g></g></svg>