<svg version="1.1" xmlns="http://www.w3.org/2000/svg" xmlns:xlink="http://www.w3.org/1999/xlink" width="108.5" height="94.5" viewBox="0,0,108.5,94.5"><g transform="translate(-185.75,-133.90354)"><g data-paper-data="{&quot;isPaintingLayer&quot;:true}" fill-rule="nonzero" stroke-linecap="butt" stroke-linejoin="miter" stroke-miterlimit="10" stroke-dasharray="" stroke-dashoffset="0" style="mix-blend-mode: normal"><g><path d="M255.5,225.15355c-6.22904,0 -32.59495,-18.10424 -38.53842,-21.62381c-15.39863,-9.11866 -27.96158,-18.7377 -27.96158,-34.87619c0,-10.47939 12.29709,-26.05367 20.22804,-31.14476c8.99711,-5.77548 26.38382,-0.35524 38.27196,-0.35524c22.36753,0 43.5,11.13247 43.5,33.5c0,22.36753 -13.13247,54.5 -35.5,54.5z" data-paper-data="{&quot;index&quot;:null}" fill="#635f6c" stroke="#000000" stroke-width="6.5"/><path d="M254.54889,222.38282c-5.84681,0 -30.59485,-16.99332 -36.17362,-20.29691c-14.45373,-8.55912 -26.24579,-17.58791 -26.24579,-32.73611c0,-9.83635 11.54251,-24.45496 18.9868,-29.23364c8.44502,-5.42109 24.76485,-0.33345 35.9235,-0.33345c20.995,0 40.83074,10.44936 40.83074,31.44437c0,20.995 -12.32663,51.15575 -33.32163,51.15575z" data-paper-data="{&quot;index&quot;:null}" fill="none" stroke="#948ea1" stroke-width="5.5"/><path d="M253.94104,220.61209c-5.60253,0 -29.31661,-16.28335 -34.6623,-19.44893c-13.84986,-8.20153 -25.14926,-16.85309 -25.14926,-31.36841c0,-9.4254 11.06027,-23.43324 18.19355,-28.01227c8.0922,-5.19459 23.73018,-0.31952 34.42263,-0.31952c20.11784,0 39.12486,10.0128 39.12486,30.13064c0,20.11784 -11.81164,49.0185 -31.92948,49.0185z" data-paper-data="{&quot;index&quot;:null}" fill="none" stroke="#6d6977" stroke-width="5.5"/><path d="M253.02928,217.956c-5.23612,0 -27.39927,-15.2184 -32.39534,-18.17694c-12.94406,-7.66513 -23.50446,-15.75088 -23.50446,-29.31687c0,-8.80896 10.33692,-21.90068 17.00366,-26.18023c7.56295,-4.85486 22.17819,-0.29862 32.17135,-0.29862c18.80211,0 36.56604,9.35794 36.56604,28.16005c0,18.80211 -11.03913,45.81261 -29.84124,45.81261z" data-paper-data="{&quot;index&quot;:null}" fill="none" stroke="#676370" stroke-width="5.5"/></g><path d="M267.17309,166.92155c0.76531,1.61989 -0.70343,10.70076 -0.88848,12.6788c-0.47945,5.1248 -1.43742,9.57365 -5.6343,11.55644c-2.72521,1.28751 -8.28619,0.00308 -10.58455,-1.4339c-2.60733,-1.63015 -3.33393,-6.81758 -4.79452,-9.90913c-2.7481,-5.81677 -2.44942,-12.68009 3.36735,-15.42819c5.81677,-2.7481 15.78641,-3.28079 18.53451,2.53598z" data-paper-data="{&quot;index&quot;:null}" fill="#635f6c" stroke="#000000" stroke-width="7"/><path d="M266.5694,167.50931c0.71834,1.52049 -0.66026,10.04413 -0.83396,11.90079c-0.45003,4.81033 -1.34922,8.98619 -5.28857,10.84732c-2.55798,1.20851 -7.77773,0.00289 -9.93506,-1.34592c-2.44734,-1.53012 -3.12935,-6.39923 -4.50032,-9.30107c-2.57947,-5.45983 -2.29912,-11.90202 3.16072,-14.48148c5.45983,-2.57947 14.81771,-3.07947 17.39718,2.38037z" data-paper-data="{&quot;index&quot;:null}" fill="none" stroke="#948ea1" stroke-width="5.5"/><path d="M266.1836,167.88493c0.68833,1.45696 -0.63268,9.62449 -0.79912,11.40358c-0.43123,4.60936 -1.29285,8.61076 -5.06761,10.39413c-2.45111,1.15802 -7.45279,0.00277 -9.51998,-1.28968c-2.34509,-1.46619 -2.99861,-6.13187 -4.3123,-8.91249c-2.4717,-5.23173 -2.20306,-11.40475 3.02866,-13.87645c5.23173,-2.4717 14.19865,-2.95081 16.67035,2.28091z" data-paper-data="{&quot;index&quot;:null}" fill="none" stroke="#6d6977" stroke-width="5.5"/><path d="M265.60489,168.44837c0.64331,1.36167 -0.5913,8.99503 -0.74686,10.65777c-0.40303,4.3079 -1.20829,8.0476 -4.73618,9.71433c-2.2908,1.08228 -6.96536,0.00259 -8.89736,-1.20533c-2.19172,-1.3703 -2.8025,-5.73083 -4.03027,-8.32959c-2.31005,-4.88956 -2.05897,-10.65887 2.83059,-12.96892c4.88956,-2.31005 13.27003,-2.75781 15.58008,2.13175z" data-paper-data="{&quot;index&quot;:null}" fill="none" stroke="#676370" stroke-width="5.5"/></g></g></svg>