<svg version="1.1" xmlns="http://www.w3.org/2000/svg" xmlns:xlink="http://www.w3.org/1999/xlink" width="108.50972" height="132.28607" viewBox="0,0,108.50972,132.28607"><g transform="translate(-186.23459,-115.94739)"><g data-paper-data="{&quot;isPaintingLayer&quot;:true}" fill-rule="nonzero" stroke-linecap="butt" stroke-linejoin="miter" stroke-miterlimit="10" stroke-dasharray="" stroke-dashoffset="0" style="mix-blend-mode: normal"><g><path d="M253.38985,122.78728c4.93474,3.80123 25.30432,28.83018 31.59485,51.63282c6.29053,22.80264 11.32455,39.0539 -1.30482,58.16592c-12.62937,19.11202 -25.57385,11.30282 -42.37486,7.93452c-16.80101,-3.36831 -33.49426,-17.77845 -42.91223,-25.03308c-17.71991,-13.64961 -5.77448,-42.48377 7.87512,-60.20367c13.64961,-17.71991 29.40204,-46.14609 47.12195,-32.4965z" data-paper-data="{&quot;index&quot;:null}" fill="#635f6c" stroke="#000000" stroke-width="6.5"/><path d="M252.45252,125.56271c4.63193,3.56796 24.45639,27.36536 30.53115,49.13854c6.07476,21.77317 10.71841,37.24293 -1.35813,55.42347c-12.07655,18.18054 -24.30542,10.39847 -40.22529,7.17796c-15.91987,-3.22051 -32.1984,-16.80774 -41.03845,-23.61722c-16.63256,-12.81203 -4.07671,-40.31371 8.73532,-56.94628c12.81203,-16.63256 26.72284,-43.98848 43.35541,-31.17646z" data-paper-data="{&quot;index&quot;:null}" fill="none" stroke="#948ea1" stroke-width="5.5"/><path d="M251.85349,127.33643c4.43842,3.4189 23.91414,26.42876 29.85134,47.54447c5.9372,21.11571 10.33125,36.08574 -1.39219,53.67082c-11.72344,17.58507 -23.4942,9.82045 -38.85154,6.69445c-15.35733,-3.126 -31.37022,-16.18737 -39.84094,-22.71236c-15.93766,-12.27675 -2.99169,-38.92685 9.28506,-54.86452c12.27675,-15.93767 25.01061,-42.6096 40.94828,-30.33285z" data-paper-data="{&quot;index&quot;:null}" fill="none" stroke="#6d6977" stroke-width="3"/><path d="M250.95495,129.99702c4.14813,3.1953 23.10022,25.02311 28.83164,45.15339c5.73142,20.13028 9.75055,34.35068 -1.44329,51.04183c-11.19385,16.69115 -22.2764,8.95332 -36.79091,5.9692c-14.51451,-2.98413 -30.12794,-15.25686 -38.04467,-21.3551c-14.89532,-11.47384 -1.36418,-36.84658 10.10966,-51.74189c11.47384,-14.89532 22.44227,-40.54126 37.33759,-29.06743z" data-paper-data="{&quot;index&quot;:null}" fill="none" stroke="#676370" stroke-width="2.5"/></g></g></g></svg>