<svg version="1.1" xmlns="http://www.w3.org/2000/svg" xmlns:xlink="http://www.w3.org/1999/xlink" width="497.91268" height="101.52429" viewBox="0,0,497.91268,101.52429"><g transform="translate(6.27617,-205.02444)"><g data-paper-data="{&quot;isPaintingLayer&quot;:true}" fill-rule="nonzero" stroke="#000000" stroke-linecap="butt" stroke-linejoin="miter" stroke-miterlimit="10" stroke-dasharray="" stroke-dashoffset="0" style="mix-blend-mode: normal"><path d="M-0.11213,297.45944v-89.90721h480.23242v89.90722z" data-paper-data="{&quot;index&quot;:null}" fill="#676270" stroke-width="0"/><g data-paper-data="{&quot;index&quot;:null}" fill="#635f6c" stroke-width="2"><path d="M465.95061,278.8054c7.86379,1.59093 4.70583,9.88545 4.70583,9.88545c0,0 -6.36444,12.91474 -18.83513,12.76828c-12.47069,-0.14646 -8.42117,-10.03839 -4.03982,-17.39612c4.38133,-7.35773 10.30533,-6.84854 18.16912,-5.25761z"/><path d="M436.88557,296.75485c-8.25847,-2.68937 -19.34861,-8.73316 -10.08821,-16.90574c9.2604,-8.17258 18.49802,-3.63556 18.49802,-3.63556c0,0 6.14804,2.53276 1.3209,8.81093c-4.82714,6.27817 -1.47224,14.41974 -9.73071,11.73037z" data-paper-data="{&quot;index&quot;:null}"/><path d="M458.92006,274.87561c-2.394,1.18114 -11.35534,9.07386 -11.34146,-1.44002c0.00835,-6.32051 2.64322,-9.47664 4.14637,-10.21826c3.76879,-1.85942 5.17331,-1.06034 6.37414,5.02769c1.3111,6.64704 3.21494,5.44944 0.82094,6.63058z" data-paper-data="{&quot;index&quot;:null}"/><path d="M458.57459,267.81589c-1.00671,-5.71216 5.66771,-5.83042 5.66771,-5.83042c0,0 10.78304,0.78821 14.04753,9.20507c3.26448,8.41686 -4.77186,8.36751 -11.1191,7.41101c-6.34724,-0.9565 -7.58942,-5.07349 -8.59613,-10.78565z"/><path d="M479.95652,278.02266c6.38378,-0.68541 13.31112,0.59616 9.67537,8.86608c-3.63574,8.26993 -13.69293,9.77403 -13.69293,9.77403c0,0 -6.62836,0.45676 -5.36855,-5.20714c0.85288,-3.83436 1.92697,-8.31942 4.51255,-11.0295c1.23368,-1.29309 2.81148,-2.18208 4.87355,-2.40348z" data-paper-data="{&quot;index&quot;:null}"/><path d="M405.94662,285.21447c-7.76517,2.00155 -8.71331,-6.80092 -8.71331,-6.80092c0,0 -0.18027,-14.33624 11.05225,-19.63819c11.23252,-5.30195 12.10949,5.31921 11.53583,13.8159c-0.57366,8.49669 -6.10961,10.62166 -13.87477,12.6232z" data-paper-data="{&quot;index&quot;:null}"/><path d="M422.16763,274.7974c-3.19131,-7.92219 -5.57011,-20.1216 6.77931,-18.41798c12.34942,1.70362 14.72063,11.54615 14.72063,11.54615c0,0 1.95977,6.23823 -6.05962,6.64522c-8.01939,0.407 -12.24901,8.1488 -15.44031,0.22661z" data-paper-data="{&quot;index&quot;:null}"/><path d="M411.12457,287.54678c1.60585,-2.10054 6.0368,-13.07161 10.81028,-3.65178c2.86963,5.66282 1.94711,9.63665 0.93882,10.95554c-2.52804,3.30681 -4.14934,3.20325 -7.99581,-1.72461c-4.19964,-5.38034 -5.35914,-3.47861 -3.75329,-5.57916z" data-paper-data="{&quot;index&quot;:null}"/><path d="M414.39393,294.01106c3.50155,4.67589 -2.42066,7.68962 -2.42066,7.68962c0,0 -10.01358,3.9921 -16.76785,-2.12185c-6.75427,-6.11395 0.46367,-9.57096 6.58219,-11.47983c6.11852,-1.90887 9.10478,1.23618 12.60633,5.91206z" data-paper-data="{&quot;index&quot;:null}"/><path d="M393.48558,292.0401c-5.40384,3.3949 -12.18972,5.26545 -12.69885,-3.72315c-0.50913,-8.9886 7.81106,-14.71693 7.81106,-14.71693c0,0 5.7269,-3.29674 7.17711,2.32339c0.98176,3.80473 2.06166,8.28847 0.98023,11.84145c-0.51599,1.69527 -1.52402,3.17864 -3.26955,4.27525z" data-paper-data="{&quot;index&quot;:null}"/></g><g data-paper-data="{&quot;index&quot;:null}" fill="#635f6c" stroke-width="2"><path d="M343.57352,255.76101c-7.81687,1.79871 -8.52526,-7.02533 -8.52526,-7.02533c0,0 0.2097,-14.33585 11.58244,-19.34354c11.37274,-5.00769 11.96055,5.63254 11.156,14.11129c-0.80455,8.47875 -6.39632,10.45887 -14.21318,12.25758z"/><path d="M362.202,227.50181c8.64788,-0.96522 21.30851,-0.05554 16.43008,11.17337c-4.87844,11.22892 -15.21006,10.92212 -15.21006,10.92212c0,0 -6.66649,0.2373 -4.99269,-7.44615c1.6738,-7.68346 -4.87522,-13.68413 3.77266,-14.64934z" data-paper-data="{&quot;index&quot;:null}"/><path d="M351.64203,256.42689c1.66241,-2.058 6.39018,-12.90984 10.90577,-3.36909c2.71459,5.7355 1.68433,9.68392 0.64053,10.9761c-2.61708,3.23984 -4.235,3.0941 -7.94607,-1.93214c-4.05183,-5.48775 -5.26264,-3.61688 -3.60022,-5.67488z" data-paper-data="{&quot;index&quot;:null}"/><path d="M354.99587,262.68694c3.37314,4.76538 -2.62895,7.62388 -2.62895,7.62388c0,0 -10.11861,3.73003 -16.7042,-2.55757c-6.58559,-6.2876 0.72381,-9.5555 6.89208,-11.30443c6.16827,-1.74893 9.06793,1.47274 12.44108,6.23812z"/><path d="M331.20867,262.24422c-5.49425,3.25304 -12.3286,4.94628 -12.5931,-4.05239c-0.2645,-8.99867 8.20856,-14.5084 8.20856,-14.5084c0,0 5.81455,-3.1465 7.11139,2.50939c0.87794,3.82895 1.83549,8.3392 0.65783,11.86277c-0.56192,1.68124 -1.60994,3.13784 -3.38467,4.18863z" data-paper-data="{&quot;index&quot;:null}"/><path d="M395.23081,225.21451c6.18019,-5.01606 10.83117,2.57606 10.83117,2.57606c0,0 6.33792,12.92722 -1.56536,22.36569c-7.90329,9.43847 -13.27302,0.16764 -16.41218,-7.77447c-3.13916,-7.94212 0.96618,-12.15121 7.14638,-17.16728z" data-paper-data="{&quot;index&quot;:null}"/><path d="M385.00649,241.34819c6.30619,5.86915 13.71764,15.95223 1.78424,19.49774c-11.9334,3.54552 -18.32291,-4.40324 -18.32291,-4.40324c0,0 -4.46404,-4.84961 2.63346,-8.52437c7.0975,-3.67477 7.59902,-12.43928 13.90522,-6.57013z" data-paper-data="{&quot;index&quot;:null}"/><path d="M389.53044,225.23374c-0.55168,2.56692 0.15501,14.34306 -8.23106,7.76788c-5.04136,-3.95272 -5.91622,-7.93686 -5.56983,-9.54859c0.86848,-4.04102 2.38344,-4.61542 7.99417,-1.73189c6.1259,3.1483 6.35841,0.94567 5.80673,3.5126z" data-paper-data="{&quot;index&quot;:null}"/><path d="M383.78138,220.71894c-5.18941,-2.79719 -1.11652,-7.97153 -1.11652,-7.97153c0,0 7.36197,-7.74811 16.12062,-4.98753c8.75864,2.76058 3.70159,8.87103 -1.02516,13.12428c-4.72676,4.25325 -8.78952,2.63197 -13.97894,-0.16522z" data-paper-data="{&quot;index&quot;:null}"/><path d="M403.59203,213.88782c3.43859,-5.30633 8.78709,-9.79992 13.12011,-1.85803c4.33302,7.94189 -0.74546,16.56656 -0.74546,16.56656c0,0 -3.77387,5.35049 -7.50957,0.85138c-2.52901,-3.04583 -5.43945,-6.66699 -5.98893,-10.33495c-0.26218,-1.75014 0.01315,-3.51093 1.12387,-5.22496z" data-paper-data="{&quot;index&quot;:null}"/></g><g data-paper-data="{&quot;index&quot;:null}" fill="#635f6c" stroke-width="2"><path d="M88.52167,281.37307c8.4296,1.59093 5.04444,9.88545 5.04444,9.88545c0,0 -6.82238,12.91474 -20.19034,12.76828c-13.36796,-0.14646 -9.02707,-10.03839 -4.33049,-17.39612c4.69657,-7.35773 11.0468,-6.84854 19.4764,-5.25761z"/><path d="M57.36538,299.32253c-8.85267,-2.68937 -20.74075,-8.73316 -10.81405,-16.90574c9.9267,-8.17258 19.82898,-3.63556 19.82898,-3.63556c0,0 6.59041,2.53276 1.41594,8.81093c-5.17447,6.27817 -1.57818,14.41974 -10.43085,11.73037z" data-paper-data="{&quot;index&quot;:null}"/><path d="M80.98526,277.44329c-2.56625,1.18114 -12.17237,9.07386 -12.15749,-1.44002c0.00894,-6.32051 2.8334,-9.47664 4.4447,-10.21826c4.03995,-1.85942 5.54554,-1.06034 6.83276,5.02769c1.40544,6.64704 3.44627,5.44945 0.88002,6.63059z" data-paper-data="{&quot;index&quot;:null}"/><path d="M80.61494,270.38356c-1.07916,-5.71216 6.0755,-5.83042 6.0755,-5.83042c0,0 11.55889,0.78821 15.05826,9.20507c3.49937,8.41686 -5.1152,8.36752 -11.91913,7.41101c-6.80393,-0.9565 -8.13548,-5.0735 -9.21462,-10.78566z"/><path d="M103.53533,280.59034c6.8431,-0.68541 14.26885,0.59616 10.37152,8.86608c-3.89735,8.26993 -14.67814,9.77404 -14.67814,9.77404c0,0 -7.10529,0.45675 -5.75482,-5.20714c0.91424,-3.83436 2.06562,-8.31942 4.83724,-11.0295c1.32245,-1.29309 3.01378,-2.18208 5.22421,-2.40348z" data-paper-data="{&quot;index&quot;:null}"/><path d="M24.20034,287.78216c-8.32389,2.00155 -9.34025,-6.80092 -9.34025,-6.80092c0,0 -0.19324,-14.33624 11.84748,-19.63819c12.04071,-5.30195 12.98079,5.31921 12.36585,13.8159c-0.61494,8.49669 -6.54919,10.62166 -14.87308,12.62321z" data-paper-data="{&quot;index&quot;:null}"/><path d="M41.58846,277.36508c-3.42094,-7.92219 -5.97089,-20.1216 7.26708,-18.41798c13.23797,1.70362 15.7798,11.54614 15.7798,11.54614c0,0 2.10078,6.23823 -6.49561,6.64523c-8.5964,0.407 -13.13033,8.1488 -16.55126,0.22661z" data-paper-data="{&quot;index&quot;:null}"/><path d="M29.75085,290.11446c1.7214,-2.10054 6.47115,-13.07161 11.58809,-3.65178c3.0761,5.66282 2.0872,9.63665 1.00637,10.95554c-2.70994,3.30681 -4.4479,3.20325 -8.57112,-1.72461c-4.50182,-5.38034 -5.74474,-3.47861 -4.02334,-5.57916z" data-paper-data="{&quot;index&quot;:null}"/><path d="M33.25544,296.57874c3.7535,4.67589 -2.59483,7.68962 -2.59483,7.68962c0,0 -10.73408,3.99209 -17.97432,-2.12186c-7.24024,-6.11395 0.49703,-9.57096 7.05578,-11.47983c6.55875,-1.90887 9.75987,1.23618 13.51337,5.91207z" data-paper-data="{&quot;index&quot;:null}"/><path d="M10.84271,294.60778c-5.79265,3.3949 -13.06677,5.26545 -13.61254,-3.72316c-0.54578,-8.9886 8.37308,-14.71693 8.37308,-14.71693c0,0 6.13897,-3.29674 7.69351,2.32339c1.05241,3.80473 2.20998,8.28847 1.05075,11.84144c-0.55312,1.69527 -1.63368,3.17864 -3.50479,4.27525z" data-paper-data="{&quot;index&quot;:null}"/></g><g data-paper-data="{&quot;index&quot;:null}" fill="#635f6c" stroke-width="2"><path d="M419.71043,298.65341c0.42594,-1.68331 0.40961,-3.49703 -0.13862,-5.27788l-0.8549,-2.77702l-0.41797,0.12315c-0.36764,-0.54147 -0.78548,-1.04138 -1.24521,-1.4954c-0.04328,-0.6922 -0.11136,-1.38313 -0.20988,-2.0725c-0.18457,-1.2915 -2.37311,-1.26672 -3.31199,-2.1924c-0.76729,-0.75648 -1.19021,-1.76206 -1.64725,-2.74831c0.51896,0.37655 1.04238,0.80454 1.57162,1.28763c5.11313,4.66727 10.50336,10.96134 6.2542,15.15274z"/><path d="M414.85535,284.09256c-6.47267,-4.64963 -1.33239,-8.80928 -1.33239,-8.80928c0,0 7.50783,-6.95039 18.78384,-1.73754c11.27601,5.21285 2.43852,14.12864 -4.67638,19.03363c-7.11489,4.90499 -6.30239,-3.83719 -12.77507,-8.48682z" data-paper-data="{&quot;index&quot;:null}"/><path d="" data-paper-data="{&quot;index&quot;:null}"/><path d=""/><path d="" data-paper-data="{&quot;index&quot;:null}"/><path d="M436.84703,264.62818c-3.05383,-7.97389 -5.34488,-18.39125 6.9733,-16.48345c12.31819,1.9078 16.37143,15.68586 16.37143,15.68586c0,0 1.68682,8.69601 -6.33846,8.9702c-8.02528,0.27419 -13.95242,-0.19871 -17.00626,-8.1726z" data-paper-data="{&quot;index&quot;:null}"/><path d="M420.39959,271.54152c-7.79867,1.87272 -7.76099,-4.65339 -7.76099,-4.65339c0,0 -0.63078,-10.09336 10.69184,-15.20862c11.32261,-5.11525 12.64086,7.237 11.92033,15.72297c-0.72054,8.48597 -7.0525,2.26631 -14.85117,4.13903z" data-paper-data="{&quot;index&quot;:null}"/><path d="M447.6335,282.89582c-2.23048,5.80367 -3.7524,6.36024 -7.14778,3.90712c-1.35421,-0.97841 -3.40891,-4.52316 -2.33039,-10.75499c1.79404,-10.36635 9.27066,-1.11142 11.42747,0.44685c2.1568,1.55827 0.486,0.06445 -1.9493,6.40102z" data-paper-data="{&quot;index&quot;:null}"/><path d="M458.68588,274.38941c6.42126,0.10163 14.35158,1.37545 9.68644,9.13518c-4.66514,7.75973 -15.43007,6.76225 -15.43007,6.76225c0,0 -6.55898,-1.21492 -4.58448,-6.68003c1.97449,-5.4651 3.90684,-9.31903 10.3281,-9.2174z" data-paper-data="{&quot;index&quot;:null}"/><path d="M463.40607,272.6497c-2.08277,-3.09695 -2.37042,-7.69486 -2.55188,-11.61494c-0.26804,-5.79051 6.18736,-4.24949 6.18736,-4.24949c0,0 9.65526,3.13769 11.81729,11.88807c2.16203,8.75038 -4.88694,8.87374 -11.06191,7.14758c-1.99461,-0.55757 -3.39709,-1.69354 -4.39086,-3.17122z" data-paper-data="{&quot;index&quot;:null}"/></g><g data-paper-data="{&quot;index&quot;:null}" fill="#635f6c" stroke-width="2"><path d="M412.6134,279.60587c7.8638,1.59093 4.70583,9.88545 4.70583,9.88545c0,0 -6.36445,12.91474 -18.83513,12.76828c-12.47068,-0.14646 -8.42117,-10.03839 -4.03982,-17.39612c4.38134,-7.35773 10.30533,-6.84854 18.16912,-5.25761z"/><path d="M383.54835,297.55532c-8.25848,-2.68937 -19.34861,-8.73316 -10.0882,-16.90574c9.2604,-8.17258 18.49802,-3.63556 18.49802,-3.63556c0,0 6.14804,2.53276 1.3209,8.81093c-4.82715,6.27817 -1.47224,14.41974 -9.73072,11.73037z" data-paper-data="{&quot;index&quot;:null}"/><path d="M405.58285,275.67608c-2.39399,1.18114 -11.35534,9.07386 -11.34146,-1.44002c0.00835,-6.32051 2.64322,-9.47664 4.14637,-10.21826c3.76879,-1.85942 5.17331,-1.06034 6.37415,5.02769c1.31111,6.64704 3.21494,5.44944 0.82095,6.63058z" data-paper-data="{&quot;index&quot;:null}"/><path d="M405.23737,268.61636c-1.00671,-5.71216 5.66771,-5.83042 5.66771,-5.83042c0,0 10.78304,0.78821 14.04752,9.20507c3.26448,8.41686 -4.77186,8.36751 -11.1191,7.41101c-6.34724,-0.9565 -7.58942,-5.07349 -8.59613,-10.78565z"/><path d="M426.61931,278.82313c6.38378,-0.68541 13.31111,0.59616 9.67537,8.86608c-3.63575,8.26993 -13.69292,9.77403 -13.69292,9.77403c0,0 -6.62836,0.45676 -5.36855,-5.20714c0.85288,-3.83436 1.92697,-8.31942 4.51255,-11.0295c1.23369,-1.29309 2.81149,-2.18208 4.87355,-2.40348z" data-paper-data="{&quot;index&quot;:null}"/><path d="M352.6094,286.01493c-7.76517,2.00155 -8.71331,-6.80092 -8.71331,-6.80092c0,0 -0.18027,-14.33624 11.05225,-19.63819c11.23252,-5.30195 12.1095,5.31921 11.53584,13.8159c-0.57366,8.49669 -6.10961,10.62166 -13.87478,12.6232z" data-paper-data="{&quot;index&quot;:null}"/><path d="M368.83042,275.59787c-3.19132,-7.92219 -5.57011,-20.1216 6.77931,-18.41798c12.34941,1.70362 14.72063,11.54615 14.72063,11.54615c0,0 1.95978,6.23823 -6.05962,6.64522c-8.01939,0.407 -12.24901,8.1488 -15.44031,0.22661z" data-paper-data="{&quot;index&quot;:null}"/><path d="M357.78736,288.34725c1.60585,-2.10054 6.0368,-13.07161 10.81028,-3.65178c2.86963,5.66282 1.94711,9.63665 0.93882,10.95554c-2.52804,3.30681 -4.14934,3.20325 -7.99581,-1.72461c-4.19965,-5.38034 -5.35914,-3.47861 -3.75329,-5.57916z" data-paper-data="{&quot;index&quot;:null}"/><path d="M361.05672,294.81153c3.50155,4.67589 -2.42066,7.68962 -2.42066,7.68962c0,0 -10.01358,3.9921 -16.76786,-2.12185c-6.75427,-6.11395 0.46367,-9.57096 6.58219,-11.47983c6.11852,-1.90887 9.10478,1.23618 12.60634,5.91206z" data-paper-data="{&quot;index&quot;:null}"/><path d="M340.14837,292.84057c-5.40383,3.3949 -12.18972,5.26545 -12.69885,-3.72315c-0.50913,-8.9886 7.81106,-14.71693 7.81106,-14.71693c0,0 5.72691,-3.29674 7.17711,2.32339c0.98176,3.80473 2.06165,8.28847 0.98023,11.84145c-0.51599,1.69527 -1.52402,3.17864 -3.26955,4.27525z" data-paper-data="{&quot;index&quot;:null}"/></g><g data-paper-data="{&quot;index&quot;:null}" fill="#635f6c" stroke-width="2"><path d="M303.744,274.60587c7.8638,1.59093 4.70583,9.88545 4.70583,9.88545c0,0 -6.36445,12.91474 -18.83513,12.76828c-12.47068,-0.14646 -8.42117,-10.03839 -4.03983,-17.39612c4.38134,-7.35773 10.30533,-6.84854 18.16912,-5.25761z"/><path d="M274.67895,292.55532c-8.25848,-2.68937 -19.34861,-8.73316 -10.0882,-16.90574c9.2604,-8.17258 18.49802,-3.63556 18.49802,-3.63556c0,0 6.14804,2.53276 1.3209,8.81093c-4.82715,6.27817 -1.47224,14.41974 -9.73072,11.73037z" data-paper-data="{&quot;index&quot;:null}"/><path d="M296.71345,270.67608c-2.39399,1.18114 -11.35534,9.07386 -11.34146,-1.44002c0.00835,-6.32051 2.64322,-9.47664 4.14637,-10.21826c3.76879,-1.85942 5.17331,-1.06034 6.37415,5.02769c1.31111,6.64704 3.21494,5.44944 0.82095,6.63058z" data-paper-data="{&quot;index&quot;:null}"/><path d="M296.36798,263.61636c-1.00671,-5.71216 5.66771,-5.83042 5.66771,-5.83042c0,0 10.78304,0.78821 14.04752,9.20507c3.26448,8.41686 -4.77186,8.36751 -11.1191,7.41101c-6.34724,-0.9565 -7.58942,-5.07349 -8.59613,-10.78565z"/><path d="M317.74991,273.82313c6.38378,-0.68541 13.31111,0.59616 9.67537,8.86608c-3.63575,8.26993 -13.69292,9.77403 -13.69292,9.77403c0,0 -6.62836,0.45676 -5.36855,-5.20714c0.85288,-3.83436 1.92697,-8.31942 4.51256,-11.0295c1.23369,-1.29309 2.81149,-2.18208 4.87355,-2.40348z" data-paper-data="{&quot;index&quot;:null}"/><path d="M243.74001,281.01493c-7.76518,2.00155 -8.71331,-6.80092 -8.71331,-6.80092c0,0 -0.18027,-14.33624 11.05225,-19.63819c11.23252,-5.30195 12.1095,5.31921 11.53584,13.8159c-0.57366,8.49669 -6.10961,10.62166 -13.87478,12.6232z" data-paper-data="{&quot;index&quot;:null}"/><path d="M259.96102,270.59787c-3.19132,-7.92219 -5.57011,-20.12159 6.77931,-18.41798c12.34941,1.70362 14.72063,11.54614 14.72063,11.54614c0,0 1.95978,6.23823 -6.05962,6.64522c-8.01939,0.407 -12.24901,8.1488 -15.44031,0.22661z" data-paper-data="{&quot;index&quot;:null}"/><path d="M248.91797,283.34725c1.60585,-2.10054 6.0368,-13.07161 10.81028,-3.65178c2.86963,5.66282 1.94711,9.63665 0.93882,10.95554c-2.52804,3.30681 -4.14934,3.20325 -7.99581,-1.72461c-4.19965,-5.38034 -5.35914,-3.47861 -3.75329,-5.57916z" data-paper-data="{&quot;index&quot;:null}"/><path d="M252.18732,289.81153c3.50155,4.67589 -2.42067,7.68962 -2.42067,7.68962c0,0 -10.01358,3.9921 -16.76786,-2.12185c-6.75427,-6.11395 0.46367,-9.57096 6.58219,-11.47983c6.11852,-1.90887 9.10478,1.23618 12.60634,5.91206z" data-paper-data="{&quot;index&quot;:null}"/><path d="M231.27897,287.84057c-5.40383,3.3949 -12.18971,5.26545 -12.69885,-3.72315c-0.50914,-8.9886 7.81106,-14.71693 7.81106,-14.71693c0,0 5.72691,-3.29674 7.17711,2.32339c0.98176,3.80473 2.06165,8.28847 0.98023,11.84145c-0.51599,1.69527 -1.52403,3.17864 -3.26955,4.27525z" data-paper-data="{&quot;index&quot;:null}"/></g><g data-paper-data="{&quot;index&quot;:null}" fill="#635f6c" stroke-width="2"><path d="M193.88643,276.37307c7.86379,1.59093 4.70583,9.88545 4.70583,9.88545c0,0 -6.36445,12.91474 -18.83513,12.76828c-12.47068,-0.14646 -8.42117,-10.03839 -4.03983,-17.39612c4.38134,-7.35773 10.30533,-6.84854 18.16912,-5.25761z"/><path d="M164.82139,294.32253c-8.25847,-2.68937 -19.34861,-8.73316 -10.0882,-16.90574c9.2604,-8.17258 18.49802,-3.63556 18.49802,-3.63556c0,0 6.14804,2.53276 1.3209,8.81093c-4.82715,6.27817 -1.47225,14.41974 -9.73072,11.73037z" data-paper-data="{&quot;index&quot;:null}"/><path d="M186.85587,272.44329c-2.39399,1.18114 -11.35535,9.07386 -11.34146,-1.44002c0.00834,-6.32051 2.64323,-9.47664 4.14637,-10.21826c3.76879,-1.85942 5.17331,-1.06034 6.37415,5.02769c1.31111,6.64704 3.21494,5.44945 0.82095,6.63059z" data-paper-data="{&quot;index&quot;:null}"/><path d="M186.51041,265.38356c-1.00671,-5.71216 5.66771,-5.83042 5.66771,-5.83042c0,0 10.78304,0.78821 14.04752,9.20507c3.26448,8.41686 -4.77186,8.36752 -11.1191,7.41101c-6.34724,-0.9565 -7.58942,-5.0735 -8.59613,-10.78566z"/><path d="M207.89235,275.59034c6.38378,-0.68541 13.31111,0.59616 9.67537,8.86608c-3.63575,8.26993 -13.69292,9.77404 -13.69292,9.77404c0,0 -6.62836,0.45675 -5.36855,-5.20714c0.85288,-3.83436 1.92697,-8.31942 4.51255,-11.0295c1.23369,-1.29309 2.81149,-2.18208 4.87355,-2.40348z" data-paper-data="{&quot;index&quot;:null}"/><path d="M133.88243,282.78216c-7.76518,2.00155 -8.71331,-6.80092 -8.71331,-6.80092c0,0 -0.18027,-14.33624 11.05225,-19.63819c11.23252,-5.30195 12.1095,5.31921 11.53584,13.8159c-0.57366,8.49669 -6.10961,10.62166 -13.87478,12.62321z" data-paper-data="{&quot;index&quot;:null}"/><path d="M150.10345,272.36508c-3.19132,-7.92219 -5.57011,-20.1216 6.77931,-18.41798c12.34941,1.70362 14.72062,11.54614 14.72062,11.54614c0,0 1.95978,6.23823 -6.05962,6.64523c-8.01939,0.407 -12.24901,8.1488 -15.44031,0.22661z" data-paper-data="{&quot;index&quot;:null}"/><path d="M139.0604,285.11446c1.60585,-2.10054 6.0368,-13.07161 10.81028,-3.65178c2.86963,5.66282 1.94711,9.63665 0.93882,10.95554c-2.52804,3.30681 -4.14934,3.20325 -7.99581,-1.72461c-4.19965,-5.38034 -5.35914,-3.47861 -3.75329,-5.57916z" data-paper-data="{&quot;index&quot;:null}"/><path d="M142.32974,291.57874c3.50155,4.67589 -2.42066,7.68962 -2.42066,7.68962c0,0 -10.01359,3.99209 -16.76786,-2.12186c-6.75427,-6.11395 0.46367,-9.57096 6.58219,-11.47983c6.11852,-1.90887 9.10477,1.23618 12.60633,5.91207z" data-paper-data="{&quot;index&quot;:null}"/><path d="M121.4214,289.60778c-5.40383,3.3949 -12.18971,5.26545 -12.69885,-3.72316c-0.50914,-8.9886 7.81106,-14.71693 7.81106,-14.71693c0,0 5.72691,-3.29674 7.17711,2.32339c0.98176,3.80473 2.06164,8.28847 0.98023,11.84144c-0.51599,1.69527 -1.52402,3.17864 -3.26955,4.27525z" data-paper-data="{&quot;index&quot;:null}"/></g><g data-paper-data="{&quot;index&quot;:null}" fill="#635f6c" stroke-width="2"><path d="M314.27401,230.76982c7.8638,1.59092 4.70583,9.88545 4.70583,9.88545c0,0 -6.36445,12.91474 -18.83513,12.76828c-12.47068,-0.14646 -8.42117,-10.03838 -4.03982,-17.39611c4.38134,-7.35773 10.30532,-6.84853 18.16912,-5.25761z"/><path d="M285.20898,248.71927c-8.25848,-2.68937 -19.34861,-8.73316 -10.08821,-16.90574c9.2604,-8.17258 18.49803,-3.63556 18.49803,-3.63556c0,0 6.14804,2.53276 1.3209,8.81093c-4.82715,6.27817 -1.47224,14.41974 -9.73072,11.73037z" data-paper-data="{&quot;index&quot;:null}"/><path d="M307.24346,226.84002c-2.39399,1.18114 -11.35534,9.07386 -11.34146,-1.44001c0.00835,-6.3205 2.64322,-9.47665 4.14637,-10.21826c3.76879,-1.85942 5.17331,-1.06034 6.37415,5.02769c1.31111,6.64703 3.21494,5.44944 0.82095,6.63058z" data-paper-data="{&quot;index&quot;:null}"/><path d="M306.89799,219.78031c-1.00671,-5.71216 5.66771,-5.83043 5.66771,-5.83043c0,0 10.78304,0.78821 14.04752,9.20507c3.26448,8.41686 -4.77186,8.36751 -11.1191,7.41101c-6.34724,-0.9565 -7.58942,-5.07349 -8.59613,-10.78565z"/><path d="M328.27994,229.98708c6.38378,-0.68541 13.31111,0.59616 9.67536,8.86608c-3.63575,8.26993 -13.69292,9.77404 -13.69292,9.77404c0,0 -6.62836,0.45675 -5.36855,-5.20714c0.85288,-3.83436 1.92697,-8.31942 4.51256,-11.0295c1.23369,-1.29309 2.81149,-2.18208 4.87355,-2.40348z" data-paper-data="{&quot;index&quot;:null}"/><path d="M254.27003,237.1789c-7.76518,2.00154 -8.71331,-6.80092 -8.71331,-6.80092c0,0 -0.18027,-14.33623 11.05225,-19.63818c11.23252,-5.30195 12.1095,5.31921 11.53584,13.8159c-0.57366,8.49669 -6.10961,10.62166 -13.87478,12.62321z" data-paper-data="{&quot;index&quot;:null}"/><path d="M270.49103,226.76182c-3.19132,-7.92219 -5.57011,-20.1216 6.77931,-18.41798c12.34941,1.70362 14.72062,11.54614 14.72062,11.54614c0,0 1.95978,6.23822 -6.05962,6.64522c-8.01939,0.407 -12.24901,8.14881 -15.44031,0.22661z" data-paper-data="{&quot;index&quot;:null}"/><path d="M259.44798,239.5112c1.60585,-2.10054 6.03679,-13.07162 10.81028,-3.65178c2.86963,5.66281 1.94711,9.63665 0.93882,10.95555c-2.52804,3.30681 -4.14934,3.20325 -7.99581,-1.72461c-4.19965,-5.38034 -5.35914,-3.47862 -3.75329,-5.57916z" data-paper-data="{&quot;index&quot;:null}"/><path d="M262.71733,245.97547c3.50155,4.67589 -2.42067,7.68961 -2.42067,7.68961c0,0 -10.01358,3.9921 -16.76786,-2.12185c-6.75427,-6.11395 0.46368,-9.57095 6.58219,-11.47983c6.11852,-1.90887 9.10478,1.23618 12.60634,5.91207z" data-paper-data="{&quot;index&quot;:null}"/><path d="M241.80898,244.00451c-5.40383,3.3949 -12.18971,5.26544 -12.69885,-3.72316c-0.50914,-8.9886 7.81106,-14.71693 7.81106,-14.71693c0,0 5.72691,-3.29675 7.17711,2.32339c0.98176,3.80473 2.06164,8.28847 0.98023,11.84145c-0.51599,1.69527 -1.52403,3.17864 -3.26955,4.27525z" data-paper-data="{&quot;index&quot;:null}"/></g><g data-paper-data="{&quot;index&quot;:null}" fill="#635f6c" stroke-width="2"><path d="M405.61581,270.43075c-7.81687,2.2047 -8.52526,-8.61108 -8.52526,-8.61108c0,0 0.2097,-17.57175 11.58244,-23.70978c11.37274,-6.13803 11.96055,6.90392 11.156,17.2965c-0.80455,10.39258 -6.39632,12.81965 -14.21319,15.02436z"/><path d="M424.24429,235.79288c8.64788,-1.18309 21.30852,-0.06808 16.43008,13.69543c-4.87844,13.76352 -15.21007,13.38747 -15.21007,13.38747c0,0 -6.66649,0.29086 -4.99268,-9.1269c1.6738,-9.41778 -4.87522,-16.77292 3.77266,-17.956z" data-paper-data="{&quot;index&quot;:null}"/><path d="M413.68433,271.24694c1.66241,-2.52253 6.39018,-15.82386 10.90577,-4.12956c2.71459,7.03012 1.68433,11.86978 0.64053,13.45363c-2.61708,3.97114 -4.235,3.7925 -7.94608,-2.36826c-4.05183,-6.72645 -5.26263,-4.43327 -3.60022,-6.95581z" data-paper-data="{&quot;index&quot;:null}"/><path d="M417.03816,278.92001c3.37314,5.84102 -2.62895,9.34475 -2.62895,9.34475c0,0 -10.11861,4.57197 -16.7042,-3.13487c-6.58559,-7.70684 0.72381,-11.71237 6.89208,-13.85607c6.16827,-2.1437 9.06793,1.80517 12.44108,7.64619z"/><path d="M393.25096,278.37736c-5.49425,3.98732 -12.3286,6.06276 -12.5931,-4.9671c-0.2645,-11.02986 8.20856,-17.78324 8.20856,-17.78324c0,0 5.81454,-3.85673 7.11138,3.07582c0.87794,4.69321 1.8355,10.22153 0.65783,14.54044c-0.56192,2.06073 -1.60994,3.84612 -3.38467,5.13409z" data-paper-data="{&quot;index&quot;:null}"/><path d="M457.27311,232.98928c6.18019,-6.14829 10.83117,3.15753 10.83117,3.15753c0,0 6.33792,15.84516 -1.56536,27.41409c-7.90329,11.56893 -13.27302,0.20548 -16.41218,-9.52933c-3.13916,-9.73482 0.96618,-14.89399 7.14638,-21.04229z" data-paper-data="{&quot;index&quot;:null}"/><path d="M447.04879,252.76466c6.30619,7.19394 13.71764,19.55298 1.78424,23.89878c-11.9334,4.34582 -18.32291,-5.39714 -18.32291,-5.39714c0,0 -4.46404,-5.94427 2.63346,-10.4485c7.0975,-4.50424 7.59902,-15.24708 13.90522,-8.05314z" data-paper-data="{&quot;index&quot;:null}"/><path d="M451.57273,233.01285c-0.55168,3.14633 0.15501,17.58058 -8.23107,9.52125c-5.04136,-4.84493 -5.91622,-9.72837 -5.56983,-11.7039c0.86848,-4.95316 2.38344,-5.65722 7.99417,-2.12281c6.1259,3.85894 6.35841,1.15913 5.80673,4.30547z" data-paper-data="{&quot;index&quot;:null}"/><path d="M445.82368,227.47897c-5.18941,-3.42857 -1.11652,-9.77087 -1.11652,-9.77087c0,0 7.36197,-9.49702 16.12062,-6.11332c8.75864,3.3837 3.70158,10.8734 -1.02517,16.0867c-4.72676,5.2133 -8.78952,3.22606 -13.97894,-0.20251z" data-paper-data="{&quot;index&quot;:null}"/><path d="M465.63432,219.10592c3.43859,-6.50408 8.78709,-12.01198 13.1201,-2.27744c4.33302,9.73454 -0.74546,20.30597 -0.74546,20.30597c0,0 -3.77387,6.55821 -7.50957,1.04355c-2.52901,-3.73334 -5.43945,-8.17187 -5.98893,-12.66776c-0.26218,-2.14518 0.01315,-4.30342 1.12387,-6.40434z" data-paper-data="{&quot;index&quot;:null}"/></g><g data-paper-data="{&quot;index&quot;:null}" fill="#635f6c" stroke-width="2"><path d="M136.32191,242.33259c-4.28088,-7.41412 -8.1955,-17.35787 4.27606,-17.34198c12.47157,0.01588 18.6598,13.01233 18.6598,13.01233c0,0 3.04485,8.33489 -4.83987,9.82331c-7.88473,1.48842 -13.81511,1.92046 -18.09599,-5.49366z"/><path d="M135.16989,241.35605c4.74133,6.34045 -1.44062,8.79296 -1.44062,8.79296c0,0 -9.29851,4.41636 -18.44694,-3.87604c-9.14843,-8.2924 2.02294,-14.19128 10.31724,-16.77291c8.29431,-2.58164 4.82897,5.51554 9.57031,11.85599z" data-paper-data="{&quot;index&quot;:null}"/><path d="M146.42348,258.2835c-1.28353,6.07186 -2.69879,6.85259 -6.44196,4.94427c-1.49293,-0.76112 -4.08465,-3.95128 -4.00703,-10.27133c0.12911,-10.51313 8.98232,-2.50445 11.36004,-1.29225c2.37772,1.2122 0.49033,-0.01007 -0.91105,6.61931z" data-paper-data="{&quot;index&quot;:null}"/><path d="M155.63514,248.04597c6.35969,-0.8738 14.39599,-0.81852 11.01732,7.55509c-3.37867,8.37362 -14.17147,9.0214 -14.17147,9.0214c0,0 -6.67222,-0.20513 -5.58791,-5.90368c1.08432,-5.69855 2.38237,-9.79901 8.74205,-10.67281z"/><path d="M163.57151,246.32453c-2.54849,-2.7435 -3.56149,-7.24214 -4.36215,-11.08727c-1.18268,-5.6798 5.43889,-5.1368 5.43889,-5.1368c0,0 10.03584,1.63489 13.55878,9.95141c3.52295,8.31652 -3.4212,9.50781 -9.79509,8.73936c-2.05887,-0.24822 -3.62444,-1.15767 -4.84042,-2.46671z" data-paper-data="{&quot;index&quot;:null}"/><path d="M108.20827,253.43937c0.45805,8.50341 -0.56331,19.1122 -11.72272,13.66451c-11.15941,-5.4477 -10.78419,-19.78031 -10.78419,-19.78031c0,0 1.06777,-8.78934 8.80504,-6.6869c7.73727,2.10244 13.24381,4.2993 13.70186,12.8027z" data-paper-data="{&quot;index&quot;:null}"/><path d="M126.02017,251.69156c8.01315,0.51136 5.9687,6.72351 5.9687,6.72351c0,0 -2.50487,9.8108 -14.87636,11.35351c-12.37149,1.54271 -9.82699,-10.62465 -6.52821,-18.5046c3.29878,-7.87995 7.42273,-0.08378 15.43587,0.42758z" data-paper-data="{&quot;index&quot;:null}"/><path d="M103.54446,232.84217c3.91315,-4.87735 5.53573,-4.95981 8.01857,-1.62038c0.99026,1.33191 1.85863,5.3174 -1.08775,10.94235c-4.90118,9.35686 -9.18252,-1.67092 -10.75965,-3.79218c-1.57714,-2.12126 -0.44361,-0.20461 3.82884,-5.5298z" data-paper-data="{&quot;index&quot;:null}"/><path d="M90.38698,237.69827c-6.09201,-1.98835 -13.26229,-5.539 -6.42547,-11.56449c6.83683,-6.02549 16.79522,-1.9034 16.79522,-1.9034c0,0 5.88072,3.09055 2.31588,7.72045c-3.56485,4.6299 -6.59362,7.73578 -12.68563,5.74744z" data-paper-data="{&quot;index&quot;:null}"/><path d="M85.35041,237.96687c1.03299,3.56673 -0.10777,8.03602 -1.14119,11.82764c-1.52651,5.60076 -7.20807,2.22976 -7.20807,2.22976c0,0 -8.24155,-5.83613 -7.61021,-14.81731c0.63134,-8.98118 7.39119,-7.02247 12.74837,-3.55752c1.73046,1.11924 2.71823,2.6156 3.21112,4.31743z" data-paper-data="{&quot;index&quot;:null}"/></g><g data-paper-data="{&quot;index&quot;:null}" fill="#635f6c" stroke-width="2"><path d="M19.83268,258.43183c-7.94731,1.12572 -7.86732,-7.72513 -7.86732,-7.72513c0,0 1.48536,-14.26348 13.26075,-18.28296c11.77539,-4.01949 11.41358,6.63039 9.85714,15.00834c-1.55644,8.37795 -7.30325,9.87403 -15.25056,10.99975z"/><path d="M40.90652,231.86756c8.70095,-0.22458 21.23245,1.76055 15.37276,12.53106c-5.8597,10.7705 -16.12474,9.58443 -16.12474,9.58443c0,0 -6.66228,-0.33171 -4.3107,-7.84332c2.35157,-7.51161 -3.63826,-14.04758 5.06269,-14.27216z" data-paper-data="{&quot;index&quot;:null}"/><path d="M27.81124,259.78278c1.83933,-1.90851 7.51536,-12.3162 11.1643,-2.4269c2.19359,5.94504 0.81568,9.79064 -0.33921,10.98896c-2.89561,3.0045 -4.49441,2.72144 -7.74383,-2.60195c-3.5478,-5.81218 -4.92058,-4.05161 -3.08125,-5.96012z" data-paper-data="{&quot;index&quot;:null}"/><path d="M30.59494,266.30485c2.93601,5.03472 -3.29779,7.37086 -3.29779,7.37086c0,0 -10.41227,2.85355 -16.41299,-3.97136c-6.00072,-6.82491 1.57187,-9.45749 7.87242,-10.67412c6.30055,-1.21663 8.90233,2.2399 11.83835,7.27462z"/><path d="M6.93758,263.8367c-5.76301,2.77245 -12.72215,3.87684 -12.18441,-5.11016c0.53775,-8.98701 9.46918,-13.75372 9.46918,-13.75372c0,0 6.0726,-2.63904 6.86092,3.10587c0.53367,3.88921 1.086,8.46392 -0.40092,11.87373c-0.70947,1.62696 -1.88321,2.98872 -3.74476,3.88428z" data-paper-data="{&quot;index&quot;:null}"/><path d="M74.01345,232.40363c6.60333,-4.47033 10.56064,3.48928 10.56064,3.48928c0,0 5.16279,13.41819 -3.55084,22.14727c-8.71364,8.72908 -13.2375,-0.96411 -15.65756,-9.14354c-2.42007,-8.17944 2.04444,-12.02268 8.64777,-16.49301z" data-paper-data="{&quot;index&quot;:null}"/><path d="M62.39147,247.60467c5.75964,6.38425 12.24513,17.06059 0.0414,19.57568c-12.20373,2.51509 -17.86121,-5.94795 -17.86121,-5.94795c0,0 -4.01528,-5.2116 3.38244,-8.26756c7.39772,-3.05596 8.67773,-11.74443 14.43737,-5.36017z" data-paper-data="{&quot;index&quot;:null}"/><path d="M68.33303,231.937c-0.77814,2.51015 -1.12267,14.30175 -8.89142,7.03691c-4.67025,-4.36732 -5.18704,-8.41086 -4.69846,-9.98694c1.22498,-3.95165 2.78534,-4.39476 8.11799,-1.04405c5.8223,3.65838 6.25003,1.48393 5.4719,3.99408z" data-paper-data="{&quot;index&quot;:null}"/><path d="M63.00783,226.94944c-4.92062,-3.22879 -0.40249,-8.03637 -0.40249,-8.03637c0,0 8.02387,-7.09128 16.50342,-3.5948c8.47955,3.49649 2.89765,9.15275 -2.18985,12.98703c-5.08749,3.83428 -8.99046,1.87293 -13.91109,-1.35586z" data-paper-data="{&quot;index&quot;:null}"/><path d="M83.3514,221.8325c3.89799,-4.99313 9.62626,-9.01385 13.23567,-0.7329c3.6094,8.28096 -2.21769,16.44007 -2.21769,16.44007c0,0 -4.23593,5.00856 -7.55684,0.20819c-2.2482,-3.24976 -4.82515,-7.10519 -5.04595,-10.80603c-0.10536,-1.76583 0.3257,-3.49647 1.58482,-5.10933z" data-paper-data="{&quot;index&quot;:null}"/></g><path d="M31.50182,236.67079c-8.9297,-12.99436 -17.16317,-30.45451 8.38992,-30.64634c25.5531,-0.19183 38.51024,22.6096 38.51024,22.6096c0,0 6.41697,14.63932 -9.70604,17.40214c-16.12301,2.76281 -28.26441,3.62896 -37.19412,-9.3654z" data-paper-data="{&quot;index&quot;:null}" fill="#b8b0c7" stroke-width="2"/><path d="M1.40963,226.24413c-3.06925,-14.54367 7.52656,-16.53137 7.52656,-16.53137c0,0 16.38508,-4.41149 24.73184,15.9472c8.34676,20.3587 -11.70328,26.8177 -25.48362,28.09909c-13.78033,1.28138 -3.70553,-12.97125 -6.77479,-27.51493z" data-paper-data="{&quot;index&quot;:null}" fill="#b8b0c7" stroke-width="2"/><path d="M52.54016,267.3512c-2.49983,12.46681 -5.38284,14.09543 -13.09298,10.2622c-3.07513,-1.52886 -8.45352,-8.012 -8.42978,-20.96262c0.03949,-21.54278 18.35009,-5.31534 23.24771,-2.88041c4.8976,2.43493 1.00442,-0.03068 -1.72494,13.58083z" data-paper-data="{&quot;index&quot;:null}" fill="#b8b0c7" stroke-width="2"/><path d="M58.11763,269.8474c-9.29263,-7.71085 2.46539,-17.25582 2.46539,-17.25582c0,0 20.28101,-13.8568 37.15276,-4.99157c16.87175,8.86523 2.46292,20.05165 -10.12148,27.42164c-12.58439,7.36998 -20.20404,2.53661 -29.49668,-5.17424z" data-paper-data="{&quot;index&quot;:null}" fill="#b8b0c7" stroke-width="2"/><path d="M116.42866,235.85594c-5.41873,4.93301 -14.69751,7.27789 -22.63647,9.16385c-11.72695,2.78582 -11.41464,-9.28921 -11.41464,-9.28921c0,0 2.17067,-18.39272 19.11902,-25.72173c16.94836,-7.32901 20.30174,5.13585 19.48736,16.7869c-0.26307,3.76348 -1.96976,6.70645 -4.55527,9.06019z" data-paper-data="{&quot;index&quot;:null}" fill="#b8b0c7" stroke-width="2"/><path d="M9.92326,253.71306c10.80078,-2.29392 24.52919,-2.81879 19.33843,14.59343c-5.19075,17.41222 -23.57816,19.59534 -23.57816,19.59534c0,0 -11.40919,0.10974 -9.95168,-11.64343c1.4575,-11.75317 3.39064,-20.25142 14.19141,-22.54534z" data-paper-data="{&quot;index&quot;:null}" fill="#b8b0c7" stroke-width="2"/><g data-paper-data="{&quot;index&quot;:null}" fill="#635f6c" stroke-width="2"><path d="M319.27345,243.99909c7.88473,1.48842 4.83987,9.82331 4.83987,9.82331c0,0 -6.18823,12.99644 -18.6598,13.01233c-12.47157,0.01589 -8.55695,-9.92787 -4.27607,-17.34198c4.28088,-7.41412 10.21127,-6.98208 18.096,-5.49366z"/><path d="M290.45511,262.32529c-8.29431,-2.58164 -19.46568,-8.48052 -10.31725,-16.77292c9.14843,-8.2924 18.44694,-3.87604 18.44694,-3.87604c0,0 6.18194,2.45251 1.44061,8.79296c-4.74132,6.34045 -1.27599,14.43763 -9.57031,11.856z" data-paper-data="{&quot;index&quot;:null}"/><path d="M312.19007,240.16116c-2.37772,1.2122 -11.23094,9.22087 -11.36004,-1.29225c-0.07762,-6.32005 2.5141,-9.51022 4.00703,-10.27133c3.74315,-1.90832 5.15843,-1.12759 6.44196,4.94427c1.40138,6.62938 3.28877,5.40712 0.91105,6.61932z" data-paper-data="{&quot;index&quot;:null}"/><path d="M311.74861,233.10657c-1.08432,-5.69855 5.58791,-5.90368 5.58791,-5.90368c0,0 10.79281,0.64778 14.17148,9.0214c3.37867,8.37362 -4.65764,8.42889 -11.01732,7.55509c-6.35968,-0.8738 -7.65775,-4.97425 -8.74207,-10.67281z"/><path d="M333.26748,243.03409c6.37389,-0.76845 13.31804,0.42284 9.79509,8.73936c-3.52295,8.31652 -13.55877,9.95141 -13.55877,9.95141c0,0 -6.62157,0.543 -5.43889,-5.1368c0.80066,-3.84512 1.81366,-8.34377 4.36215,-11.08727c1.21599,-1.30903 2.78156,-2.21849 4.84043,-2.46671z" data-paper-data="{&quot;index&quot;:null}"/><path d="M259.36195,251.18868c-7.73727,2.10244 -8.80504,-6.68689 -8.80504,-6.68689c0,0 -0.37524,-14.33262 10.78419,-19.78032c11.15941,-5.4477 12.18077,5.16111 11.72271,13.66451c-0.45804,8.5034 -5.96458,10.70025 -13.70186,12.8027z" data-paper-data="{&quot;index&quot;:null}"/><path d="M275.43983,240.56137c-3.29879,-7.87995 -5.84328,-20.04731 6.52821,-18.5046c12.37149,1.54271 14.87636,11.3535 14.87636,11.3535c0,0 2.04445,6.21216 -5.9687,6.72352c-8.01315,0.51136 -12.13709,8.30753 -15.43588,0.42758z" data-paper-data="{&quot;index&quot;:null}"/><path d="M264.57116,253.45338c1.57715,-2.12126 5.85847,-13.14904 10.75965,-3.79218c2.94638,5.62496 2.07801,9.61045 1.08775,10.94236c-2.48284,3.33943 -4.10542,3.25697 -8.01857,-1.62038c-4.27244,-5.32519 -5.40598,-3.40854 -3.82883,-5.5298z" data-paper-data="{&quot;index&quot;:null}"/><path d="M267.92814,259.87451c3.56485,4.62989 -2.31588,7.72045 -2.31588,7.72045c0,0 -9.9584,4.12209 -16.79522,-1.9034c-6.83683,-6.02549 0.33345,-9.57614 6.42546,-11.56449c6.09202,-1.98835 9.12079,1.11755 12.68563,5.74744z" data-paper-data="{&quot;index&quot;:null}"/><path d="M246.99483,258.17591c-5.35718,3.46495 -12.11702,5.42365 -12.74837,-3.55753c-0.63134,-8.98118 7.61022,-14.81731 7.61022,-14.81731c0,0 5.68157,-3.371 7.20807,2.22976c1.03342,3.79162 2.1742,8.2609 1.14119,11.82764c-0.49288,1.70183 -1.48065,3.1982 -3.21112,4.31744z" data-paper-data="{&quot;index&quot;:null}"/></g><g data-paper-data="{&quot;index&quot;:null}" fill="#635f6c" stroke-width="2"><path d="M199.93877,244.39326c1.55644,8.37796 1.91825,19.02783 -9.85714,15.00834c-11.77539,-4.01949 -13.26075,-18.28296 -13.26075,-18.28296c0,0 -0.07997,-8.85085 7.86733,-7.72513c7.94731,1.12572 13.69412,2.62179 15.25056,10.99975z"/><path d="M200.69937,245.68562c-2.35157,-7.51161 4.3107,-7.84332 4.3107,-7.84332c0,0 10.26504,-1.18608 16.12474,9.58443c5.8597,10.77051 -6.6718,12.75564 -15.37275,12.53105c-8.70095,-0.22458 -2.71112,-6.76055 -5.06269,-14.27216z" data-paper-data="{&quot;index&quot;:null}"/><path d="M195.74802,226.08245c3.24944,-5.32339 4.84823,-5.60644 7.74384,-2.60195c1.15489,1.19832 2.53279,5.04392 0.33921,10.98896c-3.64893,9.88931 -9.32496,-0.51839 -11.1643,-2.4269c-1.83933,-1.90851 -0.46655,-0.14793 3.08125,-5.96012z" data-paper-data="{&quot;index&quot;:null}"/><path d="M183.61212,232.79512c-6.30054,-1.21663 -13.87313,-3.84921 -7.87241,-10.67412c6.00071,-6.82492 16.41299,-3.97136 16.41299,-3.97136c0,0 6.23379,2.33614 3.29779,7.37086c-2.93601,5.03472 -5.53781,8.49125 -11.83835,7.27462z"/><path d="M175.53787,231.87292c1.48693,3.40982 0.9346,7.98453 0.40093,11.87374c-0.78832,5.74491 -6.86092,3.10587 -6.86092,3.10587c0,0 -8.93142,-4.76671 -9.46917,-13.75372c-0.53774,-8.98701 6.42139,-7.88262 12.18441,-5.11017c1.86154,0.89555 3.03528,2.25731 3.74476,3.88428z" data-paper-data="{&quot;index&quot;:null}"/><path d="M230.22122,242.9287c2.42007,-8.17944 6.94394,-17.87263 15.65757,-9.14354c8.71364,8.72908 3.55083,22.14728 3.55083,22.14728c0,0 -3.9573,7.95961 -10.56063,3.48928c-6.60333,-4.47033 -11.06785,-8.31357 -8.64778,-16.49301z" data-paper-data="{&quot;index&quot;:null}"/><path d="M212.80963,238.8605c-7.39772,-3.05596 -3.38244,-8.26755 -3.38244,-8.26755c0,0 5.65747,-8.46304 17.86121,-5.94795c12.20373,2.51509 5.71824,13.19143 -0.0414,19.57568c-5.75964,6.38425 -7.03965,-2.30422 -14.43737,-5.36017z" data-paper-data="{&quot;index&quot;:null}"/><path d="M227.71667,263.88243c-5.33265,3.35071 -6.89302,2.9076 -8.11799,-1.04405c-0.48857,-1.57608 0.02822,-5.61962 4.69846,-9.98694c7.76876,-7.26484 8.11329,4.52675 8.89142,7.03691c0.77814,2.51015 0.3504,0.33571 -5.4719,3.99409z" data-paper-data="{&quot;index&quot;:null}"/><path d="M241.77444,263.52005c5.0875,3.83428 10.66941,9.49054 2.18986,12.98703c-8.47955,3.49649 -16.50343,-3.5948 -16.50343,-3.5948c0,0 -4.51813,-4.80758 0.40249,-8.03637c4.92062,-3.22879 8.82358,-5.19014 13.91109,-1.35586z" data-paper-data="{&quot;index&quot;:null}"/><path d="M246.62212,264.8835c0.2208,-3.70085 2.79775,-7.55626 5.04595,-10.80603c3.32092,-4.80036 7.55684,0.20819 7.55684,0.20819c0,0 5.82709,8.15911 2.21769,16.44006c-3.6094,8.28096 -9.33767,4.26024 -13.23567,-0.73289c-1.25912,-1.61286 -1.69017,-3.3435 -1.58481,-5.10933z" data-paper-data="{&quot;index&quot;:null}"/></g><path d="M233.55148,246.06356c16.12301,3.21113 9.70604,20.22594 9.70604,20.22594c0,0 -12.95715,26.50137 -38.51024,26.27841c-25.55309,-0.22296 -17.31962,-20.51633 -8.38992,-35.61925c8.9297,-15.10292 21.07111,-14.09623 37.19413,-10.8851z" data-paper-data="{&quot;index&quot;:null}" fill="#b8b0c7" stroke-width="2"/><path d="M174.11388,283.02134c-16.9388,-5.45938 -39.70129,-17.77437 -20.77976,-34.57707c18.92154,-16.80271 37.87854,-7.5636 37.87854,-7.5636c0,0 12.61355,5.15156 2.76343,18.04524c-9.85013,12.89368 -2.92341,29.55482 -19.86221,24.09544z" data-paper-data="{&quot;index&quot;:null}" fill="#b8b0c7" stroke-width="2"/><path d="M219.12064,237.58914c-4.8976,2.57413 -23.20821,19.72921 -23.24771,-3.04507c-0.02373,-13.69095 5.35466,-20.5447 8.42978,-22.16096c7.71013,-4.05237 10.59314,-2.33064 13.09298,10.84884c2.72937,14.38962 6.62256,11.78306 1.72494,14.35719z" data-paper-data="{&quot;index&quot;:null}" fill="#b8b0c7" stroke-width="2"/><path d="M252.46984,212.48883c12.5844,8.4166 26.99323,21.19162 10.12148,31.3158c-16.87175,10.12418 -37.15276,-5.70042 -37.15276,-5.70042c0,0 -11.75802,-10.90045 -2.46539,-19.70633c9.29263,-8.80588 16.91228,-14.32564 29.49668,-5.90904z" data-paper-data="{&quot;index&quot;:null}" fill="#b8b0c7" stroke-width="2"/><path d="M262.24422,244.37311c13.07578,-1.44386 27.27801,1.1392 19.88188,18.10657c-7.39611,16.96737 -27.99331,20.11145 -27.99331,20.11145c0,0 -13.57843,0.97688 -11.03369,-10.6361c1.72274,-7.86179 3.89457,-17.05822 9.17485,-22.6271c2.51944,-2.65715 5.74658,-4.48843 9.97026,-4.95482z" data-paper-data="{&quot;index&quot;:null}" fill="#b8b0c7" stroke-width="2"/><path d="M116.27767,255.22961c1.44354,-6.02036 10.7319,-25.01045 20.57355,-5.73895c5.91638,11.58522 4.05187,19.73323 1.99444,22.44185c-5.15852,6.79122 -8.48123,6.58904 -16.39439,-3.48424c-3.40762,-3.61753 -7.99407,-5.62624 -6.1736,-13.21866z" data-paper-data="{&quot;index&quot;:null}" fill="#b8b0c7" stroke-width="2"/><path d="M121.73757,268.64862c7.20482,9.55913 -4.91022,15.77082 -4.91022,15.77082c0,0 -20.4918,8.24165 -34.37065,-4.24392c-13.87885,-12.48557 0.88819,-19.61353 13.41257,-23.56261c12.52438,-3.94907 18.66348,2.47658 25.86829,12.03571z" data-paper-data="{&quot;index&quot;:null}" fill="#b8b0c7" stroke-width="2"/><g data-paper-data="{&quot;index&quot;:null}" fill="#635f6c" stroke-width="2"><path d="M349.30718,250.14895c-0.80455,-8.47875 -0.21675,-19.11898 11.15599,-14.11129c11.37274,5.00769 11.58245,19.34354 11.58245,19.34354c0,0 -0.7084,8.82403 -8.52526,7.02532c-7.81687,-1.7987 -13.40862,-3.77883 -14.21318,-12.25757z"/><path d="M348.66454,248.79668c1.6738,7.68345 -4.99268,7.44615 -4.99268,7.44615c0,0 -10.33163,0.3068 -15.21006,-10.92212c-4.87844,-11.22892 7.7822,-12.13859 16.43008,-11.17337c8.64788,0.96522 2.09886,6.96589 3.77266,14.64935z" data-paper-data="{&quot;index&quot;:null}"/><path d="M351.85162,268.74728c-3.71107,5.02623 -5.329,5.17197 -7.94608,1.93214c-1.0438,-1.29219 -2.07405,-5.2406 0.64053,-10.9761c4.5156,-9.54075 9.24336,1.31108 10.90576,3.36908c1.66241,2.058 0.45162,0.18713 -3.60021,5.67488z" data-paper-data="{&quot;index&quot;:null}"/><path d="M364.53907,263.09434c6.16827,1.74893 13.47767,5.01682 6.89208,11.30442c-6.58558,6.2876 -16.7042,2.55757 -16.7042,2.55757c0,0 -6.0021,-2.8585 -2.62895,-7.62387c3.37314,-4.76538 6.27281,-7.98705 12.44108,-6.23812z"/><path d="M372.50053,264.70111c-1.17767,-3.52357 -0.22011,-8.03382 0.65783,-11.86276c1.29684,-5.65589 7.11139,-2.50939 7.11139,-2.50939c0,0 8.47305,5.50972 8.20855,14.50839c-0.2645,8.99867 -7.09885,7.30543 -12.59309,4.0524c-1.77473,-1.05079 -2.82276,-2.50739 -3.38467,-4.18863z" data-paper-data="{&quot;index&quot;:null}"/><path d="M319.00944,249.02731c-3.13916,7.94211 -8.5089,17.21294 -16.41218,7.77447c-7.90329,-9.43847 -1.56537,-22.36569 -1.56537,-22.36569c0,0 4.65098,-7.59213 10.83118,-2.57606c6.18019,5.01606 10.28554,9.22516 7.14638,17.16728z" data-paper-data="{&quot;index&quot;:null}"/><path d="M335.99261,254.56384c7.0975,3.67476 2.63345,8.52437 2.63345,8.52437c0,0 -6.3895,7.94875 -18.32291,4.40324c-11.9334,-3.54552 -4.52196,-13.62859 1.78424,-19.49775c6.30619,-5.86916 6.80773,2.89537 13.90523,6.57014z" data-paper-data="{&quot;index&quot;:null}"/><path d="M323.37017,228.36666c5.61073,-2.88353 7.12571,-2.30914 7.99417,1.73189c0.34638,1.61173 -0.52848,5.59586 -5.56983,9.54859c-8.38607,6.57518 -7.6794,-5.20095 -8.23107,-7.76788c-0.55168,-2.56692 -0.31917,-0.36429 5.80673,-3.5126z" data-paper-data="{&quot;index&quot;:null}"/><path d="M309.33356,227.52968c-4.72676,-4.25325 -9.78382,-10.3637 -1.02517,-13.12428c8.75864,-2.76058 16.12062,4.98753 16.12062,4.98753c0,0 4.0729,5.17434 -1.11652,7.97153c-5.18941,2.79719 -9.25218,4.41848 -13.97894,0.16522z" data-paper-data="{&quot;index&quot;:null}"/><path d="M304.62571,225.75829c-0.54948,3.66796 -3.45992,7.28912 -5.98893,10.33495c-3.7357,4.49911 -7.50957,-0.85138 -7.50957,-0.85138c0,0 -5.07847,-8.62467 -0.74546,-16.56656c4.33302,-7.94189 9.68151,-3.4483 13.1201,1.85804c1.11073,1.71403 1.38604,3.47483 1.12387,5.22496z" data-paper-data="{&quot;index&quot;:null}"/></g><g data-paper-data="{&quot;index&quot;:null}" fill="#635f6c" stroke-width="2"><path d="M392.64241,260.26217c-7.81687,1.7987 -8.52526,-7.02532 -8.52526,-7.02532c0,0 0.2097,-14.33585 11.58244,-19.34354c11.37274,-5.00769 11.96055,5.63254 11.156,14.11128c-0.80455,8.47874 -6.39632,10.45887 -14.21319,12.25758z"/><path d="M411.27089,232.00298c8.64788,-0.96522 21.30852,-0.05554 16.43008,11.17338c-4.87844,11.22892 -15.21007,10.92212 -15.21007,10.92212c0,0 -6.66649,0.23731 -4.99268,-7.44615c1.6738,-7.68346 -4.87522,-13.68413 3.77266,-14.64935z" data-paper-data="{&quot;index&quot;:null}"/><path d="M400.71094,260.92805c1.66241,-2.058 6.39018,-12.90984 10.90577,-3.36909c2.71459,5.7355 1.68433,9.68392 0.64053,10.9761c-2.61708,3.23984 -4.235,3.0941 -7.94608,-1.93214c-4.05183,-5.48775 -5.26263,-3.61687 -3.60022,-5.67487z" data-paper-data="{&quot;index&quot;:null}"/><path d="M404.06477,267.18809c3.37314,4.76538 -2.62895,7.62388 -2.62895,7.62388c0,0 -10.11861,3.73003 -16.7042,-2.55758c-6.58559,-6.2876 0.72381,-9.5555 6.89208,-11.30442c6.16827,-1.74893 9.06793,1.47274 12.44108,6.23812z"/><path d="M380.27756,266.74539c-5.49425,3.25304 -12.3286,4.94628 -12.5931,-4.0524c-0.2645,-8.99867 8.20856,-14.50839 8.20856,-14.50839c0,0 5.81454,-3.1465 7.11138,2.5094c0.87794,3.82895 1.8355,8.33919 0.65783,11.86276c-0.56192,1.68124 -1.60994,3.13785 -3.38467,4.18863z" data-paper-data="{&quot;index&quot;:null}"/><path d="M444.29972,229.71568c6.18019,-5.01606 10.83117,2.57606 10.83117,2.57606c0,0 6.33792,12.92722 -1.56536,22.36569c-7.90329,9.43847 -13.27302,0.16764 -16.41218,-7.77447c-3.13916,-7.94212 0.96618,-12.15121 7.14638,-17.16727z" data-paper-data="{&quot;index&quot;:null}"/><path d="M434.0754,245.84934c6.30619,5.86915 13.71764,15.95223 1.78424,19.49774c-11.9334,3.54552 -18.32291,-4.40324 -18.32291,-4.40324c0,0 -4.46404,-4.84961 2.63346,-8.52438c7.0975,-3.67477 7.59902,-12.43928 13.90522,-6.57013z" data-paper-data="{&quot;index&quot;:null}"/><path d="M438.59933,229.7349c-0.55168,2.56692 0.15501,14.34306 -8.23107,7.76788c-5.04136,-3.95272 -5.91622,-7.93686 -5.56983,-9.54859c0.86848,-4.04102 2.38344,-4.61542 7.99417,-1.73189c6.1259,3.1483 6.35841,0.94567 5.80673,3.5126z" data-paper-data="{&quot;index&quot;:null}"/><path d="M432.85028,225.22011c-5.18941,-2.79719 -1.11652,-7.97153 -1.11652,-7.97153c0,0 7.36197,-7.74811 16.12062,-4.98753c8.75864,2.76058 3.70158,8.87103 -1.02517,13.12428c-4.72676,4.25325 -8.78952,2.63197 -13.97894,-0.16522z" data-paper-data="{&quot;index&quot;:null}"/><path d="M452.66092,218.38897c3.43859,-5.30633 8.78709,-9.79993 13.1201,-1.85804c4.33302,7.94189 -0.74546,16.56656 -0.74546,16.56656c0,0 -3.77387,5.35049 -7.50957,0.85138c-2.52901,-3.04583 -5.43945,-6.66698 -5.98893,-10.33494c-0.26218,-1.75014 0.01315,-3.51093 1.12387,-5.22496z" data-paper-data="{&quot;index&quot;:null}"/></g><path d="M315.97096,246.0362c-15.77581,-4.01369 -7.86824,-18.41102 -7.86824,-18.41102c0,0 15.26756,-22.20294 40.70366,-20.09669c25.43611,2.10626 15.42704,19.2344 5.18653,31.77209c-10.24051,12.53769 -22.24613,10.74931 -38.02194,6.73563z" data-paper-data="{&quot;index&quot;:null}" fill="#b8b0c7" stroke-width="2"/><path d="M378.47332,212.00139c16.38831,7.17237 37.96777,21.97953 17.62206,37.74383c-20.3457,15.7643 -38.40801,4.48854 -38.40801,4.48854c0,0 -12.10691,-6.46866 -1.14619,-18.98021c10.96074,-12.51155 5.54383,-30.42452 21.93214,-23.25215z" data-paper-data="{&quot;index&quot;:null}" fill="#b8b0c7" stroke-width="2"/><path d="M329.63387,254.82849c5.0958,-2.00831 24.78168,-16.61366 22.90287,4.8506c-1.12946,12.90341 -7.06466,18.90358 -10.26423,20.16456c-8.02214,3.16161 -10.74918,1.2935 -12.12947,-11.33895c-1.50704,-13.79236 -5.60495,-11.6679 -0.50916,-13.67621z" data-paper-data="{&quot;index&quot;:null}" fill="#b8b0c7" stroke-width="2"/><path d="M329.09671,269.30078c1.05011,11.83232 -12.59814,10.94948 -12.59814,10.94948c0,0 -21.87744,-3.42571 -27.06129,-21.16064c-5.18384,-17.73493 11.21557,-16.28047 24.00665,-13.25835c12.79107,3.02212 14.60267,11.63719 15.65278,23.46951z" data-paper-data="{&quot;index&quot;:null}" fill="#b8b0c7" stroke-width="2"/><path d="M290.2013,245.82618c-13.15464,0.32407 -27.07288,-3.45947 -18.19412,-19.73205c8.87876,-16.27258 29.67761,-17.64945 29.67761,-17.64945c0,0 13.6138,0.18396 10.04472,11.53594c-2.41621,7.6851 -5.39862,16.6615 -11.15468,21.75923c-2.74646,2.43234 -6.12437,3.98165 -10.37354,4.08633z" data-paper-data="{&quot;index&quot;:null}" fill="#b8b0c7" stroke-width="2"/><path d="M439.61147,237.80884c16.20674,-2.77859 16.59334,15.35346 16.59334,15.35346c0,0 -2.15514,29.30122 -26.02216,38.23431c-23.86703,8.93309 -23.78827,-12.90027 -21.12155,-30.15166c2.66671,-17.25139 14.34364,-20.65751 30.55037,-23.4361z" data-paper-data="{&quot;index&quot;:null}" fill="#b8b0c7" stroke-width="2"/><path d="M404.65899,261.1791c5.12153,16.71263 7.83127,42.02135 -17.08317,36.46275c-24.91445,-5.5586 -28.02355,-26.0539 -28.02355,-26.0539c0,0 -2.90342,-13.06696 13.54172,-12.54709c16.44514,0.51988 26.44348,-14.57439 31.565,2.13824z" data-paper-data="{&quot;index&quot;:null}" fill="#b8b0c7" stroke-width="2"/><path d="M425.34663,234.40279c-1.9741,5.87446 -12.91803,24.00082 -21.00633,3.96388c-4.86235,-12.04538 -2.27944,-20.00351 0.01135,-22.52651c5.7436,-6.3258 9.03567,-5.84123 16.02183,4.86811c3.07256,3.89417 7.46273,6.2861 4.97315,13.69452z" data-paper-data="{&quot;index&quot;:null}" fill="#b8b0c7" stroke-width="2"/><path d="M424.27736,223.49354c-7.24307,-9.51794 7.20812,-14.35885 7.20812,-14.35885c0,0 24.21237,-6.06942 38.76925,6.7199c14.55689,12.78932 -3.01249,18.27509 -17.6999,20.96683c-14.68742,2.69174 -21.03439,-3.80993 -28.27747,-13.32788z" data-paper-data="{&quot;index&quot;:null}" fill="#b8b0c7" stroke-width="2"/><path d="M459.07264,259.42039c-3.46265,-11.6707 -4.71499,-25.6657 7.00346,-24.19545c11.71844,1.47024 17.69843,19.57784 17.69843,19.57784c0,0 3.28003,12.28533 -4.24176,13.61424c-5.09213,0.89966 -11.07974,1.80675 -15.49096,-1.32213c-2.10477,-1.49291 -3.85067,-3.90467 -4.96916,-7.6745z" data-paper-data="{&quot;index&quot;:null}" fill="#b8b0c7" stroke-width="2"/><path d="M153.69572,217.51176c-1.7473,-10.78877 11.9303,-10.68803 11.9303,-10.68803c0,0 22.04324,2.00399 28.26604,17.98744c6.2228,15.98345 -10.23514,15.50165 -23.18335,13.39596c-12.94821,-2.10569 -15.2657,-9.90661 -17.01298,-20.69537z" data-paper-data="{&quot;index&quot;:null}" fill="#b8b0c7" stroke-width="2"/><path d="M120.27097,223.82354c2.47166,-12.37618 9.20835,-24.61251 23.57509,-12.92007c14.36674,11.69243 11.32225,31.44027 11.32225,31.44027c0,0 -3.07667,12.70015 -13.65687,6.99943c-7.16262,-3.8593 -15.49471,-8.51696 -19.3633,-14.96319c-1.84586,-3.07576 -2.67555,-6.55873 -1.87716,-10.55644z" data-paper-data="{&quot;index&quot;:null}" fill="#b8b0c7" stroke-width="2"/><path d="M293.88806,274.9465c5.39799,3.08337 20.94991,17.02782 -0.83444,20.04282c-13.09583,1.81249 -20.42928,-2.28111 -22.4193,-4.92275c-4.98949,-6.62327 -3.75807,-9.52321 8.49119,-13.56605c4.57523,-1.95598 7.95503,-5.44252 14.76254,-1.55401z" data-paper-data="{&quot;index&quot;:null}" fill="#b8b0c7" stroke-width="2"/><path d="M141.23311,273.4327c6.24091,-0.34258 27.076,2.89122 10.60902,17.16563c-9.89926,8.58119 -18.3241,9.1261 -21.47371,7.99732c-7.89688,-2.83013 -8.50559,-5.91336 -0.57034,-15.89758c2.71238,-4.10112 3.56449,-8.83334 11.43504,-9.26537z" data-paper-data="{&quot;index&quot;:null}" fill="#b8b0c7" stroke-width="2"/></g></g></svg>