<svg version="1.1" xmlns="http://www.w3.org/2000/svg" xmlns:xlink="http://www.w3.org/1999/xlink" width="509.2806" height="104.89363" viewBox="0,0,509.2806,104.89363"><defs><linearGradient x1="241.1371" y1="214.27882" x2="241.1371" y2="304.18604" gradientUnits="userSpaceOnUse" id="color-1"><stop offset="0" stop-color="#676270"/><stop offset="1" stop-color="#676270" stop-opacity="0"/></linearGradient><linearGradient x1="240.00408" y1="214.11254" x2="240.00408" y2="304.01976" gradientUnits="userSpaceOnUse" id="color-2"><stop offset="0" stop-color="#676270"/><stop offset="1" stop-color="#676270" stop-opacity="0"/></linearGradient></defs><g transform="translate(17.64409,-201.65511)"><g data-paper-data="{&quot;isPaintingLayer&quot;:true}" fill-rule="nonzero" stroke="#000000" stroke-linecap="butt" stroke-linejoin="miter" stroke-miterlimit="10" stroke-dasharray="" stroke-dashoffset="0" style="mix-blend-mode: normal"><g data-paper-data="{&quot;index&quot;:null}" fill="#635f6c" stroke-width="2"><path d="M447.78149,227.50898c-4.38135,-7.35773 -8.43087,-17.24966 4.03982,-17.39612c12.47069,-0.14646 18.83513,12.76828 18.83513,12.76828c0,0 3.15796,8.29452 -4.70583,9.88545c-7.86379,1.59093 -13.78779,2.10012 -18.16912,-5.25761z"/><path d="M446.61628,226.54751c4.82714,6.27817 -1.3209,8.81093 -1.3209,8.81093c0,0 -9.23762,4.53702 -18.49802,-3.63556c-9.2604,-8.17258 1.82974,-14.21637 10.08821,-16.90574c8.25847,-2.68937 4.90357,5.4522 9.73071,11.73037z" data-paper-data="{&quot;index&quot;:null}"/><path d="M458.92005,236.69639c2.394,1.18114 0.49016,-0.01646 -0.82094,6.63058c-1.20083,6.08803 -2.60535,6.88711 -6.37414,5.02769c-1.50315,-0.74162 -4.13802,-3.89775 -4.14637,-10.21826c-0.01388,-10.51388 8.94746,-2.62116 11.34146,-1.44002z" data-paper-data="{&quot;index&quot;:null}"/><path d="M458.5746,243.75609c1.00671,-5.71216 2.24889,-9.82915 8.59613,-10.78565c6.34724,-0.9565 14.38358,-1.00585 11.1191,7.41101c-3.26449,8.41686 -14.04753,9.20507 -14.04753,9.20507c0,0 -6.67442,-0.11826 -5.66771,-5.83042z"/><path d="M479.95651,233.54934c-2.06207,-0.2214 -3.63987,-1.11039 -4.87355,-2.40348c-2.58558,-2.71008 -3.65967,-7.19514 -4.51255,-11.0295c-1.25981,-5.6639 5.36855,-5.20714 5.36855,-5.20714c0,0 10.05719,1.5041 13.69293,9.77403c3.63575,8.26992 -3.29159,9.55149 -9.67537,8.86608z" data-paper-data="{&quot;index&quot;:null}"/><path d="M405.94662,226.35753c7.76516,2.00154 13.30111,4.12651 13.87477,12.6232c0.57366,8.49669 -0.30331,19.11785 -11.53583,13.8159c-11.23252,-5.30195 -11.05225,-19.63819 -11.05225,-19.63819c0,0 0.94814,-8.80247 8.71331,-6.80092z" data-paper-data="{&quot;index&quot;:null}"/><path d="M422.16764,236.77459c3.1913,-7.92219 7.42092,-0.18039 15.44031,0.22661c8.01939,0.40699 6.05962,6.64522 6.05962,6.64522c0,0 -2.37121,9.84253 -14.72063,11.54615c-12.34942,1.70362 -9.97062,-10.49579 -6.77931,-18.41798z" data-paper-data="{&quot;index&quot;:null}"/><path d="M411.12457,224.02522c-1.60585,-2.10055 -0.44635,-0.19882 3.75329,-5.57916c3.84647,-4.92786 5.46777,-5.03142 7.99581,-1.72461c1.00829,1.31889 1.93081,5.29272 -0.93882,10.95554c-4.77348,9.41983 -9.20443,-1.55124 -10.81028,-3.65178z" data-paper-data="{&quot;index&quot;:null}"/><path d="M414.39394,217.56093c-3.50155,4.67588 -6.48781,7.82093 -12.60633,5.91206c-6.11852,-1.90887 -13.33646,-5.36588 -6.58219,-11.47983c6.75427,-6.11395 16.76785,-2.12185 16.76785,-2.12185c0,0 5.92221,3.01373 2.42066,7.68962z" data-paper-data="{&quot;index&quot;:null}"/><path d="M393.48558,219.53188c1.74553,1.09661 2.75356,2.57998 3.26955,4.27525c1.08143,3.55298 0.00153,8.03672 -0.98023,11.84145c-1.45021,5.62013 -7.17711,2.32339 -7.17711,2.32339c0,0 -8.32019,-5.72833 -7.81106,-14.71693c0.50913,-8.9886 7.29501,-7.11805 12.69885,-3.72315z" data-paper-data="{&quot;index&quot;:null}"/></g><g data-paper-data="{&quot;index&quot;:null}" fill="#635f6c" stroke-width="2"><path d="M357.7867,268.06856c0.80455,8.47875 0.21674,19.11898 -11.156,14.11129c-11.37274,-5.00769 -11.58244,-19.34354 -11.58244,-19.34354c0,0 0.70839,-8.82404 8.52526,-7.02533c7.81686,1.79871 13.40863,3.77883 14.21318,12.25758z"/><path d="M362.20199,284.07018c-8.64788,-0.96521 -2.09886,-6.96588 -3.77266,-14.64934c-1.6738,-7.68345 4.99269,-7.44615 4.99269,-7.44615c0,0 10.33162,-0.3068 15.21006,10.92212c4.87843,11.22891 -7.7822,12.13859 -16.43008,11.17337z" data-paper-data="{&quot;index&quot;:null}"/><path d="M351.64204,255.14511c-1.66242,-2.058 -0.45161,-0.18713 3.60022,-5.67488c3.71107,-5.02624 5.32899,-5.17198 7.94607,-1.93214c1.0438,1.29218 2.07406,5.2406 -0.64053,10.9761c-4.51559,9.54075 -9.24336,-1.31109 -10.90577,-3.36909z" data-paper-data="{&quot;index&quot;:null}"/><path d="M354.99588,248.88505c-3.37315,4.76538 -6.27281,7.98705 -12.44108,6.23812c-6.16827,-1.74893 -13.47767,-5.01683 -6.89208,-11.30443c6.58559,-6.2876 16.7042,-2.55757 16.7042,-2.55757c0,0 6.00209,2.8585 2.62895,7.62388z"/><path d="M331.20868,249.32777c1.77473,1.05079 2.82275,2.50739 3.38467,4.18863c1.17766,3.52357 0.22011,8.03382 -0.65783,11.86277c-1.29684,5.65589 -7.11139,2.50939 -7.11139,2.50939c0,0 -8.47306,-5.50973 -8.20856,-14.5084c0.2645,-8.99867 7.09885,-7.30543 12.5931,-4.05239z" data-paper-data="{&quot;index&quot;:null}"/><path d="M395.23082,286.35748c-6.1802,-5.01607 -10.28554,-9.22516 -7.14638,-17.16728c3.13916,-7.94211 8.50889,-17.21294 16.41218,-7.77447c7.90328,9.43847 1.56536,22.36569 1.56536,22.36569c0,0 -4.65098,7.59212 -10.83117,2.57606z" data-paper-data="{&quot;index&quot;:null}"/><path d="M385.0065,270.2238c-6.3062,5.86915 -6.80772,-2.89536 -13.90522,-6.57013c-7.0975,-3.67476 -2.63346,-8.52437 -2.63346,-8.52437c0,0 6.38951,-7.94876 18.32291,-4.40324c11.9334,3.54551 4.52195,13.62859 -1.78424,19.49774z" data-paper-data="{&quot;index&quot;:null}"/><path d="M389.53045,286.33825c0.55168,2.56693 0.31917,0.3643 -5.80673,3.5126c-5.61073,2.88353 -7.12569,2.30913 -7.99417,-1.73189c-0.34639,-1.61173 0.52847,-5.59587 5.56983,-9.54859c8.38607,-6.57518 7.67938,5.20096 8.23106,7.76788z" data-paper-data="{&quot;index&quot;:null}"/><path d="M397.76032,290.68783c4.72675,4.25325 9.7838,10.3637 1.02516,13.12428c-8.75865,2.76058 -16.12062,-4.98753 -16.12062,-4.98753c0,0 -4.07289,-5.17434 1.11652,-7.97153c5.18942,-2.79719 9.25218,-4.41847 13.97894,-0.16522z" data-paper-data="{&quot;index&quot;:null}"/><path d="M403.59205,297.68417c-1.11072,-1.71403 -1.38605,-3.47482 -1.12387,-5.22496c0.54948,-3.66796 3.45992,-7.28912 5.98893,-10.33495c3.7357,-4.49911 7.50957,0.85138 7.50957,0.85138c0,0 5.07848,8.62467 0.74546,16.56656c-4.33302,7.94189 -9.68152,3.4483 -13.12011,-1.85803z" data-paper-data="{&quot;index&quot;:null}"/></g><g data-paper-data="{&quot;index&quot;:null}" fill="#635f6c" stroke-width="2"><path d="M419.71043,212.91857c4.24916,4.1914 -1.14107,10.48547 -6.2542,15.15274c-0.52924,0.48309 -1.05266,0.91108 -1.57162,1.28763c0.45704,-0.98625 0.87996,-1.99183 1.64725,-2.74831c0.93888,-0.92568 3.12742,-0.9009 3.31199,-2.1924c0.09852,-0.68937 0.1666,-1.3803 0.20988,-2.0725c0.45973,-0.45402 0.87757,-0.95393 1.24521,-1.4954l0.41797,0.12315l0.8549,-2.77702c0.54823,-1.78085 0.56456,-3.59457 0.13862,-5.27788z"/><path d="M414.85535,227.47944c6.47268,-4.64963 5.66018,-13.39181 12.77507,-8.48682c7.1149,4.90499 15.95239,13.82078 4.67638,19.03363c-11.27601,5.21285 -18.78384,-1.73754 -18.78384,-1.73754c0,0 -5.14028,-4.15965 1.33239,-8.80928z" data-paper-data="{&quot;index&quot;:null}"/><path d="" data-paper-data="{&quot;index&quot;:null}"/><path d=""/><path d="" data-paper-data="{&quot;index&quot;:null}"/><path d="M436.84704,246.9438c3.05384,-7.97389 8.98098,-8.44679 17.00626,-8.1726c8.02528,0.27419 6.33846,8.9702 6.33846,8.9702c0,0 -4.05324,13.77806 -16.37143,15.68586c-12.31818,1.9078 -10.02713,-8.50956 -6.9733,-16.48345z" data-paper-data="{&quot;index&quot;:null}"/><path d="M420.3996,240.03048c7.79867,1.87272 14.13063,-4.34694 14.85117,4.13903c0.72053,8.48597 -0.59772,20.83822 -11.92033,15.72297c-11.32262,-5.11526 -10.69184,-15.20862 -10.69184,-15.20862c0,0 -0.03768,-6.52611 7.76099,-4.65339z" data-paper-data="{&quot;index&quot;:null}"/><path d="M449.5828,235.07719c-2.15681,1.55827 -9.63343,10.8132 -11.42747,0.44685c-1.07852,-6.23183 0.97618,-9.77658 2.33039,-10.75499c3.39538,-2.45312 4.9173,-1.89655 7.14778,3.90712c2.4353,6.33657 4.1061,4.84275 1.9493,6.40102z" data-paper-data="{&quot;index&quot;:null}"/><path d="M458.68587,237.18258c-6.42126,0.10163 -8.35361,-3.7523 -10.3281,-9.2174c-1.9745,-5.46511 4.58448,-6.68003 4.58448,-6.68003c0,0 10.76493,-0.99748 15.43007,6.76225c4.66514,7.75973 -3.26518,9.03355 -9.68644,9.13518z" data-paper-data="{&quot;index&quot;:null}"/><path d="M467.79693,235.75107c6.17497,-1.72616 13.22394,-1.6028 11.06191,7.14758c-2.16203,8.75038 -11.81729,11.88807 -11.81729,11.88807c0,0 -6.4554,1.54102 -6.18736,-4.24949c0.18146,-3.92008 0.46911,-8.51799 2.55188,-11.61494c0.99377,-1.47768 2.39625,-2.61365 4.39086,-3.17122z" data-paper-data="{&quot;index&quot;:null}"/></g><g data-paper-data="{&quot;index&quot;:null}" fill="#635f6c" stroke-width="2"><path d="M364.79464,236.96612c-34.91784,1.59093 -61.22233,2.10012 -80.67694,-5.25761c-19.45461,-7.35773 -37.43578,-17.24966 17.93819,-17.39612c55.37397,-0.14646 83.63424,12.76828 83.63424,12.76828c0,0 14.02244,8.29452 -20.89545,9.88545z"/><path d="M278.94383,230.74704c21.43411,6.27817 -5.86524,8.81093 -5.86524,8.81093c0,0 -41.0181,4.53702 -82.13736,-3.63556c-41.1193,-8.17258 8.12457,-14.21637 44.79496,-16.90574c36.6704,-2.68937 21.77348,5.4522 43.20763,11.73037z" data-paper-data="{&quot;index&quot;:null}"/><path d="M333.57675,240.89592c10.63011,1.18114 2.17647,-0.01646 -3.64529,6.63058c-5.33213,6.08803 -11.56866,6.88711 -28.30335,5.02769c-6.67449,-0.74162 -18.37418,-3.89775 -18.41126,-10.21826c-0.06163,-10.51388 39.72974,-2.62116 50.35985,-1.44002z" data-paper-data="{&quot;index&quot;:null}"/><path d="M332.0427,247.95562c4.47013,-5.71216 9.98582,-9.82915 38.16968,-10.78565c28.18386,-0.9565 63.86788,-1.00585 49.3725,7.41101c-14.49538,8.41686 -62.37566,9.20507 -62.37566,9.20507c0,0 -29.63664,-0.11826 -25.16652,-5.83042z"/><path d="M426.98563,237.74887c-9.15623,-0.2214 -16.16219,-1.11039 -21.64018,-2.40348c-11.48088,-2.71008 -16.2502,-7.19514 -20.03727,-11.0295c-5.59398,-5.6639 23.83815,-5.20714 23.83815,-5.20714c0,0 44.65718,1.5041 60.80112,9.77403c16.14389,8.26992 -14.61575,9.55149 -42.96186,8.86608z" data-paper-data="{&quot;index&quot;:null}"/><path d="M98.35701,230.55707c34.47994,2.00154 59.0614,4.12651 61.60864,12.6232c2.54724,8.49669 -1.34684,19.11785 -51.22297,13.8159c-49.87612,-5.30195 -49.07567,-19.63819 -49.07567,-19.63819c0,0 4.21001,-8.80247 38.68999,-6.80092z" data-paper-data="{&quot;index&quot;:null}"/><path d="M170.38373,240.97413c14.17043,-7.92219 32.95135,-0.18039 68.56011,0.22661c35.6088,0.40699 26.90673,6.64522 26.90673,6.64522c0,0 -10.52901,9.84252 -65.36449,11.54614c-54.83553,1.70361 -44.27291,-10.49579 -30.10239,-18.41798z" data-paper-data="{&quot;index&quot;:null}"/><path d="M121.34888,228.22475c-7.13051,-2.10055 -1.98199,-0.19882 16.66586,-5.57916c17.07961,-4.92786 24.27872,-5.03142 35.50406,-1.72461c4.47714,1.31889 8.57344,5.29272 -4.16867,10.95554c-21.19584,9.41983 -40.87073,-1.55124 -48.00124,-3.65178z" data-paper-data="{&quot;index&quot;:null}"/><path d="M79.88953,227.67252c-27.16826,-1.90887 -59.21832,-5.36588 -29.22711,-11.47983c29.99125,-6.11395 74.45487,-2.12185 74.45487,-2.12185c0,0 26.29663,3.01373 10.74858,7.68962c-15.54809,4.67588 -28.80808,7.82093 -55.97634,5.91206z" data-paper-data="{&quot;index&quot;:null}"/><path d="M43.02585,223.73141c7.75069,1.09661 12.22672,2.57998 14.51789,4.27525c4.80186,3.55298 0.00679,8.03672 -4.35255,11.84145c-6.43937,5.62013 -31.86876,2.32339 -31.86876,2.32339c0,0 -36.94446,-5.72833 -34.6837,-14.71693c2.26075,-8.9886 32.39231,-7.11805 56.38712,-3.72315z" data-paper-data="{&quot;index&quot;:null}"/></g><g data-paper-data="{&quot;index&quot;:null}" fill="#635f6c" stroke-width="2"><path d="M314.27401,280.80216c-7.8638,1.59092 -13.78778,2.10012 -18.16912,-5.25761c-4.38135,-7.35773 -8.43086,-17.24965 4.03982,-17.39611c12.47068,-0.14646 18.83513,12.76828 18.83513,12.76828c0,0 3.15797,8.29453 -4.70583,9.88545z"/><path d="M294.9397,274.58309c4.82714,6.27817 -1.3209,8.81093 -1.3209,8.81093c0,0 -9.23763,4.53702 -18.49803,-3.63556c-9.2604,-8.17258 1.82973,-14.21637 10.08821,-16.90574c8.25848,-2.68937 4.90357,5.4522 9.73072,11.73037z" data-paper-data="{&quot;index&quot;:null}"/><path d="M307.24347,284.73197c2.39399,1.18114 0.49016,-0.01645 -0.82095,6.63058c-1.20084,6.08803 -2.60536,6.88711 -6.37415,5.02769c-1.50315,-0.74161 -4.13802,-3.89776 -4.14637,-10.21826c-0.01388,-10.51387 8.94747,-2.62115 11.34146,-1.44001z" data-paper-data="{&quot;index&quot;:null}"/><path d="M315.49412,281.00603c6.34724,-0.9565 14.38358,-1.00585 11.1191,7.41101c-3.26448,8.41686 -14.04752,9.20507 -14.04752,9.20507c0,0 -6.67442,-0.11827 -5.66771,-5.83043c1.00671,-5.71216 2.24889,-9.82915 8.59613,-10.78565z"/><path d="M323.40639,279.18143c-2.58559,-2.71008 -3.65968,-7.19514 -4.51256,-11.0295c-1.25981,-5.66389 5.36855,-5.20714 5.36855,-5.20714c0,0 10.05717,1.50411 13.69292,9.77404c3.63575,8.26992 -3.29158,9.55149 -9.67536,8.86608c-2.06206,-0.2214 -3.63986,-1.11039 -4.87355,-2.40348z" data-paper-data="{&quot;index&quot;:null}"/><path d="M254.27003,274.39308c7.76517,2.00155 13.30112,4.12652 13.87478,12.62321c0.57366,8.49669 -0.30332,19.11785 -11.53584,13.8159c-11.23252,-5.30195 -11.05225,-19.63818 -11.05225,-19.63818c0,0 0.94813,-8.80246 8.71331,-6.80092z" data-paper-data="{&quot;index&quot;:null}"/><path d="M270.49103,284.81018c3.1913,-7.9222 7.42092,-0.18039 15.44031,0.22661c8.0194,0.407 6.05962,6.64522 6.05962,6.64522c0,0 -2.37121,9.84252 -14.72062,11.54614c-12.34942,1.70362 -9.97063,-10.49579 -6.77931,-18.41798z" data-paper-data="{&quot;index&quot;:null}"/><path d="M263.20127,266.48163c3.84647,-4.92786 5.46777,-5.03142 7.99581,-1.72461c1.00829,1.3189 1.93081,5.29274 -0.93882,10.95555c-4.77349,9.41984 -9.20443,-1.55124 -10.81028,-3.65178c-1.60585,-2.10054 -0.44636,-0.19882 3.75329,-5.57916z" data-paper-data="{&quot;index&quot;:null}"/><path d="M250.11099,271.50859c-6.11851,-1.90888 -13.33646,-5.36588 -6.58219,-11.47983c6.75428,-6.11395 16.76786,-2.12185 16.76786,-2.12185c0,0 5.92222,3.01372 2.42067,7.68961c-3.50156,4.67589 -6.48782,7.82094 -12.60634,5.91207z" data-paper-data="{&quot;index&quot;:null}"/><path d="M245.07853,271.84273c1.08141,3.55298 0.00153,8.03672 -0.98023,11.84145c-1.4502,5.62014 -7.17711,2.32339 -7.17711,2.32339c0,0 -8.3202,-5.72833 -7.81106,-14.71693c0.50914,-8.9886 7.29502,-7.11806 12.69885,-3.72316c1.74552,1.09661 2.75356,2.57998 3.26955,4.27525z" data-paper-data="{&quot;index&quot;:null}"/></g><g data-paper-data="{&quot;index&quot;:null}" fill="#635f6c" stroke-width="2"><path d="M405.6158,241.14124c7.81687,2.20471 13.40864,4.63178 14.21319,15.02436c0.80455,10.39258 0.21674,23.43453 -11.156,17.2965c-11.37274,-6.13803 -11.58244,-23.70978 -11.58244,-23.70978c0,0 0.70839,-10.81578 8.52526,-8.61108z"/><path d="M424.24428,275.77911c-8.64788,-1.18308 -2.09886,-8.53822 -3.77266,-17.956c-1.67381,-9.41776 4.99268,-9.1269 4.99268,-9.1269c0,0 10.33163,-0.37605 15.21007,13.38747c4.87844,13.76351 -7.7822,14.87852 -16.43008,13.69543z" data-paper-data="{&quot;index&quot;:null}"/><path d="M417.28455,233.36924c3.71108,-6.16076 5.329,-6.3394 7.94608,-2.36826c1.0438,1.58385 2.07406,6.42351 -0.64053,13.45363c-4.51559,11.6943 -9.24336,-1.60703 -10.90577,-4.12956c-1.66241,-2.52254 -0.45161,-0.22936 3.60022,-6.95581z" data-paper-data="{&quot;index&quot;:null}"/><path d="M417.03817,232.65198c-3.37315,5.84102 -6.27281,9.78989 -12.44108,7.64619c-6.16827,-2.1437 -13.47767,-6.14923 -6.89208,-13.85607c6.58559,-7.70684 16.7042,-3.13487 16.7042,-3.13487c0,0 6.00209,3.50373 2.62895,9.34475z"/><path d="M393.25096,233.19462c1.77473,1.28797 2.82275,3.07336 3.38467,5.13409c1.17767,4.31891 0.22011,9.84723 -0.65783,14.54044c-1.29684,6.93255 -7.11138,3.07582 -7.11138,3.07582c0,0 -8.47306,-6.75338 -8.20856,-17.78324c0.2645,-11.02986 7.09885,-8.95442 12.5931,-4.9671z" data-paper-data="{&quot;index&quot;:null}"/><path d="M457.27312,278.58271c-6.1802,-6.1483 -10.28554,-11.30747 -7.14638,-21.04229c3.13916,-9.73481 8.50889,-21.09826 16.41218,-9.52933c7.90328,11.56893 1.56536,27.41409 1.56536,27.41409c0,0 -4.65098,9.30582 -10.83117,3.15753z" data-paper-data="{&quot;index&quot;:null}"/><path d="M447.0488,258.80733c-6.3062,7.19394 -6.80772,-3.5489 -13.90522,-8.05314c-7.0975,-4.50423 -2.63346,-10.4485 -2.63346,-10.4485c0,0 6.38951,-9.74296 18.32291,-5.39714c11.9334,4.3458 4.52195,16.70484 -1.78424,23.89878z" data-paper-data="{&quot;index&quot;:null}"/><path d="M451.57273,278.55913c0.55168,3.14634 0.31917,0.44653 -5.80673,4.30547c-5.61073,3.53441 -7.12569,2.83035 -7.99417,-2.12281c-0.34639,-1.97553 0.52847,-6.85897 5.56983,-11.7039c8.38608,-8.05933 7.67939,6.37492 8.23107,9.52125z" data-paper-data="{&quot;index&quot;:null}"/><path d="M445.82367,284.09302c5.18942,-3.42857 9.25218,-5.41581 13.97894,-0.20251c4.72675,5.2133 9.78381,12.703 1.02517,16.0867c-8.75865,3.3837 -16.12062,-6.11332 -16.12062,-6.11332c0,0 -4.07289,-6.3423 1.11652,-9.77087z" data-paper-data="{&quot;index&quot;:null}"/><path d="M465.63433,292.46609c-1.11072,-2.10092 -1.38605,-4.25916 -1.12387,-6.40434c0.54948,-4.49589 3.45992,-8.93442 5.98893,-12.66776c3.7357,-5.51466 7.50957,1.04355 7.50957,1.04355c0,0 5.07848,10.57143 0.74546,20.30597c-4.33301,9.73454 -9.68151,4.22664 -13.1201,-2.27744z" data-paper-data="{&quot;index&quot;:null}"/></g><g data-paper-data="{&quot;index&quot;:null}" fill="#635f6c" stroke-width="2"><path d="M154.4179,263.74574c7.88472,1.48842 4.83987,9.82331 4.83987,9.82331c0,0 -6.18823,12.99645 -18.6598,13.01233c-12.47156,0.01589 -8.55694,-9.92786 -4.27606,-17.34198c4.28088,-7.41412 10.21126,-6.98208 18.09599,-5.49366z"/><path d="M135.16988,270.21594c-4.74134,6.34045 -1.276,14.43763 -9.57031,11.85599c-8.2943,-2.58163 -19.46567,-8.48051 -10.31724,-16.77291c9.14843,-8.2924 18.44694,-3.87604 18.44694,-3.87604c0,0 6.18195,2.45251 1.44062,8.79296z" data-paper-data="{&quot;index&quot;:null}"/><path d="M147.33453,259.9078c-2.37772,1.2122 -11.23093,9.22088 -11.36004,-1.29225c-0.07762,-6.32005 2.5141,-9.51021 4.00703,-10.27133c3.74317,-1.90832 5.15843,-1.12759 6.44196,4.94427c1.40138,6.62938 3.28877,5.40711 0.91105,6.61931z" data-paper-data="{&quot;index&quot;:null}"/><path d="M155.63513,263.52602c-6.35968,-0.8738 -7.65773,-4.97426 -8.74205,-10.67281c-1.08431,-5.69855 5.58791,-5.90368 5.58791,-5.90368c0,0 10.7928,0.64778 14.17147,9.0214c3.37867,8.37361 -4.65763,8.42889 -11.01732,7.55509z"/><path d="M163.57152,265.24747c1.21598,-1.30904 2.78155,-2.21849 4.84042,-2.46671c6.37389,-0.76845 13.31804,0.42284 9.79509,8.73936c-3.52294,8.31652 -13.55878,9.95141 -13.55878,9.95141c0,0 -6.62157,0.543 -5.43889,-5.1368c0.80066,-3.84513 1.81366,-8.34377 4.36215,-11.08727z" data-paper-data="{&quot;index&quot;:null}"/><path d="M108.20826,258.13262c-0.45805,8.5034 -5.96459,10.70026 -13.70186,12.8027c-7.73727,2.10244 -8.80504,-6.6869 -8.80504,-6.6869c0,0 -0.37522,-14.33261 10.78419,-19.78031c11.15941,-5.44769 12.18077,5.1611 11.72272,13.66451z" data-paper-data="{&quot;index&quot;:null}"/><path d="M110.5843,260.30801c-3.29878,-7.87995 -5.84328,-20.04731 6.52821,-18.5046c12.37149,1.54271 14.87636,11.35351 14.87636,11.35351c0,0 2.04445,6.21215 -5.9687,6.72351c-8.01314,0.51136 -12.13709,8.30753 -15.43587,0.42758z" data-paper-data="{&quot;index&quot;:null}"/><path d="M103.54447,278.72983c-4.27245,-5.32519 -5.40598,-3.40854 -3.82884,-5.5298c1.57713,-2.12126 5.85847,-13.14904 10.75965,-3.79218c2.94638,5.62495 2.07801,9.61044 1.08775,10.94235c-2.48284,3.33943 -4.10542,3.25697 -8.01857,-1.62038z" data-paper-data="{&quot;index&quot;:null}"/><path d="M103.07261,279.62116c3.56484,4.6299 -2.31588,7.72045 -2.31588,7.72045c0,0 -9.95839,4.12209 -16.79522,-1.9034c-6.83682,-6.02549 0.33346,-9.57614 6.42547,-11.56449c6.09201,-1.98834 9.12078,1.11754 12.68563,5.74744z" data-paper-data="{&quot;index&quot;:null}"/><path d="M85.35043,273.60512c-0.49289,1.70183 -1.48066,3.19819 -3.21112,4.31743c-5.35718,3.46495 -12.11703,5.42366 -12.74837,-3.55752c-0.63134,-8.98118 7.61021,-14.81731 7.61021,-14.81731c0,0 5.68156,-3.371 7.20807,2.22976c1.03342,3.79162 2.17418,8.26091 1.14119,11.82764z" data-paper-data="{&quot;index&quot;:null}"/></g><g data-paper-data="{&quot;index&quot;:null}" fill="#635f6c" stroke-width="2"><path d="M19.83269,253.14016c7.94731,1.12572 13.69412,2.6218 15.25056,10.99975c1.55644,8.37795 1.91825,19.02783 -9.85714,15.00834c-11.77539,-4.01948 -13.26075,-18.28296 -13.26075,-18.28296c0,0 -0.07999,-8.85085 7.86732,-7.72513z"/><path d="M40.90653,279.70442c-8.70095,-0.22458 -2.71112,-6.76055 -5.06269,-14.27216c-2.35158,-7.51161 4.3107,-7.84332 4.3107,-7.84332c0,0 10.26504,-1.18607 16.12474,9.58443c5.85969,10.77051 -6.67181,12.75564 -15.37276,12.53106z" data-paper-data="{&quot;index&quot;:null}"/><path d="M27.81125,251.78922c-1.83933,-1.90851 -0.46655,-0.14794 3.08125,-5.96012c3.24942,-5.32339 4.84822,-5.60645 7.74383,-2.60195c1.15489,1.19832 2.5328,5.04392 0.33921,10.98896c-3.64894,9.8893 -9.32497,-0.51839 -11.1643,-2.4269z" data-paper-data="{&quot;index&quot;:null}"/><path d="M30.59493,245.26714c-2.93602,5.03472 -5.5378,8.49125 -11.83835,7.27462c-6.30055,-1.21663 -13.87314,-3.84921 -7.87242,-10.67412c6.00072,-6.82491 16.41299,-3.97136 16.41299,-3.97136c0,0 6.2338,2.33614 3.29779,7.37086z"/><path d="M6.93759,247.73529c1.86155,0.89556 3.03529,2.25732 3.74476,3.88428c1.48692,3.40981 0.93459,7.98452 0.40092,11.87373c-0.78832,5.74491 -6.86092,3.10587 -6.86092,3.10587c0,0 -8.93143,-4.76671 -9.46918,-13.75372c-0.53774,-8.987 6.4214,-7.88261 12.18441,-5.11016z" data-paper-data="{&quot;index&quot;:null}"/><path d="M74.01346,279.16836c-6.60333,-4.47033 -11.06784,-8.31357 -8.64777,-16.49301c2.42006,-8.17943 6.94392,-17.87262 15.65756,-9.14354c8.71363,8.72908 3.55084,22.14727 3.55084,22.14727c0,0 -3.95731,7.95961 -10.56064,3.48928z" data-paper-data="{&quot;index&quot;:null}"/><path d="M47.9541,258.60715c-7.39772,-3.05596 -3.38244,-8.26756 -3.38244,-8.26756c0,0 5.65748,-8.46304 17.86121,-5.94795c12.20373,2.51509 5.71824,13.19143 -0.0414,19.57568c-5.75964,6.38426 -7.03965,-2.30421 -14.43737,-5.36017z" data-paper-data="{&quot;index&quot;:null}"/><path d="M68.33304,279.63499c0.77813,2.51015 0.3504,0.3357 -5.4719,3.99408c-5.33265,3.35071 -6.89301,2.9076 -8.11799,-1.04405c-0.48858,-1.57608 0.02821,-5.61962 4.69846,-9.98694c7.76875,-7.26484 8.11328,4.52676 8.89142,7.03691z" data-paper-data="{&quot;index&quot;:null}"/><path d="M63.00782,284.62255c4.92063,-3.22879 8.8236,-5.19014 13.91109,-1.35586c5.0875,3.83428 10.6694,9.49054 2.18985,12.98703c-8.47955,3.49648 -16.50342,-3.5948 -16.50342,-3.5948c0,0 -4.51813,-4.80758 0.40249,-8.03637z" data-paper-data="{&quot;index&quot;:null}"/><path d="M83.35141,289.73949c-1.25912,-1.61286 -1.69018,-3.3435 -1.58482,-5.10933c0.2208,-3.70084 2.79775,-7.55627 5.04595,-10.80603c3.32091,-4.80037 7.55684,0.20819 7.55684,0.20819c0,0 5.82709,8.15911 2.21769,16.44007c-3.60941,8.28095 -9.33768,4.26023 -13.23567,-0.7329z" data-paper-data="{&quot;index&quot;:null}"/></g><path d="M68.69594,265.5358c16.12301,2.76282 9.70604,17.40214 9.70604,17.40214c0,0 -12.95714,22.80143 -38.51024,22.6096c-25.55309,-0.19183 -17.31962,-17.65198 -8.38992,-30.64634c8.92971,-12.99436 21.07111,-12.12821 37.19412,-9.3654z" data-paper-data="{&quot;index&quot;:null}" fill="#b8b0c7" stroke-width="2"/><path d="M1.40962,285.32787c3.06926,-14.54368 -7.00554,-28.79631 6.77479,-27.51493c13.78034,1.28139 33.83038,7.74039 25.48362,28.09909c-8.34676,20.35869 -24.73184,15.9472 -24.73184,15.9472c0,0 -10.59581,-1.9877 -7.52656,-16.53137z" data-paper-data="{&quot;index&quot;:null}" fill="#b8b0c7" stroke-width="2"/><path d="M52.54017,244.22079c2.72936,13.61151 6.62254,11.1459 1.72494,13.58083c-4.89762,2.43493 -23.20822,18.66237 -23.24771,-2.88041c-0.02374,-12.95062 5.35465,-19.43376 8.42978,-20.96262c7.71014,-3.83323 10.59315,-2.20461 13.09298,10.2622z" data-paper-data="{&quot;index&quot;:null}" fill="#b8b0c7" stroke-width="2"/><path d="M58.11762,241.72458c9.29264,-7.71085 16.91229,-12.54422 29.49668,-5.17424c12.5844,7.36999 26.99323,18.55641 10.12148,27.42164c-16.87175,8.86523 -37.15276,-4.99157 -37.15276,-4.99157c0,0 -11.75802,-9.54497 -2.46539,-17.25582z" data-paper-data="{&quot;index&quot;:null}" fill="#b8b0c7" stroke-width="2"/><path d="M120.98393,284.77624c0.81438,11.65105 -2.539,24.11591 -19.48736,16.7869c-16.94835,-7.32901 -19.11902,-25.72173 -19.11902,-25.72173c0,0 -0.31231,-12.07503 11.41464,-9.28921c7.93896,1.88596 17.21774,4.23084 22.63647,9.16385c2.58551,2.35374 4.2922,5.29671 4.55527,9.06019z" data-paper-data="{&quot;index&quot;:null}" fill="#b8b0c7" stroke-width="2"/><path d="M-4.26815,235.31359c-1.45751,-11.75317 9.95168,-11.64343 9.95168,-11.64343c0,0 18.38741,2.18312 23.57816,19.59534c5.19076,17.41222 -8.53765,16.88735 -19.33843,14.59343c-10.80077,-2.29392 -12.73391,-10.79217 -14.19141,-22.54534z" data-paper-data="{&quot;index&quot;:null}" fill="#b8b0c7" stroke-width="2"/><g data-paper-data="{&quot;index&quot;:null}" fill="#635f6c" stroke-width="2"><path d="M301.17745,262.07924c-4.28088,-7.41411 -8.1955,-17.35787 4.27607,-17.34198c12.47157,0.01589 18.6598,13.01233 18.6598,13.01233c0,0 3.04486,8.33489 -4.83987,9.82331c-7.88473,1.48842 -13.81512,1.92046 -18.096,-5.49366z"/><path d="M290.4551,249.2467c8.29432,-2.58163 4.82899,5.51555 9.57031,11.856c4.74133,6.34045 -1.44061,8.79296 -1.44061,8.79296c0,0 -9.29851,4.41636 -18.44694,-3.87604c-9.14843,-8.2924 2.02294,-14.19128 10.31725,-16.77292z" data-paper-data="{&quot;index&quot;:null}"/><path d="M312.19007,271.41082c2.37772,1.2122 0.49033,-0.01006 -0.91105,6.61932c-1.28353,6.07186 -2.69881,6.85259 -6.44196,4.94427c-1.49293,-0.76111 -4.08465,-3.95128 -4.00703,-10.27133c0.1291,-10.51312 8.98232,-2.50445 11.36004,-1.29225z" data-paper-data="{&quot;index&quot;:null}"/><path d="M320.49068,267.79261c6.35968,-0.8738 14.39599,-0.81853 11.01732,7.55509c-3.37867,8.37362 -14.17148,9.0214 -14.17148,9.0214c0,0 -6.67223,-0.20513 -5.58791,-5.90368c1.08432,-5.69856 2.38239,-9.79901 8.74207,-10.67281z"/><path d="M333.26749,268.53791c-2.05887,-0.24822 -3.62444,-1.15768 -4.84043,-2.46671c-2.54849,-2.7435 -3.56149,-7.24215 -4.36215,-11.08727c-1.18268,-5.6798 5.43889,-5.1368 5.43889,-5.1368c0,0 10.03582,1.63489 13.55877,9.95141c3.52295,8.31652 -3.4212,9.50781 -9.79509,8.73936z" data-paper-data="{&quot;index&quot;:null}"/><path d="M273.06381,273.18601c0.45806,8.5034 -0.5633,19.11221 -11.72271,13.66451c-11.15943,-5.4477 -10.78419,-19.78032 -10.78419,-19.78032c0,0 1.06777,-8.78933 8.80504,-6.68689c7.73728,2.10245 13.24382,4.2993 13.70186,12.8027z" data-paper-data="{&quot;index&quot;:null}"/><path d="M275.43982,271.01062c3.29879,-7.87995 7.42273,-0.08378 15.43588,0.42758c8.01315,0.51136 5.9687,6.72352 5.9687,6.72352c0,0 -2.50487,9.81079 -14.87636,11.3535c-12.37149,1.54271 -9.827,-10.62465 -6.52821,-18.5046z" data-paper-data="{&quot;index&quot;:null}"/><path d="M268.39999,252.58881c3.91315,-4.87735 5.53573,-4.95981 8.01857,-1.62038c0.99026,1.33191 1.85863,5.3174 -1.08775,10.94236c-4.90118,9.35686 -9.1825,-1.67092 -10.75965,-3.79218c-1.57715,-2.12126 -0.44361,-0.20461 3.82883,-5.5298z" data-paper-data="{&quot;index&quot;:null}"/><path d="M267.92813,251.69748c-3.56484,4.62989 -6.59361,7.73579 -12.68563,5.74744c-6.09201,-1.98835 -13.26229,-5.539 -6.42546,-11.56449c6.83682,-6.02549 16.79522,-1.9034 16.79522,-1.9034c0,0 5.88073,3.09056 2.31588,7.72045z" data-paper-data="{&quot;index&quot;:null}"/><path d="M246.99482,253.39608c1.73047,1.11924 2.71824,2.61561 3.21112,4.31744c1.03301,3.56674 -0.10777,8.03602 -1.14119,11.82764c-1.5265,5.60076 -7.20807,2.22976 -7.20807,2.22976c0,0 -8.24156,-5.83613 -7.61022,-14.81731c0.63135,-8.98118 7.39119,-7.02248 12.74837,-3.55753z" data-paper-data="{&quot;index&quot;:null}"/></g><g data-paper-data="{&quot;index&quot;:null}" fill="#635f6c" stroke-width="2"><path d="M184.68821,278.17848c-7.9473,1.12572 -7.86733,-7.72513 -7.86733,-7.72513c0,0 1.48536,-14.26347 13.26075,-18.28296c11.77539,-4.01949 11.41358,6.63038 9.85714,15.00834c-1.55644,8.37796 -7.30325,9.87403 -15.25056,10.99975z"/><path d="M205.76206,251.61421c8.70095,-0.22459 21.23245,1.76054 15.37275,12.53105c-5.8597,10.77051 -16.12474,9.58443 -16.12474,9.58443c0,0 -6.66227,-0.33171 -4.3107,-7.84332c2.35157,-7.51161 -3.63826,-14.04758 5.06269,-14.27216z" data-paper-data="{&quot;index&quot;:null}"/><path d="M195.74802,285.48955c-3.5478,-5.81219 -4.92058,-4.05161 -3.08125,-5.96012c1.83934,-1.90851 7.51537,-12.31621 11.1643,-2.4269c2.19358,5.94504 0.81568,9.79064 -0.33921,10.98896c-2.89561,3.00449 -4.4944,2.72144 -7.74384,-2.60195z" data-paper-data="{&quot;index&quot;:null}"/><path d="M183.61214,278.77687c6.30054,-1.21663 8.90234,2.2399 11.83835,7.27462c2.936,5.03472 -3.29779,7.37086 -3.29779,7.37086c0,0 -10.41228,2.85356 -16.41299,-3.97136c-6.00072,-6.82491 1.57187,-9.45749 7.87241,-10.67412z"/><path d="M175.53788,279.69907c-0.70948,1.62697 -1.88322,2.98873 -3.74476,3.88428c-5.76302,2.77245 -12.72215,3.87684 -12.18441,-5.11017c0.53775,-8.98701 9.46917,-13.75372 9.46917,-13.75372c0,0 6.0726,-2.63904 6.86092,3.10587c0.53367,3.88921 1.086,8.46392 -0.40093,11.87374z" data-paper-data="{&quot;index&quot;:null}"/><path d="M230.22121,268.64328c-2.42007,-8.17944 2.04445,-12.02268 8.64778,-16.49301c6.60333,-4.47033 10.56063,3.48928 10.56063,3.48928c0,0 5.16281,13.4182 -3.55083,22.14728c-8.71363,8.72909 -13.2375,-0.9641 -15.65757,-9.14354z" data-paper-data="{&quot;index&quot;:null}"/><path d="M212.80963,272.71148c7.39772,-3.05595 8.67773,-11.74442 14.43737,-5.36017c5.75964,6.38425 12.24513,17.06059 0.0414,19.57568c-12.20374,2.51509 -17.86121,-5.94795 -17.86121,-5.94795c0,0 -4.01528,-5.21159 3.38244,-8.26755z" data-paper-data="{&quot;index&quot;:null}"/><path d="M227.71666,247.68955c5.8223,3.65838 6.25004,1.48394 5.4719,3.99409c-0.77813,2.51016 -1.12266,14.30175 -8.89142,7.03691c-4.67024,-4.36732 -5.18703,-8.41086 -4.69846,-9.98694c1.22497,-3.95165 2.78534,-4.39476 8.11799,-1.04405z" data-paper-data="{&quot;index&quot;:null}"/><path d="M241.77445,248.05194c-5.08751,3.83428 -8.99047,1.87293 -13.91109,-1.35586c-4.92062,-3.22879 -0.40249,-8.03637 -0.40249,-8.03637c0,0 8.02388,-7.09129 16.50343,-3.5948c8.47955,3.49649 2.89764,9.15275 -2.18986,12.98703z" data-paper-data="{&quot;index&quot;:null}"/><path d="M248.20693,241.57916c3.898,-4.99313 9.62627,-9.01385 13.23567,-0.73289c3.6094,8.28095 -2.21769,16.44006 -2.21769,16.44006c0,0 -4.23592,5.00855 -7.55684,0.20819c-2.2482,-3.24977 -4.82515,-7.10518 -5.04595,-10.80603c-0.10536,-1.76583 0.32569,-3.49647 1.58481,-5.10933z" data-paper-data="{&quot;index&quot;:null}"/></g><path d="M233.55149,265.50843c-16.12302,3.21113 -28.26443,4.21782 -37.19413,-10.8851c-8.9297,-15.10292 -17.16317,-35.39629 8.38992,-35.61925c25.55309,-0.22296 38.51024,26.27841 38.51024,26.27841c0,0 6.41697,17.01481 -9.70604,20.22594z" data-paper-data="{&quot;index&quot;:null}" fill="#b8b0c7" stroke-width="2"/><path d="M174.11388,228.55064c16.9388,-5.45938 10.01208,11.20176 19.86221,24.09544c9.85012,12.89368 -2.76343,18.04524 -2.76343,18.04524c0,0 -18.957,9.23911 -37.87854,-7.5636c-18.92153,-16.8027 3.84096,-29.11769 20.77976,-34.57707z" data-paper-data="{&quot;index&quot;:null}" fill="#b8b0c7" stroke-width="2"/><path d="M219.12063,273.98285c4.89762,2.57413 1.00443,-0.03243 -1.72494,14.35719c-2.49984,13.17948 -5.38285,14.90121 -13.09298,10.84884c-3.07512,-1.61626 -8.45351,-8.47001 -8.42978,-22.16096c0.0395,-22.77428 18.35011,-5.6192 23.24771,-3.04507z" data-paper-data="{&quot;index&quot;:null}" fill="#b8b0c7" stroke-width="2"/><path d="M252.46985,299.08315c-12.5844,8.4166 -20.20405,2.89684 -29.49668,-5.90904c-9.29263,-8.80588 2.46539,-19.70633 2.46539,-19.70633c0,0 20.28101,-15.8246 37.15276,-5.70042c16.87175,10.12418 2.46292,22.8992 -10.12148,31.3158z" data-paper-data="{&quot;index&quot;:null}" fill="#b8b0c7" stroke-width="2"/><path d="M262.24421,267.19888c-4.22368,-0.46639 -7.45082,-2.29767 -9.97026,-4.95482c-5.28028,-5.56888 -7.45211,-14.76531 -9.17485,-22.6271c-2.54474,-11.61298 11.03369,-10.6361 11.03369,-10.6361c0,0 20.5972,3.14408 27.99331,20.11145c7.39613,16.96737 -6.8061,19.55043 -19.88188,18.10657z" data-paper-data="{&quot;index&quot;:null}" fill="#b8b0c7" stroke-width="2"/><path d="M122.45127,243.12372c7.91316,-10.07328 11.23587,-10.27546 16.39439,-3.48424c2.05743,2.70862 3.92194,10.85663 -1.99444,22.44185c-9.84165,19.2715 -19.13001,0.28141 -20.57355,-5.73895c-1.82047,-7.59242 2.76598,-9.60113 6.1736,-13.21866z" data-paper-data="{&quot;index&quot;:null}" fill="#b8b0c7" stroke-width="2"/><path d="M121.73756,242.92337c-7.20481,9.55913 -13.34391,15.98478 -25.86829,12.03571c-12.52438,-3.94908 -27.29142,-11.07704 -13.41257,-23.56261c13.87885,-12.48557 34.37065,-4.24392 34.37065,-4.24392c0,0 12.11504,6.21169 4.91022,15.77082z" data-paper-data="{&quot;index&quot;:null}" fill="#b8b0c7" stroke-width="2"/><g data-paper-data="{&quot;index&quot;:null}" fill="#635f6c" stroke-width="2"><path d="M363.52036,249.16547c7.81686,-1.79871 8.52526,7.02532 8.52526,7.02532c0,0 -0.20971,14.33585 -11.58245,19.34354c-11.37274,5.00769 -11.96054,-5.63254 -11.15599,-14.11129c0.80456,-8.47874 6.39631,-10.45887 14.21318,-12.25757z"/><path d="M348.66454,262.7753c-1.6738,7.68346 4.87522,13.68413 -3.77266,14.64935c-8.64788,0.96522 -21.30852,0.05555 -16.43008,-11.17337c4.87843,-11.22892 15.21006,-10.92212 15.21006,-10.92212c0,0 6.66648,-0.2373 4.99268,7.44615z" data-paper-data="{&quot;index&quot;:null}"/><path d="M355.45183,248.49959c-1.6624,2.058 -6.39016,12.90983 -10.90576,3.36908c-2.71458,-5.7355 -1.68433,-9.68391 -0.64053,-10.9761c2.61708,-3.23983 4.23501,-3.09409 7.94608,1.93214c4.05183,5.48775 5.26262,3.61688 3.60021,5.67488z" data-paper-data="{&quot;index&quot;:null}"/><path d="M364.53908,248.47765c-6.16827,1.74893 -9.06794,-1.47274 -12.44108,-6.23812c-3.37315,-4.76537 2.62895,-7.62387 2.62895,-7.62387c0,0 10.11862,-3.73003 16.7042,2.55757c6.58559,6.2876 -0.72381,9.55549 -6.89208,11.30442z"/><path d="M372.50054,246.87087c0.56191,-1.68124 1.60994,-3.13784 3.38467,-4.18863c5.49424,-3.25303 12.32859,-4.94627 12.59309,4.0524c0.2645,8.99867 -8.20855,14.50839 -8.20855,14.50839c0,0 -5.81455,3.1465 -7.11139,-2.50939c-0.87794,-3.82894 -1.8355,-8.33919 -0.65783,-11.86276z" data-paper-data="{&quot;index&quot;:null}"/><path d="M319.00945,262.54468c3.13916,7.94212 -0.96619,12.15122 -7.14638,17.16728c-6.1802,5.01607 -10.83118,-2.57606 -10.83118,-2.57606c0,0 -6.33792,-12.92722 1.56537,-22.36569c7.90328,-9.43847 13.27302,-0.16764 16.41218,7.77447z" data-paper-data="{&quot;index&quot;:null}"/><path d="M335.99262,257.00815c-7.0975,3.67477 -7.59904,12.4393 -13.90523,6.57014c-6.3062,-5.86916 -13.71764,-15.95223 -1.78424,-19.49775c11.93341,-3.54551 18.32291,4.40324 18.32291,4.40324c0,0 4.46405,4.84961 -2.63345,8.52437z" data-paper-data="{&quot;index&quot;:null}"/><path d="M317.56344,279.69273c0.55167,-2.56693 -0.155,-14.34306 8.23107,-7.76788c5.04135,3.95273 5.91621,7.93686 5.56983,9.54859c-0.86846,4.04103 -2.38344,4.61542 -7.99417,1.73189c-6.1259,-3.14831 -6.35841,-0.94568 -5.80673,-3.5126z" data-paper-data="{&quot;index&quot;:null}"/><path d="M309.33355,284.04231c4.72676,-4.25326 8.78953,-2.63197 13.97894,0.16522c5.18942,2.79719 1.11652,7.97153 1.11652,7.97153c0,0 -7.36198,7.74811 -16.12062,4.98753c-8.75865,-2.76058 -3.70159,-8.87103 1.02517,-13.12428z" data-paper-data="{&quot;index&quot;:null}"/><path d="M304.62572,285.81369c0.26217,1.75013 -0.01314,3.51093 -1.12387,5.22496c-3.43859,5.30634 -8.78708,9.79993 -13.1201,1.85804c-4.33301,-7.94189 0.74546,-16.56656 0.74546,-16.56656c0,0 3.77387,-5.35049 7.50957,-0.85138c2.52901,3.04583 5.43945,6.66699 5.98893,10.33495z" data-paper-data="{&quot;index&quot;:null}"/></g><g data-paper-data="{&quot;index&quot;:null}" fill="#635f6c" stroke-width="2"><path d="M392.6424,251.30982c7.81687,1.79871 13.40864,3.77884 14.21319,12.25758c0.80455,8.47874 0.21674,19.11897 -11.156,14.11128c-11.37274,-5.00769 -11.58244,-19.34354 -11.58244,-19.34354c0,0 0.70839,-8.82402 8.52526,-7.02532z"/><path d="M411.27088,279.56901c-8.64788,-0.96522 -2.09886,-6.96589 -3.77266,-14.64935c-1.67381,-7.68346 4.99268,-7.44615 4.99268,-7.44615c0,0 10.33163,-0.3068 15.21007,10.92212c4.87844,11.22892 -7.7822,12.1386 -16.43008,11.17338z" data-paper-data="{&quot;index&quot;:null}"/><path d="M404.31116,244.96907c3.71108,-5.02624 5.329,-5.17198 7.94608,-1.93214c1.0438,1.29218 2.07406,5.2406 -0.64053,10.9761c-4.51559,9.54075 -9.24336,-1.31109 -10.90577,-3.36909c-1.66241,-2.058 -0.45161,-0.18712 3.60022,-5.67487z" data-paper-data="{&quot;index&quot;:null}"/><path d="M404.06478,244.3839c-3.37315,4.76538 -6.27281,7.98705 -12.44108,6.23812c-6.16827,-1.74892 -13.47767,-5.01682 -6.89208,-11.30442c6.58559,-6.28761 16.7042,-2.55758 16.7042,-2.55758c0,0 6.00209,2.8585 2.62895,7.62388z"/><path d="M383.66223,249.01523c1.17767,3.52357 0.22011,8.03381 -0.65783,11.86276c-1.29684,5.6559 -7.11138,2.5094 -7.11138,2.5094c0,0 -8.47306,-5.50972 -8.20856,-14.50839c0.2645,-8.99868 7.09885,-7.30544 12.5931,-4.0524c1.77473,1.05078 2.82275,2.50739 3.38467,4.18863z" data-paper-data="{&quot;index&quot;:null}"/><path d="M444.29973,281.8563c-6.1802,-5.01606 -10.28554,-9.22515 -7.14638,-17.16727c3.13916,-7.94211 8.50889,-17.21294 16.41218,-7.77447c7.90328,9.43847 1.56536,22.36569 1.56536,22.36569c0,0 -4.65098,7.59212 -10.83117,2.57606z" data-paper-data="{&quot;index&quot;:null}"/><path d="M434.07541,265.72266c-6.3062,5.86915 -6.80772,-2.89536 -13.90522,-6.57013c-7.0975,-3.67477 -2.63346,-8.52438 -2.63346,-8.52438c0,0 6.38951,-7.94876 18.32291,-4.40324c11.9334,3.54551 4.52195,13.62859 -1.78424,19.49774z" data-paper-data="{&quot;index&quot;:null}"/><path d="M432.7926,285.34969c-5.61073,2.88353 -7.12569,2.30913 -7.99417,-1.73189c-0.34639,-1.61173 0.52847,-5.59587 5.56983,-9.54859c8.38608,-6.57518 7.67939,5.20096 8.23107,7.76788c0.55168,2.56693 0.31917,0.3643 -5.80673,3.5126z" data-paper-data="{&quot;index&quot;:null}"/><path d="M432.85027,286.35188c5.18942,-2.79719 9.25218,-4.41847 13.97894,-0.16522c4.72675,4.25325 9.78381,10.3637 1.02517,13.12428c-8.75865,2.76058 -16.12062,-4.98753 -16.12062,-4.98753c0,0 -4.07289,-5.17434 1.11652,-7.97153z" data-paper-data="{&quot;index&quot;:null}"/><path d="M452.66093,293.18302c-1.11072,-1.71403 -1.38605,-3.47482 -1.12387,-5.22496c0.54948,-3.66796 3.45992,-7.28911 5.98893,-10.33494c3.7357,-4.49911 7.50957,0.85138 7.50957,0.85138c0,0 5.07848,8.62467 0.74546,16.56656c-4.33301,7.94189 -9.68151,3.44829 -13.1201,-1.85804z" data-paper-data="{&quot;index&quot;:null}"/></g><path d="M315.97097,265.53578c15.77581,-4.01368 27.78143,-5.80206 38.02194,6.73563c10.24051,12.53769 20.24958,29.66583 -5.18653,31.77209c-25.4361,2.10625 -40.70366,-20.09669 -40.70366,-20.09669c0,0 -7.90757,-14.39733 7.86824,-18.41102z" data-paper-data="{&quot;index&quot;:null}" fill="#b8b0c7" stroke-width="2"/><path d="M378.47332,299.57059c-16.38831,7.17237 -10.9714,-10.7406 -21.93214,-23.25215c-10.96072,-12.51155 1.14619,-18.98021 1.14619,-18.98021c0,0 18.06231,-11.27576 38.40801,4.48854c20.34571,15.7643 -1.23375,30.57146 -17.62206,37.74383z" data-paper-data="{&quot;index&quot;:null}" fill="#b8b0c7" stroke-width="2"/><path d="M329.63388,256.7435c-5.09579,-2.00831 -0.99788,0.11615 0.50916,-13.67621c1.38029,-12.63245 4.10733,-14.50056 12.12947,-11.33895c3.19957,1.26098 9.13477,7.26115 10.26423,20.16456c1.87881,21.46426 -17.80707,6.85891 -22.90287,4.8506z" data-paper-data="{&quot;index&quot;:null}" fill="#b8b0c7" stroke-width="2"/><path d="M313.44393,265.74072c-12.79108,3.02212 -29.19049,4.47658 -24.00665,-13.25835c5.18385,-17.73493 27.06129,-21.16064 27.06129,-21.16064c0,0 13.64825,-0.88284 12.59814,10.94948c-1.05011,11.83232 -2.86171,20.44739 -15.65278,23.46951z" data-paper-data="{&quot;index&quot;:null}" fill="#b8b0c7" stroke-width="2"/><path d="M290.20129,265.74581c4.24917,0.10468 7.62708,1.65399 10.37354,4.08633c5.75606,5.09773 8.73847,14.07413 11.15468,21.75923c3.56908,11.35198 -10.04472,11.53594 -10.04472,11.53594c0,0 -20.79885,-1.37687 -29.67761,-17.64945c-8.87876,-16.27258 5.03948,-20.05612 18.19412,-19.73205z" data-paper-data="{&quot;index&quot;:null}" fill="#b8b0c7" stroke-width="2"/><path d="M439.61147,273.76314c-16.20673,-2.77859 -27.88366,-6.18471 -30.55037,-23.4361c-2.66672,-17.25139 -2.74548,-39.08475 21.12155,-30.15166c23.86702,8.93309 26.02216,38.23431 26.02216,38.23431c0,0 -0.3866,18.13205 -16.59334,15.35346z" data-paper-data="{&quot;index&quot;:null}" fill="#b8b0c7" stroke-width="2"/><path d="M373.09399,252.53113c-16.44514,0.51987 -13.54172,-12.54709 -13.54172,-12.54709c0,0 3.1091,-20.4953 28.02355,-26.0539c24.91444,-5.5586 22.2047,19.75012 17.08317,36.46275c-5.12152,16.71263 -15.11986,1.61836 -31.565,2.13824z" data-paper-data="{&quot;index&quot;:null}" fill="#b8b0c7" stroke-width="2"/><path d="M420.37348,290.86372c-6.98616,10.70934 -10.27823,11.19391 -16.02183,4.86811c-2.29079,-2.523 -4.8737,-10.48113 -0.01135,-22.52651c8.0883,-20.03694 19.03223,-1.91058 21.00633,3.96388c2.48958,7.40842 -1.90059,9.80035 -4.97315,13.69452z" data-paper-data="{&quot;index&quot;:null}" fill="#b8b0c7" stroke-width="2"/><path d="M452.55483,274.75057c14.68741,2.69174 32.25679,8.17751 17.6999,20.96683c-14.55688,12.78932 -38.76925,6.7199 -38.76925,6.7199c0,0 -14.45119,-4.84091 -7.20812,-14.35885c7.24308,-9.51795 13.59005,-16.01962 28.27747,-13.32788z" data-paper-data="{&quot;index&quot;:null}" fill="#b8b0c7" stroke-width="2"/><path d="M458.65466,252.1516c0.92415,-3.76983 2.36669,-6.18159 4.10575,-7.6745c3.64475,-3.12888 8.59199,-2.22179 12.79935,-1.32213c6.21485,1.32891 3.50474,13.61424 3.50474,13.61424c0,0 -4.94094,18.1076 -14.62326,19.57784c-9.68232,1.47025 -8.64758,-12.52475 -5.78658,-24.19545z" data-paper-data="{&quot;index&quot;:null}" fill="#b8b0c7" stroke-width="2"/><path d="M153.69573,294.06023c1.74728,-10.78876 4.06477,-18.58968 17.01298,-20.69537c12.94821,-2.10569 29.40615,-2.58749 23.18335,13.39596c-6.2228,15.98345 -28.26604,17.98744 -28.26604,17.98744c0,0 -13.6776,0.10074 -11.9303,-10.68803z" data-paper-data="{&quot;index&quot;:null}" fill="#b8b0c7" stroke-width="2"/><path d="M120.27098,287.74845c-0.79839,-3.99771 0.0313,-7.48068 1.87716,-10.55644c3.86859,-6.44623 12.20068,-11.10389 19.3633,-14.96319c10.5802,-5.70072 13.65687,6.99943 13.65687,6.99943c0,0 3.04449,19.74784 -11.32225,31.44027c-14.36674,11.69244 -21.10343,-0.54389 -23.57509,-12.92007z" data-paper-data="{&quot;index&quot;:null}" fill="#b8b0c7" stroke-width="2"/><path d="M481.25331,214.27882v89.90722h-480.23242v-89.90721z" data-paper-data="{&quot;index&quot;:null}" fill="url(#color-1)" stroke-width="0"/><path d="M293.88805,236.62548c-6.80751,3.88851 -10.18731,0.40197 -14.76254,-1.55401c-12.24926,-4.04284 -13.48068,-6.94278 -8.49119,-13.56605c1.99002,-2.64164 9.32347,-6.73524 22.4193,-4.92275c21.78435,3.015 6.23243,16.95945 0.83444,20.04282z" data-paper-data="{&quot;index&quot;:null}" fill="#b8b0c7" stroke-width="2"/><path d="M141.23312,238.13929c-7.87055,-0.43203 -8.72266,-5.16425 -11.43504,-9.26537c-7.93525,-9.98422 -7.32654,-13.06745 0.57034,-15.89758c3.14961,-1.12878 11.57445,-0.58387 21.47371,7.99732c16.46698,14.27441 -4.36811,17.50821 -10.60902,17.16563z" data-paper-data="{&quot;index&quot;:null}" fill="#b8b0c7" stroke-width="2"/><path d="M480.12029,214.11254v89.90722h-480.23242v-89.90721z" data-paper-data="{&quot;index&quot;:null}" fill="url(#color-2)" stroke-width="0"/><g data-paper-data="{&quot;index&quot;:null}" fill="#635f6c" stroke-width="2"><path d="M455.88449,231.16566c-8.4296,1.59093 -14.77983,2.10012 -19.4764,-5.25761c-4.69658,-7.35773 -9.03747,-17.24966 4.33049,-17.39612c13.36796,-0.14646 20.19034,12.76828 20.19034,12.76828c0,0 3.38516,8.29452 -5.04444,9.88545z"/><path d="M424.72821,213.2162c8.85267,-2.68937 5.25638,5.4522 10.43085,11.73037c5.17447,6.27817 -1.41594,8.81093 -1.41594,8.81093c0,0 -9.90228,4.53702 -19.82898,-3.63556c-9.9267,-8.17258 1.96138,-14.21637 10.81405,-16.90574z" data-paper-data="{&quot;index&quot;:null}"/><path d="M448.34806,235.09544c2.56625,1.18114 0.52542,-0.01645 -0.88002,6.63059c-1.28722,6.08803 -2.79281,6.88711 -6.83276,5.02769c-1.6113,-0.74162 -4.43576,-3.89775 -4.4447,-10.21826c-0.01488,-10.51388 9.59124,-2.62116 12.15749,-1.44002z" data-paper-data="{&quot;index&quot;:null}"/><path d="M447.97776,242.15517c1.07914,-5.71216 2.41069,-9.82916 9.21462,-10.78566c6.80393,-0.95651 15.4185,-1.00585 11.91913,7.41101c-3.49937,8.41686 -15.05826,9.20507 -15.05826,9.20507c0,0 -7.15466,-0.11826 -6.0755,-5.83042z"/><path d="M470.89815,231.94839c-2.21043,-0.2214 -3.90176,-1.11039 -5.22421,-2.40348c-2.77162,-2.71008 -3.923,-7.19514 -4.83724,-11.0295c-1.35047,-5.66389 5.75482,-5.20714 5.75482,-5.20714c0,0 10.78079,1.50411 14.67814,9.77404c3.89733,8.26992 -3.52842,9.55149 -10.37152,8.86608z" data-paper-data="{&quot;index&quot;:null}"/><path d="M406.43623,237.37978c0.61494,8.49669 -0.32514,19.11785 -12.36585,13.8159c-12.04072,-5.30195 -11.84748,-19.63819 -11.84748,-19.63819c0,0 1.01636,-8.80247 9.34025,-6.80092c8.32389,2.00155 14.25814,4.12652 14.87308,12.62321z" data-paper-data="{&quot;index&quot;:null}"/><path d="M408.95128,235.17365c3.42093,-7.92219 7.95486,-0.18039 16.55126,0.22661c8.59639,0.407 6.49561,6.64523 6.49561,6.64523c0,0 -2.54183,9.84252 -15.7798,11.54614c-13.23797,1.70362 -10.68802,-10.49579 -7.26708,-18.41798z" data-paper-data="{&quot;index&quot;:null}"/><path d="M397.11366,222.42428c-1.7214,-2.10055 -0.47848,-0.19882 4.02334,-5.57916c4.12322,-4.92786 5.86118,-5.03142 8.57112,-1.72461c1.08083,1.31889 2.06973,5.29272 -1.00637,10.95554c-5.11694,9.41983 -9.86669,-1.55124 -11.58809,-3.65178z" data-paper-data="{&quot;index&quot;:null}"/><path d="M387.10488,221.87206c-6.55875,-1.90887 -14.29602,-5.36588 -7.05578,-11.47983c7.24024,-6.11395 17.97432,-2.12186 17.97432,-2.12186c0,0 6.34833,3.01373 2.59483,7.68962c-3.7535,4.67589 -6.95462,7.82094 -13.51337,5.91207z" data-paper-data="{&quot;index&quot;:null}"/><path d="M378.20553,217.93096c1.87111,1.09661 2.95167,2.57998 3.50479,4.27525c1.15923,3.55297 0.00166,8.03671 -1.05075,11.84144c-1.55454,5.62013 -7.69351,2.32339 -7.69351,2.32339c0,0 -8.91886,-5.72833 -8.37308,-14.71693c0.54577,-8.98861 7.81989,-7.11806 13.61254,-3.72316z" data-paper-data="{&quot;index&quot;:null}"/></g><g data-paper-data="{&quot;index&quot;:null}" fill="#635f6c" stroke-width="2"><path d="M333.53939,224.77502c-4.38135,-7.35773 -8.43086,-17.24966 4.03982,-17.39612c12.47068,-0.14646 18.83513,12.76828 18.83513,12.76828c0,0 3.15797,8.29452 -4.70583,9.88545c-7.86379,1.59093 -13.78778,2.10012 -18.16912,-5.25761z"/><path d="M332.37418,223.81355c4.82714,6.27817 -1.3209,8.81093 -1.3209,8.81093c0,0 -9.23762,4.53702 -18.49802,-3.63556c-9.26041,-8.17258 1.82972,-14.21637 10.0882,-16.90574c8.25848,-2.68937 4.90357,5.4522 9.73072,11.73037z" data-paper-data="{&quot;index&quot;:null}"/><path d="M344.67797,233.96243c2.39399,1.18114 0.49016,-0.01646 -0.82095,6.63058c-1.20084,6.08803 -2.60536,6.88711 -6.37415,5.02769c-1.50315,-0.74162 -4.13802,-3.89775 -4.14637,-10.21826c-0.01388,-10.51388 8.94747,-2.62116 11.34146,-1.44002z" data-paper-data="{&quot;index&quot;:null}"/><path d="M344.33248,241.02213c1.00671,-5.71216 2.24889,-9.82915 8.59613,-10.78565c6.34724,-0.9565 14.38358,-1.00585 11.1191,7.41101c-3.26448,8.41686 -14.04752,9.20507 -14.04752,9.20507c0,0 -6.67442,-0.11826 -5.66771,-5.83042z"/><path d="M365.71442,230.81538c-2.06206,-0.2214 -3.63986,-1.11039 -4.87355,-2.40348c-2.58558,-2.71008 -3.65967,-7.19514 -4.51255,-11.0295c-1.25981,-5.6639 5.36855,-5.20714 5.36855,-5.20714c0,0 10.05717,1.5041 13.69292,9.77403c3.63574,8.26992 -3.29159,9.55149 -9.67537,8.86608z" data-paper-data="{&quot;index&quot;:null}"/><path d="M291.70451,223.62358c7.76517,2.00154 13.30112,4.12651 13.87478,12.6232c0.57366,8.49669 -0.30332,19.11785 -11.53584,13.8159c-11.23252,-5.30195 -11.05225,-19.63819 -11.05225,-19.63819c0,0 0.94814,-8.80247 8.71331,-6.80092z" data-paper-data="{&quot;index&quot;:null}"/><path d="M307.92554,234.04063c3.1913,-7.92219 7.42092,-0.18039 15.44031,0.22661c8.0194,0.40699 6.05962,6.64522 6.05962,6.64522c0,0 -2.37122,9.84253 -14.72063,11.54615c-12.34942,1.70362 -9.97063,-10.49579 -6.77931,-18.41798z" data-paper-data="{&quot;index&quot;:null}"/><path d="M296.88247,221.29126c-1.60585,-2.10055 -0.44636,-0.19882 3.75329,-5.57916c3.84647,-4.92786 5.46777,-5.03142 7.99581,-1.72461c1.00829,1.31889 1.93081,5.29272 -0.93882,10.95554c-4.77348,9.41983 -9.20443,-1.55124 -10.81028,-3.65178z" data-paper-data="{&quot;index&quot;:null}"/><path d="M300.15184,214.82697c-3.50156,4.67588 -6.48782,7.82093 -12.60634,5.91206c-6.11852,-1.90887 -13.33646,-5.36588 -6.58219,-11.47983c6.75428,-6.11395 16.76786,-2.12185 16.76786,-2.12185c0,0 5.92221,3.01373 2.42066,7.68962z" data-paper-data="{&quot;index&quot;:null}"/><path d="M279.24348,216.79792c1.74553,1.09661 2.75356,2.57998 3.26955,4.27525c1.08142,3.55298 0.00153,8.03672 -0.98023,11.84145c-1.4502,5.62013 -7.17711,2.32339 -7.17711,2.32339c0,0 -8.32019,-5.72833 -7.81106,-14.71693c0.50913,-8.9886 7.29502,-7.11805 12.69885,-3.72315z" data-paper-data="{&quot;index&quot;:null}"/></g><g data-paper-data="{&quot;index&quot;:null}" fill="#635f6c" stroke-width="2"><path d="M250.92433,229.39845c-7.86379,1.59093 -13.78778,2.10012 -18.16912,-5.25761c-4.38134,-7.35773 -8.43085,-17.24966 4.03983,-17.39612c12.47068,-0.14646 18.83513,12.76828 18.83513,12.76828c0,0 3.15796,8.29452 -4.70583,9.88545z"/><path d="M231.59002,223.17936c4.82714,6.27817 -1.3209,8.81093 -1.3209,8.81093c0,0 -9.23762,4.53702 -18.49802,-3.63556c-9.26041,-8.17258 1.82973,-14.21637 10.0882,-16.90574c8.25847,-2.68937 4.90357,5.4522 9.73072,11.73037z" data-paper-data="{&quot;index&quot;:null}"/><path d="M243.89379,233.32823c2.39399,1.18114 0.49016,-0.01645 -0.82095,6.63059c-1.20084,6.08803 -2.60536,6.88711 -6.37415,5.02769c-1.50314,-0.74162 -4.13803,-3.89775 -4.14637,-10.21826c-0.01389,-10.51388 8.94747,-2.62116 11.34146,-1.44002z" data-paper-data="{&quot;index&quot;:null}"/><path d="M252.14445,229.6023c6.34724,-0.95651 14.38358,-1.00585 11.1191,7.41101c-3.26448,8.41686 -14.04752,9.20507 -14.04752,9.20507c0,0 -6.67442,-0.11826 -5.66771,-5.83042c1.00671,-5.71216 2.24889,-9.82916 8.59613,-10.78566z"/><path d="M260.05671,227.7777c-2.58558,-2.71008 -3.65967,-7.19514 -4.51255,-11.0295c-1.25981,-5.66389 5.36855,-5.20714 5.36855,-5.20714c0,0 10.05717,1.50411 13.69292,9.77404c3.63574,8.26992 -3.29159,9.55149 -9.67537,8.86608c-2.06206,-0.2214 -3.63986,-1.11039 -4.87355,-2.40348z" data-paper-data="{&quot;index&quot;:null}"/><path d="M204.79512,235.61257c0.57366,8.49669 -0.30332,19.11785 -11.53584,13.8159c-11.23252,-5.30195 -11.05225,-19.63819 -11.05225,-19.63819c0,0 0.94813,-8.80247 8.71331,-6.80092c7.76517,2.00155 13.30112,4.12652 13.87478,12.62321z" data-paper-data="{&quot;index&quot;:null}"/><path d="M222.58167,233.63305c8.0194,0.407 6.05962,6.64523 6.05962,6.64523c0,0 -2.37121,9.84252 -14.72062,11.54614c-12.34942,1.70362 -9.97063,-10.49579 -6.77931,-18.41798c3.1913,-7.92219 7.42092,-0.18039 15.44031,0.22661z" data-paper-data="{&quot;index&quot;:null}"/><path d="M196.09831,220.65707c-1.60585,-2.10055 -0.44636,-0.19882 3.75329,-5.57916c3.84647,-4.92786 5.46777,-5.03142 7.99581,-1.72461c1.00829,1.31889 1.93081,5.29272 -0.93882,10.95554c-4.77348,9.41983 -9.20443,-1.55124 -10.81028,-3.65178z" data-paper-data="{&quot;index&quot;:null}"/><path d="M186.76132,220.10485c-6.11852,-1.90887 -13.33646,-5.36588 -6.58219,-11.47983c6.75427,-6.11395 16.76786,-2.12186 16.76786,-2.12186c0,0 5.92221,3.01373 2.42066,7.68962c-3.50156,4.67589 -6.48781,7.82094 -12.60633,5.91207z" data-paper-data="{&quot;index&quot;:null}"/><path d="M178.45931,216.16375c1.74553,1.09661 2.75356,2.57998 3.26955,4.27525c1.08141,3.55297 0.00153,8.03671 -0.98023,11.84144c-1.4502,5.62013 -7.17711,2.32339 -7.17711,2.32339c0,0 -8.3202,-5.72833 -7.81106,-14.71693c0.50914,-8.98861 7.29502,-7.11806 12.69885,-3.72316z" data-paper-data="{&quot;index&quot;:null}"/></g><g data-paper-data="{&quot;index&quot;:null}" fill="#635f6c" stroke-width="2"><path d="M149.58247,228.9428c7.86379,1.59093 4.70583,9.88545 4.70583,9.88545c0,0 -6.36445,12.91474 -18.83513,12.76828c-12.47068,-0.14646 -8.42117,-10.03839 -4.03983,-17.39612c4.38134,-7.35773 10.30533,-6.84854 18.16912,-5.25761z"/><path d="M120.51743,246.89226c-8.25847,-2.68937 -19.34861,-8.73316 -10.0882,-16.90574c9.2604,-8.17258 18.49802,-3.63556 18.49802,-3.63556c0,0 6.14804,2.53276 1.3209,8.81093c-4.82715,6.27817 -1.47225,14.41974 -9.73072,11.73037z" data-paper-data="{&quot;index&quot;:null}"/><path d="M142.55191,225.01302c-2.39399,1.18114 -11.35535,9.07386 -11.34146,-1.44002c0.00834,-6.32051 2.64323,-9.47664 4.14637,-10.21826c3.76879,-1.85942 5.17331,-1.06034 6.37415,5.02769c1.31111,6.64704 3.21494,5.44945 0.82095,6.63059z" data-paper-data="{&quot;index&quot;:null}"/><path d="M142.20645,217.95329c-1.00671,-5.71216 5.66771,-5.83042 5.66771,-5.83042c0,0 10.78304,0.78821 14.04752,9.20507c3.26448,8.41686 -4.77186,8.36752 -11.1191,7.41101c-6.34724,-0.9565 -7.58942,-5.0735 -8.59613,-10.78566z"/><path d="M163.58839,228.16007c6.38378,-0.68541 13.31111,0.59616 9.67537,8.86608c-3.63575,8.26993 -13.69292,9.77404 -13.69292,9.77404c0,0 -6.62836,0.45675 -5.36855,-5.20714c0.85288,-3.83436 1.92697,-8.31942 4.51255,-11.0295c1.23369,-1.29309 2.81149,-2.18208 4.87355,-2.40348z" data-paper-data="{&quot;index&quot;:null}"/><path d="M89.57847,235.35189c-7.76518,2.00155 -8.71331,-6.80092 -8.71331,-6.80092c0,0 -0.18027,-14.33624 11.05225,-19.63819c11.23252,-5.30195 12.1095,5.31921 11.53584,13.8159c-0.57366,8.49669 -6.10961,10.62166 -13.87478,12.62321z" data-paper-data="{&quot;index&quot;:null}"/><path d="M105.79949,224.93481c-3.19132,-7.92219 -5.57011,-20.1216 6.77931,-18.41798c12.34941,1.70362 14.72062,11.54614 14.72062,11.54614c0,0 1.95978,6.23823 -6.05962,6.64523c-8.01939,0.407 -12.24901,8.1488 -15.44031,0.22661z" data-paper-data="{&quot;index&quot;:null}"/><path d="M94.75644,237.68419c1.60585,-2.10054 6.0368,-13.07161 10.81028,-3.65178c2.86963,5.66282 1.94711,9.63665 0.93882,10.95554c-2.52804,3.30681 -4.14934,3.20325 -7.99581,-1.72461c-4.19965,-5.38034 -5.35914,-3.47861 -3.75329,-5.57916z" data-paper-data="{&quot;index&quot;:null}"/><path d="M98.02578,244.14847c3.50155,4.67589 -2.42066,7.68962 -2.42066,7.68962c0,0 -10.01359,3.99209 -16.76786,-2.12186c-6.75427,-6.11395 0.46367,-9.57096 6.58219,-11.47983c6.11852,-1.90887 9.10477,1.23618 12.60633,5.91207z" data-paper-data="{&quot;index&quot;:null}"/><path d="M77.11744,242.17751c-5.40383,3.3949 -12.18971,5.26545 -12.69885,-3.72316c-0.50914,-8.9886 7.81106,-14.71693 7.81106,-14.71693c0,0 5.72691,-3.29674 7.17711,2.32339c0.98176,3.80473 2.06164,8.28847 0.98023,11.84144c-0.51599,1.69527 -1.52402,3.17864 -3.26955,4.27525z" data-paper-data="{&quot;index&quot;:null}"/></g><g data-paper-data="{&quot;index&quot;:null}" fill="#635f6c" stroke-width="2"><path d="M8.04183,225.2421c7.86379,-1.59093 13.78778,-2.10012 18.16912,5.25761c4.38134,7.35773 8.43085,17.24966 -4.03983,17.39612c-12.47068,0.14646 -18.83513,-12.76828 -18.83513,-12.76828c0,0 -3.15796,-8.29452 4.70583,-9.88545z"/><path d="M27.37614,231.46119c-4.82714,-6.27817 1.3209,-8.81093 1.3209,-8.81093c0,0 9.23762,-4.53702 18.49802,3.63556c9.26041,8.17258 -1.82973,14.21637 -10.0882,16.90574c-8.25847,2.68937 -4.90357,-5.4522 -9.73072,-11.73037z" data-paper-data="{&quot;index&quot;:null}"/><path d="M15.07237,221.31232c-2.39399,-1.18114 -0.49016,0.01645 0.82095,-6.63059c1.20084,-6.08803 2.60536,-6.88711 6.37415,-5.02769c1.50314,0.74162 4.13803,3.89775 4.14637,10.21826c0.01389,10.51388 -8.94747,2.62116 -11.34146,1.44002z" data-paper-data="{&quot;index&quot;:null}"/><path d="M6.82171,225.03825c-6.34724,0.95651 -14.38358,1.00585 -11.1191,-7.41101c3.26448,-8.41686 14.04752,-9.20507 14.04752,-9.20507c0,0 6.67442,0.11826 5.66771,5.83042c-1.00671,5.71216 -2.24889,9.82916 -8.59613,10.78566z"/><path d="M-1.09055,226.86285c2.58558,2.71008 3.65967,7.19514 4.51255,11.0295c1.25981,5.66389 -5.36855,5.20714 -5.36855,5.20714c0,0 -10.05717,-1.50411 -13.69292,-9.77404c-3.63574,-8.26992 3.29159,-9.55149 9.67537,-8.86608c2.06206,0.2214 3.63986,1.11039 4.87355,2.40348z" data-paper-data="{&quot;index&quot;:null}"/><path d="M54.17104,219.02798c-0.57366,-8.49669 0.30332,-19.11785 11.53584,-13.8159c11.23252,5.30195 11.05225,19.63819 11.05225,19.63819c0,0 -0.94813,8.80247 -8.71331,6.80092c-7.76517,-2.00155 -13.30112,-4.12652 -13.87478,-12.62321z" data-paper-data="{&quot;index&quot;:null}"/><path d="M36.38449,221.0075c-8.0194,-0.407 -6.05962,-6.64523 -6.05962,-6.64523c0,0 2.37121,-9.84252 14.72062,-11.54614c12.34942,-1.70362 9.97063,10.49579 6.77931,18.41798c-3.1913,7.92219 -7.42092,0.18039 -15.44031,-0.22661z" data-paper-data="{&quot;index&quot;:null}"/><path d="M62.86785,233.98348c1.60585,2.10055 0.44636,0.19882 -3.75329,5.57916c-3.84647,4.92786 -5.46777,5.03142 -7.99581,1.72461c-1.00829,-1.31889 -1.93081,-5.29272 0.93882,-10.95554c4.77348,-9.41983 9.20443,1.55124 10.81028,3.65178z" data-paper-data="{&quot;index&quot;:null}"/><path d="M72.20484,234.5357c6.11852,1.90887 13.33646,5.36588 6.58219,11.47983c-6.75427,6.11395 -16.76786,2.12186 -16.76786,2.12186c0,0 -5.92221,-3.01373 -2.42066,-7.68962c3.50156,-4.67589 6.48781,-7.82094 12.60633,-5.91207z" data-paper-data="{&quot;index&quot;:null}"/><path d="M80.50685,238.4768c-1.74553,-1.09661 -2.75356,-2.57998 -3.26955,-4.27525c-1.08141,-3.55297 -0.00153,-8.03671 0.98023,-11.84144c1.4502,-5.62013 7.17711,-2.32339 7.17711,-2.32339c0,0 8.3202,5.72833 7.81106,14.71693c-0.50914,8.98861 -7.29502,7.11806 -12.69885,3.72316z" data-paper-data="{&quot;index&quot;:null}"/></g></g></g></svg>